<mxfile host="app.diagrams.net" modified="2022-06-01T08:02:49.510Z" agent="5.0 (Windows NT 10.0; Win64; x64) AppleWebKit/537.36 (KHTML, like Gecko) Chrome/100.0.4896.88 Safari/537.36" etag="pGfiT6ngk_5Bxzm2ru-N" version="18.2.0" type="github">
  <diagram id="o6wq06a_N_xWfubClLDa" name="Page-1">
    <mxGraphModel dx="719" dy="419" grid="1" gridSize="10" guides="1" tooltips="1" connect="1" arrows="1" fold="1" page="1" pageScale="1" pageWidth="850" pageHeight="1100" math="0" shadow="0">
      <root>
        <mxCell id="0" />
        <mxCell id="1" parent="0" />
        <mxCell id="WoTsO5wu614ysKqP60s0-8" value="" style="rounded=1;whiteSpace=wrap;html=1;fillColor=#E6E6E6;shadow=0;glass=0;sketch=0;" parent="1" vertex="1">
          <mxGeometry x="140" y="50" width="400" height="200" as="geometry" />
        </mxCell>
        <mxCell id="WoTsO5wu614ysKqP60s0-1" value="" style="shape=datastore;whiteSpace=wrap;html=1;" parent="1" vertex="1">
          <mxGeometry x="310" y="60" width="60" height="60" as="geometry" />
        </mxCell>
        <mxCell id="WoTsO5wu614ysKqP60s0-3" value="" style="sketch=0;html=1;dashed=0;whitespace=wrap;fillColor=#2875E2;strokeColor=#ffffff;points=[[0.005,0.63,0],[0.1,0.2,0],[0.9,0.2,0],[0.5,0,0],[0.995,0.63,0],[0.72,0.99,0],[0.5,1,0],[0.28,0.99,0]];shape=mxgraph.kubernetes.icon;prIcon=api" parent="1" vertex="1">
          <mxGeometry x="375" y="191" width="50" height="48" as="geometry" />
        </mxCell>
        <mxCell id="WoTsO5wu614ysKqP60s0-4" value="WFS" style="rounded=0;whiteSpace=wrap;html=1;" parent="1" vertex="1">
          <mxGeometry x="255" y="200" width="60" height="30" as="geometry" />
        </mxCell>
        <mxCell id="YghAzzQnqxR3YXbTXL73-5" style="edgeStyle=orthogonalEdgeStyle;curved=1;rounded=0;orthogonalLoop=1;jettySize=auto;html=1;exitX=0.5;exitY=1;exitDx=0;exitDy=0;exitPerimeter=0;entryX=0;entryY=0.25;entryDx=0;entryDy=0;" edge="1" parent="1" source="WoTsO5wu614ysKqP60s0-10" target="YghAzzQnqxR3YXbTXL73-3">
          <mxGeometry relative="1" as="geometry" />
        </mxCell>
        <mxCell id="YghAzzQnqxR3YXbTXL73-9" style="edgeStyle=orthogonalEdgeStyle;rounded=0;orthogonalLoop=1;jettySize=auto;html=1;exitX=0.5;exitY=1;exitDx=0;exitDy=0;exitPerimeter=0;entryX=0.25;entryY=0;entryDx=0;entryDy=0;curved=1;" edge="1" parent="1" source="WoTsO5wu614ysKqP60s0-10" target="WoTsO5wu614ysKqP60s0-11">
          <mxGeometry relative="1" as="geometry" />
        </mxCell>
        <mxCell id="WoTsO5wu614ysKqP60s0-10" value="" style="verticalLabelPosition=bottom;html=1;verticalAlign=top;align=center;strokeColor=none;fillColor=#007FFF;shape=mxgraph.azure.sql_database_sql_azure;" parent="1" vertex="1">
          <mxGeometry x="80" y="280" width="50" height="50" as="geometry" />
        </mxCell>
        <mxCell id="WoTsO5wu614ysKqP60s0-11" value="WMS/WFS/WMTS&#xa;Map services" style="shape=image;imageAspect=0;aspect=fixed;verticalLabelPosition=bottom;verticalAlign=top;fillColor=#3333FF;image=data:image/jpeg,iVBORw0KGgoAAAANSUhEUgAABAAAAAQACAYAAAB/HSuDAAAABHNCSVQICAgIfAhkiAAAAAlwSFlzAAJOjQACTo0BQHqWvAAAABl0RVh0U29mdHdhcmUAd3d3Lmlua3NjYXBlLm9yZ5vuPBoAACAASURBVHic7N1NyL3tet/169lv2am1SUux28kWiQitVkuJWmxDKwVBSJAOBDuSVkqngjhIJ24nLaUTnenAlo4qOBCpIAiipUZ8Q9TYBtRSzCQ7UjSJtdnZOzuPg/1cT/7P9b9f1stxXNd5nr/PZ3avNTkGa/L7cq9rffLpp59uAAAAwNq+dPUBAAAAQD8BAAAAAAIIAAAAABBAAAAAAIAAAgAAAAAEEAAAAAAggAAAAAAAAQQAAAAACCAAAAAAQAABAAAAAAIIAAAAABBAAAAAAIAAAgAAAAAEEAAAAAAggAAAAAAAAQQAAAAACCAAAAAAQAABAAAAAAIIAAAAABBAAAAAAIAAAgAAAAAEEAAAAAAggAAAAAAAAQQAAAAACCAAAAAAQAABAAAAAAIIAAAAABBAAAAAAIAAAgAAAAAEEAAAAAAggAAAAAAAAQQAAAAACCAAAAAAQAABAAAAAAIIAAAAABBAAAAAAIAAAgAAAAAEEAAAAAAggAAAAAAAAQQAAAAACCAAAAAAQAABAAAAAAIIAAAAABBAAAAAAIAAAgAAAAAEEAAAAAAggAAAAAAAAQQAAAAACCAAAAAAQAABAAAAAAIIAAAAABBAAAAAAIAAAgAAAAAEEAAAAAAggAAAAAAAAQQAAAAACCAAAAAAQAABAAAAAAIIAAAAABBAAAAAAIAAAgAAAAAEEAAAAAAggAAAAAAAAQQAAAAACCAAAAAAQAABAAAAAAIIAAAAABBAAAAAAIAAAgAAAAAEEAAAAAAggAAAAAAAAQQAAAAACCAAAAAAQAABAAAAAAIIAAAAABBAAAAAAIAAAgAAAAAEEAAAAAAggAAAAAAAAQQAAAAACCAAAAAAQAABAAAAAAIIAAAAABBAAAAAAIAAX7n6AADgPL/yMz/6tW3b/uRnf/7F3/YHf+m7V94DAJznk08//fTqGwCAZh8M/5/etu2bn73889u2/blNCACACAIAACzsleF/JAQAQAABAAAWdOPwPxICAGBhAgAALOTB4X8kBADAggQAAFhA0fA/EgIAYCECAABMrGn4HwkBALAAAQAAJnTS8D8SAgBgYgIAAEzkouF/JAQAwIQEAACYwCDD/0gIAICJCAAAMLBBh/+REAAAExAAAGBAkwz/IyEAAAYmAADAQCYd/kdCAAAMSAAAgAEsMvyPhAAAGIgAAAAXWnT4HwkBADAAAQAALhAy/I+EAAC4kAAAACcKHf5HQgAAXEAAAIATGP4vEgIA4EQCAAA0MvxvIgQAwAkEAABoYPg/RAgAgEYCAAAUMvxLCAEA0EAAAIAChn8LIQAACgkAAPAEw/8UQgAAFBAAAOABhv8lhAAAeIIAAAB3MPyHIAQAwAMEAAC4geE/JCEAAO4gAADAGwz/KQgBAHADAQAAXmD4T0kIAIA3CAAA8AHDfwlCAAC8QAAAgM3wX5QQAAAfEAAAiGb4RxACAGATAAAIZfhHEgIAiCYAABDF8GcTAgAIJQAAEMHw5wVCAABRBAAAlmb4cwMhAIAIAgAASzL8eYAQAMDSBAAAlmL4U0AIAGBJAgAASzD8aSAEALAUAQCAqRn+nEAIAGAJAgAAUzL8uYAQAMDUBAAApmL4MwAhAIApCQAATMHwZ0BCAABTEQAAGJrhzwSEAACmIAAAMCTDnwkJAQAMTQAAYCiGPwsQAgAYkgAAwBAMfxYkBAAwFAEAgEsZ/gQQAgAYggAAwCUMfwIJAQBcSgAA4FSGPwgBAFxDAADgFIY/fEQIAOBUAgAArQx/eJcQAMApBAAAWhj+cDchAIBWAgAApQx/eJoQAEALAQCAEoY/lBMCACglAADwFMMf2gkBAJQQAAB4iOEPpxMCAHiKAADAXQx/uJwQAMBDBAAAbmL4w3CEAADuIgAA8CbDH4YnBABwEwEAgBcZ/jAdIQCANwkAAHyB4Q/TEwIAeJEAAMC2bYY/LEgIAOALBACAcIY/LE8IAGDbNgEAIJbhD3GEAIBwAgBAGMMf4gkBAKEEAIAQhj9wIAQAhBEAABZn+APvEAIAQggAAIsy/IE7CQEAixMAABZj+ANPEgIAFiUAACzC8AeKCQEAixEAACZn+APNhACARQgAAJMy/IGTCQEAkxMAACZj+AMXEwIAJiUAAEzC8AcGIwQATEYAABic4Q8MTggAmIQAADAowx+YjBAAMDgBAGAwhj8wOSEAYFACAMAgDH9gMUIAwGAEAICLGf7A4oQAgEEIAAAXMfyBMEIAwMUEAICTGf5AOCEA4CICAMBJDH+ALxACAE4mAAA0M/wB3iQEAJxEAABoYvgD3EUIAGgmAAAUM/wBniIEADQRAACKGP4ApYQAgGICAMCTDH+AVkIAQBEBAOBBhj/AqYQAgCcJAAB3MvwBLiUEADxIAAC4keEPMBQhAOBOAgDAOwx/gKEJAQA3EgAAXmH4A0xFCAB4hwAAcGD4A0xNCAB4hQAA8BnDH2ApQgDAgQAAxDP8AZYmBAB8RgAAYhn+AFGEACCeAADEMfwBogkBQCwBAIhh+APwASEAiCMAAMsz/AF4gxAAxBAAgGUZ/gDcQQgAlicAAMsx/AF4ghAALEsAAJZh+ANQSAgAliMAANMz/AFoJAQAyxAAgGkZ/gCcSAgApicAANMx/AG4kBAATEsAAKZh+AMwECEAmI4AAAzP8AdgYEIAMA0BABiW4Q/ARIQAYHgCADAcwx+AiQkBwLAEAGAYhj8ACxECgOEIAMDlDH8AFiYEAMMQAIDLGP4ABBECgMsJAMDpDH8AggkBwGUEAOA0hj8AfE4IAE4nAADtDH8AeJUQAJxGAADaGP4AcDMhAGgnAADlDH8AeJgQALQRAIAyhj8AlBECgHICAPA0wx8A2ggBQBkBAHiY4Q8ApxECgKcJAMDdDH8AuIwQADxMAABuZvgDwDCEAOBuAgDwLsMfAIYlBAA3EwCAVxn+ADANIQB4lwAAfMTwB4BpCQHAqwQA4HOGPwAsQwgAPiIAAIY/AKxLCAA+JwBAMMMfAGIIAYAAAIkMfwCIJQRAMAEAghj+AMBnhAAIJABAAMMfAHiFEABBBABYmOEPANxICIAAAgAsyPAHAB4kBMDCBABYiOEPABQRAmBBAgAswPAHAJoIAbAQAQAmZvgDACcRAmABAgBMyPAHAC4iBMDEBACYiOEPAAxCCIAJCQAwAcMfABiUEAATEQBgYIY/ADAJIQAmIADAgAx/AGBSQgAMTACAgRj+AMAihAAYkAAAAzD8AYBFCQEwEAEALmT4AwAhhAAYgAAAFzD8AYBQQgBcSACAExn+AADbtgkBcAkBAE5g+AMAvEgIgBMJANDI8AcAuIkQACcQAKCB4Q8A8BAhABoJAFDI8AcAKCEEQAMBAAoY/gAALYQAKCQAwBMMfwCAUwgBUEAAgAcY/gAAlxAC4AkCANzB8AcAGIIQAA8QAOAGhj8AwJCEALiDAABvMPwBAKYgBMANBAB4geEPADAlIQDeIADABwx/AIAlCAHwAgEANsMfAGBRQgB8QAAgmuEPABBBCIBNACCU4Q8AEEkIIJoAQBTDHwCATQgglABABMMfAIAXCAFEEQBYmuEPAMANhAAiCAAsyfAHAOABQgBLEwBYiuEPAEABIYAlCQAswfAHAKCBEMBSBACmZvgDAHACIYAlCABMyfAHAOACQgBTEwCYiuEPAMAAhACmJAAwBcMfAIABCQFMRQBgaIY/AAATEAKYggDAkAx/AAAmJAQwNAGAoRj+AAAsQAhgSAIAQzD8AQBYkBDAUAQALmX4AwAQQAhgCAIAlzD8AQAIJARwKQGAUxn+AAAgBHANAYBTGP4AAPARIYBTCQC0MvwBAOBdQgCnEABoYfgDAMDdhABaCQCUMvwBAOBpQgAtBABKGP4AAFBOCKCUAMBTDH8AAGgnBFBCAOAhhj8AAJxOCOApAgB3MfwBAOByQgAPEQC4ieEPAADDEQK4iwDAmwx/AAAYnhDATQQAXmT4AwDAdIQA3iQA8AWGPwAATE8I4EUCANu2Gf4AALAgIYAvEADCGf4AALA8IYBt2wSAWIY/AADEEQLCCQBhDH8AAIgnBIQSAEIY/gAAwIEQEEYAWJzhDwAAvEMICCEALMrwBwAA7iQELE4AWIzhDwAAPEkIWJQAsAjDHwAAKCYELEYAmJzhDwAANBMCFiEATMrwBwAATiYETE4AmIzhDwAAXEwImJQAMAnDHwAAGIwQMBkBYHCGPwAAMDghYBICwKAMfwAAYDJCwOAEgMEY/gAAwOSEgEEJAIMw/AEAgMUIAYMRAC5m+AMAAIsTAgYhAFzE8AcAAMIIARcTAE5m+AMAAOGEgIsIACcx/AEAAL5ACDiZANDM8AcAAHiTEHASAaCJ4Q8AAHAXIaCZAFDM8AcAAHiKENBEAChi+AMAAJQSAooJAE8y/AEAAFoJAUUEgAcZ/gAAAKcSAp4kANzJ8AcAALiUEPAgAeBGhj8AAMBQhIA7CQDvMPwBAACGJgTcSAB4heEPAAAwFSHgHQLAgeEPAAAwNSHgFQLAZwx/AACApQgBB/EBwPAHAABYmhDwmdgAYPgDAABEiQ8BcQHA8AcAAIgWGwJiAoDhDwAAwAfiQsDyAcDwBwAA4A0xIWDZAGD4AwAAcIflQ8ByAcDwBwAA4AnLhoBlAoDhDwAAQKHlQsD0AcDwBwAAoNEyIWDaAGD4AwAAcKLpQ8B0AcDwBwAA4ELThoBpAoDhDwAAwECmCwHDBwDDHwAAgIFNEwKGDQCGPwAAABMZPgQMFwAMfwAAACY2bAgYJgAY/gAAACxkuBBweQAw/AEAAFjYMCHgsgBg+AMAABDk8hBwegAw/AEAAAh2WQg4LQAY/gAAAPC500NAewAw/AEAAOBVp4WAtgBg+AMAAMDN2kNAeQAw/AEAAOBhbSGgLAAY/gAAAFCmPAQ8HQAMfwAAAGhTFgIeDgCGPwAAAJzm6RBwdwAw/AEAAOAyD4eAmwOA4Q8AAADDuDsEvBsADH8AAAAY1s0h4NUAYPgDAADANN4NAR8FAMMfAAAApvVqCPg8ABj+AAAAsIyPQsAnv/xf/YjhDwAAAGv6PAR8Zdu2f33btm9t2/a1Ky8CAAAAyn1z27Z/Z9u23/7Jp59+uv3Kz/zoN7dt+zPbtv2JTQgAAACAFXx327a/tG3bn/1tf/CXfv4LDwEUAgAAAGB6Xxj++4sv/gygEAAAAADTeXH4714MADshAAAAAIb35vDfvRkAdkIAAAAADOem4b+7KQDshAAAAAC43F3Df3dXANgJAQAAAHC6h4b/7qEAsBMCAAAAoN1Tw3/3VADYCQEAAABQrmT470oCwE4IAAAAgKeVDv9daQDYCQEAAABwt5bhv2sJADshAAAAAN7VOvx3rQFgJwQAAADAR04Z/rtTAsBOCAAAAIBzh//u1ACwEwIAAAAIdMnw310SAHZCAAAAAAEuHf67SwPATggAAABgQUMM/90QAWAnBAAAALCAoYb/bqgAsBMCAAAAmNCQw383ZADYCQEAAABMYOjhvxs6AOyEAAAAAAY0xfDfTREAdkIAAAAAA5hq+O+mCgA7IQAAAIALTDn8d1MGgJ0QAAAAwAmmHv67qQPATggAAACgwRLDf7dEANgJAQAAABRYavjvlgoAOyEAAACAByw5/HdLBoCdEAAAAMANlh7+u6UDwE4IAAAA4AURw38XEQB2QgAAAABb2PDfRQWAnRAAAAAQKXL47yIDwE4IAAAAiBA9/HfRAWAnBAAAACzJ8P+AAPABIQAAAGAJhv8LBIAXCAEAAABTMvzfIAC8QQgAAACYguF/AwHgBkIAAADAkAz/OwgAdxACAAAAhmD4P0AAeIAQAAAAcAnD/wkCwBOEAAAAgFMY/gUEgAJCAAAAQAvDv5AAUEgIAAAAKGH4NxAAGggBAAAADzH8GwkAjYQAAACAmxj+JxAATiAEAAAAvMjwP5EAcCIhAAAAYNs2w/8SAsAFhAAAACCU4X8hAeBCQgAAABDC8B+AADAAIQAAAFiU4T8QAWAgQgAAALAIw39AAsCAhAAAAGBShv/ABICBCQEAAMAkDP8JCAATEAIAAIBBGf4TEQAmIgQAAACDMPwnJABMSAgAAAAuYvhPTACYmBAAAACcxPBfgACwACEAAABoYvgvRABYiBAAAAAUMfwXJAAsSAgAAAAeZPgvTABYmBAAAADcyPAPIAAEEAIAAIBXGP5BBIAgQgAAAPAZwz+QABBICAAAgFiGfzABIJgQAAAAMQx/BACEAAAAWJjhz+cEAD4nBAAAwDIMfz4iAPARIQAAAKZl+PMqAYBXCQEAADANw593CQC8SwgAAIBhGf7cTADgZkIAAAAMw/DnbgIAdxMCAADgMoY/DxMAeJgQAAAApzH8eZoAwNOEAAAAaGP4U0YAoIwQAAAAZQx/ygkAlBMCAADgYYY/bQQA2ggBAABwM8OfdgIA7YQAAAB4leHPaQQATiMEAADA5wx/TicAcDohAACAYIY/lxEAuIwQAABAEMOfywkAXE4IAABgYYY/wxAAGIYQAADAQgx/hiMAMBwhAACAiRn+DEsAYFhCAAAAEzH8GZ4AwPB+5Wd+9Js/+//+nr/yu3/r//bPfuWTX7/6HAAA+Nyvf/qV7ef+7j/6X//ev/9v/nHDn9EJAAztn/wL/+2/9v3vfeff/I3v/dqPfuPrf2f7V/7h/2j7yX/wv9i++iUhAACA63zvN76y/Se/8M9tf/lv/7Ht29/5nduXvvpDv/Tlr3793/qf/41/5t+++jZ4jQDAkD4c/sf3hAAAAK5yHP5HQgAjEwAYylvD/0gIAADgLO8N/yMhgBEJAAzhnuF/JAQAANDl3uF/JAQwEgGASz0z/I+EAAAAqjw7/I+EAEYgAHCJyuF/JAQAAPCo6uF/JARwJQGAU3UO/yMhAACAW3UP/yMhgCsIAJzizOF/JAQAAPCas4f/kRDAmQQAWl05/I+EAAAAdlcP/yMhgDMIALQYafgfCQEAALlGG/5HQgCdBABKjTz8j4QAAIAcow//IyGADgIAJWYa/kdCAADAumYb/kdCAJUEAJ4y8/A/EgIAANYx+/A/EgKoIADwkJWG/5EQAAAwr9WG/5EQwDMEAO6y8vA/EgIAAOax+vA/EgJ4hADATZKG/5EQAAAwrrThfyQEcA8BgDclD/8jIQAAYBzpw/9ICOAWAgAvMvxfJwQAAFzH8H+bEMBbBAC+wPC/nRAAAHAew/8+QgAvEQDYts3wf4YQAADQx/B/jhDAhwSAcIZ/HSEAAKCO4V9LCGDbBIBY/9S/93/8kW3bvvX97/7qH/7e3/1/tu9/9ztXn7QMIQAA4HGGf48vf+3r21d/62/fvvy1H/5r27Z967//0//If3n1TZxPAAizD/9t2/7wh69//7u/ugkBtYQAAIDbGf49Phj+x7eEgEACQIjXhv+REFBPCAAAeJ3h3+ON4X8kBAQRABZ36/A/EgLqCQEAAL/J8O9xx/A/EgICCACLenT4HwkB9YQAACCZ4d/jieF/JAQsTABYTNXwPxIC6gkBAEASw79H4fA/EgIWJAAsomv4HwkB9YQAAGBlhn+PxuF/JAQsRACY3FnD/0gIqCcEAAArMfx7nDj8j4SABQgAk7pq+B8JAfWEAABgZoZ/jwuH/5EQMDEBYDKjDP8jIaCeEAAAzMTw7zHQ8D8SAiYkAExi1OF/JATUEwIAgJEZ/j0GHv5HQsBEBIDBzTL8j4SAekIAADASw7/HRMP/SAiYgAAwqFmH/5EQUE8IAACuZPj3mHj4HwkBAxMABrPK8D8SAuoJAQDAmQz/HgsN/yMhYEACwCBWHf5HQkA9IQAA6GT491h4+B8JAQMRAC6WMvyPhIB6QgAAUMnw7xE0/I+EgAEIABdJHf5HQkA9IQAAeIbh3yN4+B8JARcSAE5m+L9MCKgnBAAA9zD8exj+rxICLiAAnMTwv40QUE8IAADeYvj3MPxvJgScSABoZvg/RgioJwQAAB8y/HsY/g8TAk4gADQx/GsIAfWEAADIZvj3MPzLCAGNBIBihn8PIaCeEAAAWQz/HoZ/GyGggQBQxPA/hxBQTwgAgLUZ/j0M/9MIAYUEgCcZ/tcQAuoJAQCwFsO/h+F/GSGggADwIMN/DEJAPSEAAOZm+Pcw/IchBDxBALiT4T8mIaCeEAAAczH8exj+wxICHiAA3Mjwn4MQUE8IAICxGf49DP9pCAF3EADeYfjPSQioJwQAwFgM/x6G/7SEgBsIAK8w/NcgBNQTAgDgWoZ/D8N/GULAGwSAA8N/TUJAPSEAAM5l+Pcw/JclBLxAAPiM4Z9BCKgnBABAL8O/h+EfQwj4QHwAMPwzCQH1hAAAqGX49zD8YwkBW3AAMPzZNiGggxAAAM8x/HsY/nwmOgTEBQDDn5cIAfWEAAC4j+Hfw/DnFZEhICYAGP7cQgioJwQAwNsM/x6GPzeKCgHLBwDDn0cIAfWEAAD4IsO/h+HPgyJCwLIBwPCnghBQTwgAIJ3h38Pwp8jSIWC5AGD400EIqCcEAJDG8O9h+NNkyRCwTAAw/DmDEFBPCABgdYZ/D8OfkywVAqYPAIY/VxAC6gkBAKzG8O9h+HORJULAtAHA8GcEQkA9IQCA2Rn+PQx/BjF1CJguABj+jEgIqCcEADAbw7+H4c+gpgwB0wQAw58ZCAH1hAAARmf49zD8mcRUIWD4AGD4MyMhoJ4QAMBoDP8ehj+TmiIEDBsADH9WIATUEwIAuJrh38PwZxFDh4DhAoDhz4qEgHpCAABnM/x7GP4sasgQMEwAMPxJIATUEwIA6Gb49zD8CTFUCLg8ABj+JBIC6gkBAFQz/HsY/oQaIgRcFgAMfxACOggBADzL8O9h+MO2bReHgNMDgOEPHxMC6gkBANzL8O9h+MOLLgkBpwUAwx/eJwTUEwIAeI/h38Pwh5ucGgLaA4DhD/cTAuoJAQAcGf49DH94yCkhoC0AGP7wPCGgnhAAgOHfw/CHEq0hoDwAGP5QTwioJwQA5DH8exj+0KIlBJQFAMMf+gkB9YQAgPUZ/j0MfzhFaQh4OgAY/nA+IaCeEACwHsO/h+EPlygJAQ8HAMMfricE1BMCAOZn+Pcw/GEIT4WAuwOA4Q/jEQLqCQEA8zH8exj+MKSHQsDNAcDwh/EJAfWEAIDxGf49DH+Ywl0h4N0AYPjDfISAekIAwHgM/x6GP0zpphDwagAw/GF+QkA9IQDgeoZ/D8MflvBmCPgoABj+sB4hoJ4QAHA+w7+H4Q9LejEEfB4ADH9YnxBQTwgA6Gf49zD8IcIXQsAnP/7v/u9/ZDP8IYoQUE8IAKhn+Pcw/CHSX9u27VtfufoK4Hxf/toPb1/+HT8sBBT69nd+5/bnf+5PbX/5b/8xIQDgSYZ/D8Mf8BUAQAho4D8CAO5n+Pcw/CHaF78C4CGAwE4IqCcEALzP8O9h+EO0tx8CeCQEQC4hoJ4QAPAxw7+H4Q/R7vsZwCMhAHIJAfWEAADDv4vhD9HeHP67dwPATgiAXEJAPSEASGT49zD8IdpNw393cwDYCQGQSwioJwQACQz/HoY/RLtr+O/uDgA7IQByCQH1hABgRYZ/D8Mfoj00/HcPB4CdEAC5hIB6QgCwAsO/h+EP0Z4a/runA8BOCIBcQkA9IQCYkeHfw/CHaCXDf1cWAHZCAOQSAuoJAcAMDP8ehj9EKx3+u/IAsBMCIJcQUE8IAEZk+Pcw/CFay/DftQWAnRAAuYSAekIAMALDv4fhD9Fah/+uPQDshADIJQTUEwKAKxj+PQx/iHbK8N+dFgB2QgDkEgLqCQHAGQz/HoY/RDt1+O9ODwA7IQByCQH1hACgg+Hfw/CHaJcM/91lAWAnBEAuIaCeEABUMPx7GP4Q7dLhv7s8AOyEAMglBNQTAoBHGP49DH+INsTw3w0TAHZCAOQSAuoJAcAtDP8ehj9EG2r474YLADshAHIJAfWEAOAlhn8Pwx+iDTn8d8MGgJ0QALmEgHpCALBthn8Xwx+iDT38d8MHgJ0QALmEgHpCAGQy/HsY/hBtiuG/myYA7IQAyCUE1BMCIIPh38Pwh2hTDf/ddAFgJwRALiGgnhAAazL8exj+EG3K4b+bNgDshADIJQTUEwJgDYZ/D8Mfok09/HfTB4CdEAC5hIB6QgDMyfDvYfhDtCWG/26ZALATAiCXEFBPCIA5GP49DH+IttTw3y0XAHZCAOQSAuoJATAmw7+H4Q/Rlhz+u2UDwE4IgFxCQD0hAMZg+Pcw/CHa0sN/t3wA2AkBkEsIqCcEwDUM/x6GP0SLGP67mACwEwIglxBQTwiAcxj+PQx/iBY1/HdxAWAnBEAuIaCeEAA9DP8ehj9Eixz+u9gAsBMCIJcQUE8IgBqGfw/DH6JFD/9dfADYCQGQSwioJwTAYwz/HoY/RDP8PyAAHAgBkEsIqCcEwG0M/x6GP0Qz/F8gALxCCIBcQkA9IQBeZvj3MPwhmuH/BgHgHUIA5BIC6gkB8AOGfw/DH6IZ/jcQAG4kBEAuIaCeEEAqw7+H4Q/RDP87CAB3EgIglxBQTwggheHfw/CHaIb/AwSABwkBkEsIqCcEsCrDv4fhD9EM/ycIAE8SAiCXEFBPCGAVhn8Pwx+iGf4FBIAiQgDkEgLqCQHMyvDvYfhDNMO/kABQTAiAXEJAPSGAWRj+PQx/iGb4NxAAmggBkEsIqCcEMCrDv4fhD9EM/0YCQDMhAHIJAfWEAEZh+Pcw/CGa4X8CAeAkQgDkEgLqCQFcxfDvYfhDNMP/RALAyYQAyCUE1BMCOIvh38Pwh2iG/wUEgIsIAZBLCKgnBNDF8O9h+EM0w/9CAsDFhADIJQTUEwKoYvj3MPwhmuE/AAFgEEIA5BIC6gkBPMrw72H4QzTDfyACwGCEAMglBNQTAriV4d/D8Idohv+ABIBBCQGQSwioJwTwGsO/h+EPH0mDXgAAHqFJREFU0Qz/gQkAgxMCIJcQUE8IYGf49zD8IZrhPwEBYBJCAOQSAuoJAbkM/x6GP0Qz/CciAExGCIBcQkA9ISCH4d/D8Idohv+EBIBJCQGQSwioJwSsy/DvYfhDNMN/YgLA5IQAyCUE1BMC1mH49zD8IZrhvwABYBFCAOQSAuoJAfMy/HsY/hDN8F+IALAYIQByCQH1hIB5GP49DH+IZvgvSABYlBAAuYSAekLAuAz/HoY/RDP8FyYALE4IgFxCQD0hYByGfw/DH6IZ/gEEgBBCAOQSAuoJAdcx/HsY/hDN8A8iAIQRAiCXEFBPCDiP4d/D8Idohn8gASCUEAC5hIB6QkAfw7+H4Q/RDP9gAkA4IQByCQH1hIA6hn8Pwx+iGf4IAPyAEAC5hIB6QsDjDP8ehj9EM/z5nADAFwgBkEsIqCcE3M7w72H4QzTDn48IALxICIBcQkA9IeB1hn8Pwx+iGf68SgDgTUIA5BIC6gkBv8nw72H4QzTDn3cJANxECIBcQkC95BBg+Pcw/CGa4c/NBADuIgRALiGgXlIIMPx7GP4QzfDnbgIADxECIJcQUG/lEGD49zD8IZrhz8MEAJ4iBEAuIaDeSiHA8O9h+EM0w5+nCQCUEAIglxBQb+YQYPj3MPwhmuFPGQGAUkIA5BIC6s0UAgz/HoY/RDP8KScA0EIIgFxCQL2RQ4Dh38Pwh2iGP20EAFoJAZBLCKg3Uggw/HsY/hDN8KedAMAphADIJQTUuzIEGP49DH+IZvhzGgGAUwkBkEsIqHdmCDD8exj+EM3w53QCAJcQAiCXEFCvMwQY/j0Mf4hm+HMZAYBLCQGQSwioVxkCDP8ehj9EM/y5nADAEIQAyCUE1HsmBBj+PQx/iGb4MwwBgKEIAZBLCKh3Twgw/HsY/hDN8Gc4AgBDEgIglxBQ760QYPj3MPwhmuHPsAQAhiYEQC4hoN6HIWDbNsO/geEP0Qx/hicAMLyf/aM//gf+x3/gn/gP/tPf/S/+Q3/rd/1jV58DnEwIqPeNr/+dbds2w7+Q4Q+5fuwX/8b2L/zcf/x//v7/63/5l3/vf/4//DdX3wNvEQAY1s/+0R//A7/269//9//e9773e/ZP6d/6xj++/We/749vQgDkEQIYkeEPuX7sF//G9s//T39l+7Fv/6/btm3bJ9u2/ZavfvVv/tBXvvyvCgGMSgBgOC8N/yMhAHIJAYzA8Idcx+F/JAQwMgGAYdwy/I+EAMglBHAFwx9yvTf8j4QARiQAcLlHhv+REAC5hADOYPhDrnuH/5EQwEgEAC5TMfyPhADIJQTQwfCHXM8O/yMhgBEIAJyuY/gfCQGQSwigguEPuaqH/5EQwJUEAE5zxvA/EgIglxDAIwx/yNU9/I+EAK4gANDuiuF/JARALiGAWxj+kOvs4X8kBHAmAYA2Iwz/IyEAcgkBvMTwh1xXD/8jIYAzCACUG3H4HwkBkEsIYNsMf0g22vA/EgLoJABQZobhfyQEQC4hIJPhD7lGH/5HQgAdBACeNuPwPxICIJcQkMHwh1yzDf8jIYBKAgAPW2H4HwkBkEsIWJPhD7lmH/5HQgAVBADutuLwPxICIJcQsAbDH3KtNvyPhACeIQBws4ThfyQEQC4hYE6GP+RaffgfCQE8QgDgXYnD/0gIgFxCwBwMf8iVNvyPhADuIQDwKsP/Y0IA5BICxmT4Q6704X8kBHALAYCPGP7vEwIglxAwBsMfchn+bxMCeIsAwOcM//sJAZBLCLiG4Q+5DP/7CAG8RADA8C8gBEAuIeAchj/kMvyfIwTwIQEg2Ld/6ie++Yv/39/7D3/5O7/2T/sU1BACIJcQ0MPwh1yGf61Ptm37ka//0H/3u/6+3/IvfeOv/vWfv/oeriEABPr2T/3EN7dt+zPbtv2JT7fta7/8nV/b/u9f/c72vd/4jatPW4YQALmEgBqGP+Qy/Ot99Utf2n7HD399+5Gv/9D2ybZ9d9u2v7Rt258VAvIIAEE+HP7btn3tw/c+3bZNCKgnBEAuIeAxhj/kMvzrHYb/kRAQSAAI8NbwPxICeggBkEsIuI3hD7kM/3rvDP8jISCIALCwe4b/kRDQQwiAXELAywx/yGX417tz+B8JAQEEgAU9M/yPhIAeQgDkEgJ+wPCHXIZ/vSeH/5EQsDABYCGVw/9ICOghBECu1BBg+EMuw79e8fA/EgIWJAAsoHP4HwkBPYQAyJUSAgx/yGX412se/kdCwEIEgImdOfyPhIAeQgDkWjUEGP6Qy/Cvd/LwPxICFiAATOjK4X8kBPQQAiDXKiHA8Idchn+9i4f/kRAwMQFgIiMN/yMhoIcQALlmDQGGP+Qy/OsNNvyPhIAJCQATGHn4HwkBPYQAyDVLCDD8IZfhX2/w4X8kBExEABjYTMP/SAjoIQRArlFDgOEPuQz/epMN/yMhYAICwIBmHv5HQkAPIQByjRICDH/IZfjXm3z4HwkBAxMABrLS8D8SAnoIAZDrqhBg+EMuw7/eYsP/SAgYkAAwgJWH/5EQ0EMIgFxnhQDDH3IZ/vUWH/5HQsBABIALJQ3/IyGghxAAubpCgOEPuQz/emHD/0gIGIAAcIHk4X8kBPQQAiBXVQgw/CGX4V8vfPgfCQEXEgBOZPi/TgjoIQRArkdDgOEPuQz/eob/m4SACwgAJzD8bycE9BACINetIcDwh1yGfz3D/y5CwIkEgEaG/+OEgB5CAOR6LQQY/pDL8K9n+D9FCDiBANDA8K8jBPQQAiDXHgK2bTP8IZThX8/wLyUENBIAChn+fYSAHkIAAOQw/OsZ/q2EgAYCQAHD/zxCQA8hAADWZfjXM/xPJQQUEgCeYPhfRwjoIQQAwDoM/3qG/6WEgAICwAMM/3EIAT2EAACYl+Ffz/AfihDwBAHgDob/uISAHkIAAMzD8K9n+A9NCHiAAHADw38eQkAPIQAAxmX41zP8pyIE3EEAeIPhPy8hoIcQAADjMPzrGf5TEwJuIAC8wPBfhxDQQwgAgOsY/vUM/6UIAW8QAD5g+K9LCOghBADAeQz/eob/0oSAFwgAm+GfRAjoIQQAQB/Dv57hH0UI+EB0ADD8cwkBPYQAAKhj+Ncz/KMJAVtoADD82QkBPYQAAHic4V/P8OcD0SEgKgAY/rxGCOghBADA7Qz/eoY/b4gMAREBwPDnVkJADyEAAF5n+Ncz/LlDVAhYOgAY/jxKCOghBADAbzL86xn+PCEiBCwZAAx/qggBPYQAAJIZ/vUMfwotHQKWCgCGP12EgB5CAABJDP96hj+NlgwBSwQAw5+zCAE9hAAAVmb41zP8OdFSIWDqAGD4cxUhoIcQAMBKDP96hj8XWiIETBkADH9GIQT0EAIAmJnhX8/wZyBTh4CpAoDhz6iEgB5CAAAzMfzrGf4MbMoQMEUAMPyZhRDQQwgAYGSGfz3Dn4lMFQKGDgCGP7MSAnoIAQCMxPCvZ/gzsSlCwJABwPBnFUJADyEAgCsZ/vUMfxYydAgYKgAY/qxKCOghBABwJsO/nuHPwoYMAUMEAMOfFEJADyEAgE6Gfz3DnyBDhYBLA4DhTyohoIcQAEAlw7+e4U+wIULAJQHA8IcfEAJ6CAEAPMPwr2f4w+cuDQGnBgDDH14mBPQQAgC4h+Ffz/CHV10SAk4JAIY/3EYI6CEEAPAWw7+e4Q83OzUEtAYAwx8eIwT0EAIA+JDhX8/wh4edEgJaAoDhDzWEgB5CAEA2w7+e4Q9lWkNAaQAw/KGHENBDCADIYvjXM/yhTUsIKAkAhj+cQwjoIQQArM3wr2f4w2lKQ8BTAcDwh2sIAT2EAIC1GP71DH+4TEkIeCgAGP4wBiGghxAAMDfDv57hD8N4KgTcFQAMfxiTENBDCACYi+Ffz/CHYT0UAm4KAIY/zEEI6CEEAIzN8K9n+MM07goBbwYAwx/mJAT0EAIAxmL41zP8YVo3hYAXA4DhD2sQAnoIAQDXMvzrGf6wjDdDwBcCgOEPaxICeggBAOcy/OsZ/rCsF0PAJ59++qnhDyGEgB5CAEAvw7+e4Q8xvhACPvmFn/xDP71t27c2wx9iCAE9hACAWoZ/PcMfYn1327ZvffILP/mHvrZt25/ctu2nt2375rU3AWcSAnoIAQDPMfzrGf4Q7ee3bftz27b9xc+fAfDtn/oJIQBCCQE9hACA+xj+9Qx/iPb58P/GX/3r3922F34FQAiAXEJADyEA4G2Gfz3DH6J9NPx3L/4M4LYJAZBMCOghBAB8keFfz/CHaK8O/92rAWAnBEAuIaCHEACkM/zrGf4Q7d3hv3s3AOyEAMglBPQQAoA0hn89wx+i3Tz8dzcHgJ0QALmEgB5CALA6w7+e4Q/R7h7+u7sDwE4IgFxCQA8hAFiN4V/P8IdoDw//3cMBYCcEQC4hoIcQAMzO8K9n+EO0p4f/7ukAsBMCIJcQ0EMIAGZj+Ncz/CFa2fDflQWAnRAAuYSAHkIAMDrDv57hD9HKh/+uPADshADIJQT0EAKA0Rj+9Qx/iNY2/HdtAWAnBEAuIaCHEABczfCvZ/hDtPbhv2sPADshAHIJAT2EAOBshn89wx+inTb8d6cFgJ0QALmEgB5CANDN8K9n+EO004f/7vQAsBMCIJcQ0EMIAKoZ/vUMf4h22fDfXRYAdkIA5BICeggBwLMM/3qGP0S7fPjvLg8AOyEAcgkBPYQA4F6Gfz3DH6INM/x3wwSAnRAAuYSAHkIA8B7Dv57hD9GGG/674QLATgiAXEJADyEAODL86xn+EG3Y4b8bNgDshADIJQT0EAIAw7+e4Q/Rhh/+u+EDwE4IgFxCQA8hAPIY/vUMf4g2zfDfTRMAdkIA5BICeggBsD7Dv57hD9GmG/676QLATgiAXEJADyEA1mP41zP8Idq0w383bQDYCQGQSwjoIQTA/Az/eoY/RJt++O+mDwA7IQByCQE9hACYj+Ffz/CHaMsM/90yAWAnBEAuIaCHEADjM/zrGf4Qbbnhv1suAOyEAMglBPQQAmA8hn89wx+iLTv8d8sGgJ0QALmEgB5CAFzP8K9n+EO05Yf/bvkAsBMCIJcQ0EMIgPMZ/vUMf4gWM/x3MQFgJwRALiGghxAA/Qz/eoY/RIsb/ru4ALATAiCXENBDCIB6hn89wx+ixQ7/XWwA2AkBkEsI6CEEwPMM/3qGP0SLH/67+ACwEwIglxDQQwiA+xn+9Qx/iGb4HwgAB0IA5BICeggB8D7Dv57hD9EM/1cIAK8QAiCXENBDCICPGf71DH+IZvi/QwB4hxAAuYSAHkIAGP4dDH+IZvjfSAC4kRAAuYSAHkIAiQz/eoY/RDP87yQA3EkIgFxCQA8hgASGfz3DH6IZ/g8SAB4kBEAuIaCHEMCKDP96hj9EM/yfJAA8SQiAXEJADyGAFRj+9Qx/iGb4FxEAiggBkEsI6CEEMCPDv57hD9EM/2ICQDEhAHIJAT2EAGZg+Ncz/CGa4d9EAGgiBEAuIaCHEMCIDP96hj9EM/ybCQDNhADIJQT0EAIYgeFfz/CHaIb/SQSAkwgBkEsI6CEEcAXDv57hD9EM/5MJACcTAiCXENBDCOAMhn89wx+iGf4XEQAuIgRALiGghxBAB8O/nuEP0Qz/iwkAFxMCIJcQ0EMIoILhX8/wh2iG/yAEgEEIAZBLCOghBPAIw7+e4Q/RDP/BCACDEQIglxDQQwjgFoZ/PcMfohn+gxIABiUEQC4hoIcQwEsM/3qGP0Qz/AcnAAxOCIBcQkAPIYBtM/w7GP4QzfCfhAAwCSEAcgkBPYSATIZ/PcMfohn+kxEAJiMEQC4hoIcQkMHwr2f4QzTDf1ICwKSEAMglBPQQAtZk+Ncz/CGa4T85AWByQgDkEgJ6CAFrMPzrGf4QzfBfhACwCCEAcgkBPYSAORn+9Qx/iGb4L0YAWIwQALmEgB5CwBwM/3qGP0Qz/BclACxKCIBcQkAPIWBMhn89wx+iGf6LEwAWJwRALiGghxAwBsO/nuEP0Qz/EAJACCEAcgkBPYSAaxj+9Qx/iGb4hxEAwggBkEsI6CEEnMPwr2f4QzTDP5QAEEoIgFxCQA8hoIfhX8/wh2iGfzgBIJwQALmEgB5CQA3Dv57hD9EMf7ZtEwD4jBAAuYSAHkLAYwz/eoY/RDP8+QIBgC8QAiCXENBDCLiN4V/P8Idohj8vEgB4kRAAuYSAHkLAywz/eoY/RDP8eZMAwJuEAMglBPQQAn7A8K9n+EM0w5+bCADcRAiAXEJAj9QQYPjXM/whmuHPXQQA7iIEQC4hoEdKCDD86xn+EM3w5yECAA8RAiCXENBj1RBg+Ncz/CGa4c9TBACeIgRALiGgxyohwPCvZ/hDNMOfEgIAJYQAyCUE9Jg1BBj+9Qx/iGb4U0oAoJQQALmEgB6zhADDv57hD9EMf1oIALQQAiCXENBj1BBg+Ncz/CGa4U8rAYBWQgDkEgJ6jBICDP96hj9EM/w5hQDAKYQAyCUE9LgqBBj+9Qx/iGb4cyoBgFMJAZBLCOhxVggw/OsZ/hDN8OcSAgCXEAIglxDQoysEGP71DH+IZvhzKQGASwkBkEsI6FEVAgz/eoY/RDP8GYIAwBCEAMglBPR4NAQY/vUMf4hm+DMUAYChCAGQSwjocWsIMPzrGf4QzfBnSAIAQxICIJcQ0OO1EGD41zP8IZrhz9AEAIYmBEAuIaDHHgK2bTP8ixn+EM3wZwoCAFMQAiCXEMDoDH+IZvgzFQGAqQgBkEsIYDSGP0Qz/JmSAMCUhADIJQRwNcMfohn+TE0AYGpCAOQSAjib4Q/RDH+WIACwBCEAcgkBdDP8IZrhz1IEAJYiBEAuIYBqhj9EM/xZkgDAkoQAyCUE8CzDH6IZ/ixNAGBpQgDkEgK4l+EP0Qx/IggARBACIJcQwHsMf4hm+BNFACCKEAC5hACODH+IZvgTSQAgkhAAuYQADH+IZvgTTQAgmhAAuYSAPIY/RDP8YRMAYNs2IQCSCQHrM/whmuEPHxAA4ANCAOQSAtZj+EM0wx9eIADAC4QAyCUEzM/wh2iGP7xBAIA3CAGQSwiYj+EP0Qx/uIEAADcQAiCXEDA+wx+iGf5wBwEA7iAEQC4hYDyGP0Qz/OEBAgA8QAiAXELA9Qx/iGb4wxMEAHiCEAC5hIDzGf4QzfCHAgIAFBACIJcQ0M/wh2iGPxQSAKCQEAC5hIB6hj9EM/yhgQAADYQAyCUEPM/wh2iGPzQSAKCREAC5hID7Gf4QzfCHEwgAcAIhAHIJAe8z/CGa4Q8nEgDgREIA5BICPmb4QzTDHy4gAMAFhADIJQQY/hDO8IcLCQBwISEAciWGAMMfohn+MAABAAYgBECuhBBg+EM0wx8GIgDAQIQAyLViCDD8IZrhDwMSAGBAQgDkWiEEGP4QzfCHgQkAMDAhAHLNGAIMf4hm+MMEBACYgBAAuWYIAYY/RDP8YSICAExECIBcI4YAwx+iGf4wIQEAJiQEQK4RQoDhD9EMf5iYAAATEwIg1xUhwPCHaIY/LEAAgAUIAZDrjBBg+EM0wx8WIgDAQoQAyNURAgx/iGb4w4IEAFiQEAC5KkKA4Q/RDH9YmAAACxMCINcjIcDwh2iGPwQQACCAEAC5bgkBhj9EM/whiAAAQYQAyPVSCDD8IZrhD4EEAAgkBECuPQRs22b4QybDH4IJABBMCACAGIY/IAAAQgAALMzwBz4nAACfEwIAYBmGP/ARAQD4iBAAANMy/IFXCQDAq4QAAJiG4Q+8SwAA3iUEAMCwDH/gZgIAcDMhAACGYfgDdxMAgLsJAQBwGcMfeJgAADxMCACA0xj+wNMEAOBpQgAAtDH8gTICAFBGCACAMoY/UE4AAMoJAQDwMMMfaCMAAG2EAAC4meEPtBMAgHZCAAC8yvAHTiMAAKcRAgDgc4Y/cDoBADidEABAMMMfuIwAAFxGCAAgiOEPXE4AAC4nBACwMMMfGIYAAAxDCABgIYY/MBwBABiOEADAxAx/YFgCADAsIQCAiRj+wPAEAGB4QgAAAzP8gWkIAMA0hAAABmL4A9MRAIDpCAEAXMjwB6YlAADTEgIAOJHhD0xPAACmJwQA0MjwB5YhAADLEAIAKGT4A8sRAIDlCAEAPMHwB5YlAADLEgIAuIPhDyxPAACWJwQA8AbDH4ghAAAxhAAAPmD4A3EEACCOEAAQzfAHYgkAQCwhACCK4Q/EEwCAeEIAwNIMf4DPCAAAnxECAJZi+AMcCAAAB0IAwNQMf4BXCAAArxACAKZi+AO8QwAAeIcQADA0wx/gRgIAwI2EAIChGP4AdxIAAO4kBABcyvAHeJAAAPAgIQDgVIY/wJMEAIAnCQEArQx/gCICAEARIQCglOEPUEwAACgmBAA8xfAHaCIAADQRAgDuYvgDNBMAAJoJAQBvMvwBTiIAAJxECAD4AsMf4GQCAMDJhAAgnOEPcBEBAOAiQgAQxvAHuJgAAHAxIQBYnOEPMAgBAGAQQgCwGMMfYDACAMBghABgcoY/wKAEAIBBCQHAZAx/gMEJAACDEwKAwRn+AJMQAAAmIQQAgzH8ASYjAABMRggALmb4A/9/O3aQ3TYMBFEQL/c/dDZZ2IkiUyRBYKarTtDb/hQlAAAUJQQAD3P8AYoTAACKEwKAyRx/gCYEAIAmhADgZo4/QDMCAEAzQgBwkeMP0JQAANCUEAB8yPEHaE4AAGhOCAB+4PgDhBAAAEIIAcBfHH+AMAIAQBghAOI5/gChBACAUEIAxHH8AcIJAADhhABoz/EHYIwhAADwhxAA7Tj+AHwjAADwjRAA5Tn+ALwkAADwkhAA5Tj+ALwlAADwlhAA23P8AThEAADgECEAtuP4A/ARAQCAjwgBsJzjD8ApAgAApwgB8DjHH4BLBAAALhECYDrHH4BbCAAA3EIIgNs5/gDcSgAA4FZCAFzm+AMwhQAAwBRCAHzM8QdgKgEAgKmEAPiR4w/AIwQAAB4hBMA/HH8AHiUAAPAoIQAcfwDWEAAAWEIIIJDjD8BSAgAASwkBBHD8AdiCAADAFoQAGnL8AdiKAADAVoQAGnD8AdiSAADAloQACnL8AdiaAADA1oQACnD8AShBAACgBCGADTn+AJQiAABQihDABhx/AEoSAAAoSQhgAccfgNIEAABKEwJ4gOMPQAsCAAAtCAFM4PgD0IoAAEArQgA3cPwBaEkAAKAlIYATHH8AWhMAAGhNCOAAxx+ACAIAABGEAF5w/AGIIgAAEEUIYDj+AIQSAACIJAREcvwBiCYAABBNCIjg+APAEAAAYIwhBDTl+APAFwIAAHwhBLTg+APACwIAALwgBJTk+APAGwIAALwhBJTg+APAAQIAABwgBGzJ8QeADwgAAPABIWALjj8AnCAAAMAJQsASjj8AXCAAAMAFQsAjHH8AuIEAAAA3EAKmcPwB4EYCAADcSAi4heMPABMIAAAwgRBwiuMPABMJAAAwkRBwiOMPAA8QAADgAULAS44/ADxIAACABwkBYwzHHwCWEAAAYIHQEOD4A8BCAgAALBQSAhx/ANiAAAAAG2gaAhx/ANiIAAAAG2kSAhx/ANiQAAAAGyoaAhx/ANiYAAAAGysSAhx/AChAAACAAjYNAY4/ABQiAABAIZuEAMcfAAoSAACgoEUhwPEHgMIEAAAo7KEQ4PgDQAMCAAA0MCkEOP4A0IgAAACN3BQCHH8AaEgAAICGToYAxx8AGhMAAKCxgyHA8QeAAAIAAAT4Twhw/AEgiAAAAEG+hIAxHH8AiCIAAAAAQIBfqwcAAAAA8wkAAAAAEEAAAAAAgAACAAAAAAQQAAAAACCAAAAAAAABBAAAAAAIIAAAAABAAAEAAAAAAggAAAAAEEAAAAAAgAACAAAAAAQQAAAAACCAAAAAAAABBAAAAAAIIAAAAABAAAEAAAAAAggAAAAAEEAAAAAAgAACAAAAAAQQAAAAACCAAAAAAAABBAAAAAAIIAAAAABAAAEAAAAAAggAAAAAEEAAAAAAgAACAAAAAAQQAAAAACCAAAAAAAABBAAAAAAIIAAAAABAAAEAAAAAAggAAAAAEEAAAAAAgAACAAAAAAQQAAAAACCAAAAAAAABBAAAAAAIIAAAAABAAAEAAAAAAggAAAAAEEAAAAAAgAACAAAAAAQQAAAAACCAAAAAAAABBAAAAAAIIAAAAABAAAEAAAAAAggAAAAAEEAAAAAAgAACAAAAAAQQAAAAACCAAAAAAAABBAAAAAAIIAAAAABAAAEAAAAAAggAAAAAEEAAAAAAgAACAAAAAAQQAAAAACCAAAAAAAABBAAAAAAIIAAAAABAAAEAAAAAAggAAAAAEEAAAAAAgAACAAAAAAQQAAAAACCAAAAAAAABBAAAAAAIIAAAAABAAAEAAAAAAggAAAAAEEAAAAAAgAACAAAAAAQQAAAAACCAAAAAAAABBAAAAAAIIAAAAABAAAEAAAAAAggAAAAAEEAAAAAAgAACAAAAAAT4DVCOvsddltNhAAAAAElFTkSuQmCC;fontSize=8;" parent="1" vertex="1">
          <mxGeometry x="70" y="350" width="40" height="40" as="geometry" />
        </mxCell>
        <mxCell id="YghAzzQnqxR3YXbTXL73-1" value="&lt;font style=&quot;font-size: 9px;&quot;&gt;Support Team&lt;/font&gt;" style="shape=image;html=1;verticalAlign=top;verticalLabelPosition=bottom;labelBackgroundColor=#ffffff;imageAspect=0;aspect=fixed;image=https://cdn2.iconfinder.com/data/icons/office-icon-set-3/128/users.png;fillColor=#3333FF;spacing=-8;" vertex="1" parent="1">
          <mxGeometry x="152" y="290" width="30" height="30" as="geometry" />
        </mxCell>
        <mxCell id="YghAzzQnqxR3YXbTXL73-2" value="" style="shape=image;verticalLabelPosition=bottom;labelBackgroundColor=default;verticalAlign=top;aspect=fixed;imageAspect=0;image=data:image/png,iVBORw0KGgoAAAANSUhEUgAAAlgAAAE7CAMAAAA2MA+HAAACuFBMVEUAAAA5mMVZs9j+/v7///////+74O3+/v5Zs9lZs9hXs9c2l8NHpM1EosXD2Oc5l8VZtNn////+/v79/v7+/v5Zstj///84l8X+/v7///84mMRXstdMq9FYs9g4mMX+/v7+/v7+/v7+/v7+/v7////////+/v44l8Q4mMX+/v44mMT+/v5Ystj///80lL9YsdZZsthYstj+/v5Ys9k4mMP////////+/v5Zs9g4l8X+/v45mMU5mMX+/v5Eosy10+Y5mMT+/v44mMLR3+vq8PVYs9ekw9t6rtBZs9g5mMVZs9gzZ5D///+30zJ/uQD7+/tLps7h5OlHcJWPoLWptcRjgJ/3+Pm/x9HHztfw8fRth6SbyuOAlazo6+7Z3eOdq7z09fbQ1d1WeZq0vcquuceRuda5ws7l6Ouir8C00TCHmrD8/f3E3e2/1OWWpbiQwBbL0tr0+Prj7vXh6vHCytR3jqjs7vHC2Yzn8ODc6cez0VOrzSuexyFLncerzonb6vPd4eZkttnQ4Oxwqs1aocn3+fvw9Pi01ujU2eF/v92jyiTx9vrl7fTZ5O6gzOSXvNfu9Pnq8vff7PS60eSHwt93vNzN4Luvzy3d5/C/2+u62OrH2eeewNmCstLU5MX4+vzU5vHV4uzx9uqmz+W0zeCJtdN5rtBlpcu81nuKvQ+Ux+Gvyt+qx92jw9u71qH6/Pjt8vbQ4+/L4e7M3Oms0OWOxOBuudvT5Lbn8Pbz9+/l7tze6c/J3aGjyXmy0EXY6PLH3+3u9Ons8uPg69a/2Ifp7/XD2pSy0ZKy0DyFuzKnyyiYwx2UwhqDuwb2+vTJ3rfO4Kyv0IO302qex2q00l+y0DTp8d3C2q251HC00lex0E6Nv0utzmmcxTs5c5u00pi31HKgyEutzkiy0OOZuM+uusiSrsWQpboIZpfgAAAASXRSTlMAvt6+fz8HlpWBPzwqD/5/MBf279a+H/Ped2deGu6gno5nV0cnD+bWzq6upnJfF/jmzrawcU8vzsZbN8aTb0/h3oZH4t/W0MaeCYs26gAAGPNJREFUeNrs201rE0EYwPGpu5vchLwQklPzUgsh9FJIC4UioijCM/0eS4UgHuJucvLgoXjVXKSHnNKLPYa2MaCGGqrVWtPaSgX1k7jxpbYws9mk7ezM9vmdc/zzzOTZXYJYZgyH7ghrbNO6I2M4rhGEXM0ZWV2f1uIwrKimhXXdMBIEoWMho+gMpiScC2eUzRszBF1qRsYZUHARJrVxvThB0GWTyOn5OFw4LZzCO9hlMTGV1qIg0KSm5yIEBdi1nK7FwBfJQsogKIASmUIcfKaFs3gwBkmoGE6CJGZvzBEUBBPz0yCXWCGDGy/FGeFJkFJcx2WEsqSt6o9kGhepCsqdraoNq6/81659Qqf8x47VVwcPsK2AiKSSMALL2iw3bPsrHc6ebR/2O3sNI4hn8I+iKnIFGI7VdHpq07MzncI2hw0sOo7/ExUw1LB63Swf2PT8te1Oy1qEPhxbgRBJR8GbjVbDNumF6vbKTa/TK5rGpz7ySoyDF/s7jTYVxTzsLK95SwuXW3LylJVVPqTidQ9a+zDYOKYln8jgrPZbPZP6pvt9Z21wWnggyiWUioGr1eZBl/qu3bHAXSwVIkgaufiAqnZNKom9xoC24jmC5JDIgxuJqvrX1ga4yeN5KIVsDPjqm3tUQj93VoEvliXIb6Ew8Fm7VFZ7jYfAF8abls8mZl2ysqnMzKN14JrFt2rE8n4MNttUdmZvA3iieBz6aAp49r9SFZhHdeCZIkg8965WO1QVtdYicMwTJJp7V5YEu1Dvfq4Dh06QD4rA0ZJsbzVI5RlwpAgSLhIDtgZVjfliEdjwI1fxNGDrUfWYnzhlJfEFQNFSwKbOtf30zAK2AkFCzUSBqUXVVPuISwcp5IGprti9/b+lV8AUJ0igSDQoF/d/zLfAViRInHTQBhZ/ZOUJEiY0CUxNqq7aMrDh42hx5oBtk6rL/AJsGYJEyQLbAVXYJ2C7QZAoemCW7ie8Bbxk+a0Awdpi9ZkfgW2WIFFuAds6VdfWOrDFCBLlJnCo8Xof0xFwPCFIlOvAsUxVVXkDHI8IEuU28Mj7WY478yXwXCVIlDvA86FNz65WqVSWqo53pWMLp2yXfqs6nN+a9Mx+rAHPdYJEGXsAPPUuHc3vlt6XStsLo1gpva8uVWp0RN9eAc/9KwSJMvYcuOrtYYOqVhk5jWjbCWz4vr49BK57GJY4Y3cfA9eHntektqqllYULsVKqblWoR+bnOnAtPsWwfrFrPztNRFEcx3NegPc6NyfFfdddNG1j2m4mwbYRQWIRLVQGEWkUUCxKiyRqgBCFqgRBCGFBojHqmziXClag05n+uXNvcj5P0KTf/E7TGXUAF8jF52irr3JAJtVz1/fyUx76PqpSc+8Fh6UOYOYuudhwOYcD+b1ySCFnu9zqiv4okYvkJIelECA+7ycXsatHa+rG9VAQyk2nK79zQG7mBYelECDiK3K19etCWtH8vp9f6Eri+nK8Tq5eCw5LJUDHGLnbehFtmKpySAPlvYHGrI5q5K5wk8NSCtCReUgtrH2cqm+VFlXVfd3PR+sf6siiFkbvCA5LKUBvZVH13bf8fkg35RsDvw/XyENXHJZagN7KkrYruyHd7NSIvHTFYSkG6KMsitW0amuztEbeuuKwVAM8UyQyqi1ZlScTbwWHpRzguWdJ8mj7cDMUqO+VjQPyaFoIDks9wH+GHpJn1dpJQHHt7pTmyLPkkuCwggDYaKGffIhZ9s73kErHldIW+SDPIIcVCMD/LI6RT3Mbh1kVdR3/tNer5M/oPSE4rGAAXhBZIf8O1u2fPbuMu9mTkkX+xaZvCg4rKICXFIepPWtWyc5udrOoil2zYtSe3KQQHFZgAC9bnOmnDlStddvOdnAfj52gSpZFnUiFheCwAgR4laHEMHWBZTkbZleyksuUZetObHvDsraoC3JLQnBYgQLEJmklqUe2rbo56pHcGyE4rIABNpNZuE0Gij1xsuKwAgfo4v5TMszoo7dCcFgaAHS1WDRptt7L/604LC0ASu6z1U8mKExPCsFh6QKwtczy4DDprRB/IITgsPQB6M1jjdsan5ZVcVhaAfTs8cwK6WfikXyNj8PSDaAft16O6TRchdV5+TiQw9IQoF/P+j6RBmK5kdOp4rD0BNiGTCQxlqTgjD8ZeSMcHJa+ANt1a7kvTcolJ+Lh0/PHYekNsCOzy4m0qu0q5OL36tePw9IfYOeGIsXBu9RDsdTqSFic4rAMAdgti5HlxGCX56uQWo3P/z19HJZRALttNlJMzKTTw9S+ZCr1IT4SPr97HJZ5AHtmKBJZSCT60o4VamU8lUpNxONOTg03j8MyF6Ays5EzS+EGzYeJwzIYYACuCU84LINxWEzisDgsM3BYTOKwOCwzcFhM4rA4LDNwWEzisDgsM3BYTOKwOCwzcFhM4rA4LDNwWEzisP6wd2a9TQNBHFe+AN8r7F+ybCd2XHI6aRIFqNqQ5A1RoFwCyi1xqlRcEofELd7ghe9F7aWHY288S6m0lub3hCBxHvhpZnY8u8tiFQMWi4lgsVisYsBiMREsFotVDFgsJoLFYrGKAYvFRLBYLFYxYLGYCBaLxSoGLBYTwWKxWMWAxWIiWCwWqxiYJ9b5/HNoWCzzMUisa5unzo0xx4/nj07sX+jFYhWG/yHWs/iEtdNPl1+X84kPY3s+/rlzyNrmfkh6+2h8EkrGj++zWAXjkGK9uncDCW5sn17eUB3g/XL7I5JsjX99PfH43BaSeLbtIcHtx99ZrCJxCLEuvtu+hEwuPzx962I5ycb7M8ij0fF7bl3s4ri9id3GX05+us9iFYd/Fms5z5O1L08PSJi89DCwB5hj1ncdkYXj1tqQnLvPYhWF0mG1Gqz2XEnL9/2mjQNY2x824mh1zPr7F+vdutgjdLs1e0842xVK3I6HmE8PWKxiUDqMVjN/JFKEbqU2wB4P3715t4aIIPp0mlF/3cpXS7SksluPWKxC8A9ibUit2rW6UOP2mx4OElSEEqdiI8aeCjUrDUSMH7BYBUBfrGeXsYPXd0QeK7WAoJVkaSI9nCx67DCIg9Ymi2U+2mLdugTAqoWCxNRGRF/kE/qxWrORUOP0EXGKxTIeXbGWLQCzJUGkEkc3V5AIJ1Zu0BoF2OE5i2U6mmJdjOKVHQoio8iUwZKgMh1gh8aiL4TNuPFwnsUyGz2xNi4DuCqoVNsAVh2hQcUD4I3EAnrY4e55Fsto9MTaBjAgi+IMpIZaVKMvWT2xgKEVxSwWy2i0xLoFIKgKKqsA2qHQxKlhh9WFy83IrF8slsnoiHU2SoR1QUSmrBWhjYxInVyzrrBYBqMj1j0ZSYhUrdTHqdS9vK+2sMM3FstcShoBa00rs10FEDji383yxQK6AH6wWOaiIdYHAF26G9hhJIjom9UBsMliGYuGWL8Bjx6BmgAmQgGxA1ZZlGk94DmLZSx0sV4DqAkqLQBthYbkB1h1oaYPbJ1nsUyFLtZpAPQeeoOeN9XiIAiFkimAtyyWqdDFugE0BJUVAJYyYNHbYLZQEwBXWCxTIYv1BoCvtSSsicPh2It/sgN8ZrFMhSzWewCuIBJagFUVh6TqLSyzJsBdFstUyGI90VkT9ggBizh0M1j0I2MWy1TIYj2M/o+pDAgBi5pRKwu0+8FimQpZrDWN9zNTED5MnbtpV9ViXWexTIUq1oZO+8AH0BL/gyGAGotVQKhivdKZVLAJvQYijSipsljFgyrWB432qGMtakDpN+BrXGMVj5JGt4EahFxC2iTTVIasLq8KDaak8UJHp8Saiv9EXRmyfO5jGQxVrGNAW6PECoQ48pDVAZ6zWKZCFeuChiweodlAx1VteF0HTrFYpnIEYlVJzQY6M0Vrts0voQ3mCMRaIZVYdLrZC9IQwCaLZSpHIFaXtICkE1qZuXAE4D6LZSpHINYq4In/wJLb8/2u67p2Zi7sAVs8mmwsRyCWnZgIrA5X7R06w6rQoOo3kCCdC2vAmMUyFqpYT+jthgBY/xtzKp0Au1g1slqjDuZxs172fGaxjKWksVk11Os2VAIkIB9nVEGaaVbt/pXFMhadVzp1QSIeKHZ6AVJYFbpXzeHf7Oe6mctCF8B9FstYdKYbhrSaG0Cv20bMrNMdyaKpMojMcmmTMlivJ01Li+UDW7wT2lxKGnsp+uSXe5Kgf7CqclYBeFXKoLv8panryk/3s8SygTGLZS6lMpFL1KOuXEiaK6l1HGUSfgKgJ0S46kEaJr8XZozmfGaxzIUs1g1goCFWsJI4od1q9qrxQWxWmLemlDuoZ4ix/75t9rLa+19ZLHMhi/UF8OhiTZxEbIloT+N/auVXaBOZ6SJWko2xZPS7xmKZC1msdwBCqljDZAyS+LFjnbxvy3oqbADw5HNmQDPjzfQdPnjNYMhivQIwoorlJqeLY4IlGXvyR5Hln0Z+L9xrjNUyAtspFstgqGLRt+lMU33ylgegXZcJzMpvYokkTsYv9wC8ZbEMplSm8hHoUPtYlTk1hv36ng/T3LHmjAcO082G63y4rcnQxboJNOhiZTNKO5IRijJy6yg9S/iJxTKZktbRts4hxQoBTHKnBKvp7LiU1m+TxTIZulhPidV7qBZLLvByK7RW+gS2dCbcOs9imQxZLHr1vkisJjDL/XY/1bIK0pnwJ99MYTSlMpnLxOpdKWBiWUiPaU1gkM6EV1gso9EQaxtokMdmFPRz26yd1DlcNmCnMuHJ7yyW0WiI9RKAc0ixhgCmuR1Sd141O5UJx3ytnNloiLUMwCWKRWnLq/fkrM5vzgjSmZDFMhudK08swKeJ1SP0Isgb9H3AS2XCByyW2ZTKdG4A69Q+lgInX6z+fFujC2B+kvAnX91rOFIs+vm21HeFKvLFqlrA1fkGaXVuYuYEi2U4OmI9pWyokG9giGKpj5dRb9l3POA6XzZuOjpivSG0SKUHSzSx1A/oqwv+HoBHLJbpSLHoLdImafdWSBBLTRtoO8mirZW8pecBi2U6RLHoRZacT6AW7+pDl1XzWPX4onEWy3S0xHqqynLq7oBitiq3fG8kI1gtcQHmCxbLeLTE2rCAHmH/ViBUjEhN1loyZNnA+kHp1o6zWMZTKutwhlBkdYCBdmWfnl5oJFrvs4NNrV8slvnoiXUasJx8seyFh7KFtHt/Vw4mV+vA8AOusVjmoyfWMoCVfCnWF926FBC36Tey5uBbcenOYplPqazFpfwDkW2gQ5+2UtuJVoZYDQDfWKwCoCnWTSA4hFgh9WiRqQU00mLJgMViFQBNsd4BmP67WBXyNa01AL19sdoHAhaLVQQ0xbqYH3LsBdnuKvnc26oFtJ25oXcZsFisIlAq63EZsHNjTVtkI89uoDHZV3gdCPYDFotVCHTF+pLbLxgCqKqbDS1Bw2nvDTm0geZuwLpznMUqBLpiLee+7Kur7WnI9EZBWljbbZf6uwHrBYtVDEplTdZyx0gtKUQaV6pCxJGXq8puvbsXsFisYqAt1pfcU/kGqvZ8U++SnRZkCvTl82TAYrEKAlksei5sKeYBq1IUKtKkurz9ay9gsVgFoVTWZS33lNtZ9rpwIosv3ZBVBzCRxTxesFhFIRJLPxc6uWV3JXOZNxNCO2RNZALtxz0sFqso6Iu1DGCY3ylYympDdPXvg27KZkPVAk5eY7EKA0Es/XVhD8DAUdb0dJqIceXg6KnjLNYf9u6lp4koDON4x4XxgsadCV62GmO8RBcmGheuPJ0nGdtCC6XcFCihLeHqjkhBLkawoJIoaNQomHhJRDFhpxu+hhtvX0OHE6CltHM66My8zftbuXD5z8zhnXN6yLAR1icA1dZB1OQv3ZvtXGEP1Mt/TKU5LDpshNVq/b3wem3ee69FbuUqUQ3kei0A4J6fw6JDE6Xrtl6Fdxibn1kB+fNEJQrGVwuVX585LELshDUHoEPlbriG6pydWON66foNwOisBRIzHBYldsJ6qvJppt0AYESCWaG16zZUQXrs57Ao0YQNE/KzTnERmJr65LNtUP5NaEMzTFNpDosUW2G9UxhJdRqA1BSIRCIG0KDbEryJ1ZU7h0WKrbAGRiy3vocMAEMTyFIVa2/US3a9Kg5gys9h0aIJO+asPvvFwgA+CbHwaQTZjPGoXpI2SNNjWb9mm66bXewBsPySw/Iqe2E9tdioEK0FMCmfbm9TjyZKv8peisaxYbpnMZlMfuzpeYY1iToOy6M0Yctksd9gk5cN9g7knO7ZUFXi8ipcUxVGAc85LI/ShO1H1mDBHgIAVm5vDtG4occGIbeFqulbvwyzsasJueJ9AQCLHJZH2QtLltJY+JAXRoc3X/AU7l9rpaaE8xRN6xXGIjWBegAwAoFISA7K8JnD8ihN2H9k1Rd+zowsiCwZAEZIXxVXf2SFik01bgDAc168e5UmbJosNEpvAWC05kRoAGhRuLJQ/adpgma9uJ/msLzKdljD8qhynk4AeC+ytI5kv/6uq78Luwqem26sBYBbaZ5jeZYm7EptWUjMAPBAbHidQu5sQn1fVnOBMWxHHAASszwg9TD7YQ2MAujYaoD1Sax5+qoXpvrgRnnbDCt6ox6mqTc8efcyTdj2BEDt9bxDpngkB1iZ/b0GpK6gvi5SUlhGX6g6K6pQm6wKia98rZy3acK+obxh1iCAD+YAa37IwJra9k1HuhDRlQSwyghIcax7PsPfCj1uO2ENfADQt2mHS/ewEANDG1U1h/KWYKph1WNL018f8kdoz9PENiwYALpyujLm5X4tU31XVVTP0RhGCWGFke/+2B3e3UCBJrbjPQCMy1VQ9TgAPDF7A4CGULDgVoUqXUUQwGxdchmmRE/P/WRyKc3bZojQxLY8MQAYNaHqjkgYAF6t7QNs0/PE4gAwpBxWNPtMPe/HIkYT25MZQZY5+YYEgOZ+PUdHM0wPhPLkPQTgDYdFlCa26Wkv1nS/F1IKppuR0HpVbXH5PzJCAAgpH6OY4bCI0sS2ZVZgWtl/O3tTvBRYBUiPXosSwooA8HNYRGniX5hvbRU5hieRZ3JemAD8Vp2P3uWwqNLEf7KQmkCWD6kFIQH4pTofXeawqNLE/zOQSaV6/5pMPVnI+aX4H7qKWuAWh0WVJhwlw3qnqwDwkcOiypWw3qqOscY4LKq8G1YIwD0OiyrHw3oNYElX0A7gIYdFlSacZob1TfEMdJrDosq7YXUB3X4OiypXwvquKxgEljksspwPqxvYryu4CXzhsMhyPqxRYEhXYABfOSyyPBvW6hiLwyLLlbB6dWudAO5xWGQ5H1YvMKFbawHwkMMiy/mwXgCjilcHpDksspwPaw4YUbtGZ8rPYZHlfFgpAGqHCu9zWHQ5H9Y7ANVKhwo/clh0OR9WBkBUt1INYJbDosv5sOaVrgHrAHCPw6LL+bCGAbSoTRs4LLo04TgAfSrThoSfw6LLhbBGgXGVvQ3THBZhLoT1CIgr7W3gsAhzIaw5oEm3AiDJYRHmQlivAAT14voBLHFYhLkQVgZAv8IfhZ85LMJcCGtYYZAVALr9HBZhmnCeAfy0nrsvcliUuRHWCjBuvWfmDYdFmRthvbC6eDyG1SkWh0WYG2FlLH4tMhiQvz7KYRHmRlgD3cCHYLGjqnIvFodFmCZc8ABAW9FRQ8L8AM1hEeZKWKfvAkZnkYW7fBFyWIS5Eta1ugQQjm05aGgAgMd+E4dFmDth+ccAhKv0PG3hrK44LMJcCmu1LDRE9WyxmloASCz5JQ6LMLfC8idhGmyPyqZaagJN2HTDJYdFmGth+WefbVxHGMaaZ7P+DRwWXS6FZZq5hc2mx3IvTuWwyDohHCbDku4s3sW6nuePtxhecVhEXRLOk2FJM3XJZHK2ri7td8A5H3NKpXCYDMsdu3zMKVeEtbIJ66SPOeWUsFY2Ye3xsWLIr95dCuuMjznnsrBULmHt9jEHHRNWyiWswz7moPPCSpmExcMGZ+08LiyUR1in+YHlsIqDorjyCOuQj1mh/jJUC4tfhORpoqhyCOsMvwhdsO+4KKYMwjpywMesUS/LKizuqmwULYt8WNyVMtplFQ+Luyor+46KQoiHdbbCx9xUWWieRTusXTt9zF0Vx8SWKId1mueiHlDgdUg4LH4NesTeYyIf2bCO8JZR7zifv9KiGtZVnrZ7yam89yHNsM7ykMFrKk6IHBTD2sGLdi/KTYteWJyVZ1VkvRCphXWWs/Kyw0cPColWWBcu+5i37auUwwdCYR3ZxYMrEvaajy0yYV04xJ9vyNhXeZFGWGf4YUXNqUrN62Gd2cXH50n625Z3w/rTrh2sIAgEYRxvPcTuTLKnRdDqaoRooQcXJSTo/V+pjY7hJUrX9fs9w5/dYZhIYhe6YGV6TDwMq1Woavm46XwKK5JZvIEwbG/94ENYVV1gWA9NfNcimTGsq8zw/wVrZ/vT9GFdakVYVoWPrRbDNGFVRhaEC6tVeeWV/y+sA5JatT2n+iySH4bVGqUI0xS8MVvtCuu+DethXE8FETYJMKJk5kY7wsnHwoqMI5VDhPfp0xOsJpV6UtV33gAAAABJRU5ErkJggg==;" vertex="1" parent="1">
          <mxGeometry x="284.66" y="127" width="120" height="63" as="geometry" />
        </mxCell>
        <mxCell id="YghAzzQnqxR3YXbTXL73-3" value="" style="shape=image;verticalLabelPosition=bottom;labelBackgroundColor=default;verticalAlign=top;aspect=fixed;imageAspect=0;image=data:image/png,iVBORw0KGgoAAAANSUhEUgAAAgAAAAIACAYAAAD0eNT6AAAABHNCSVQICAgIfAhkiAAAAAlwSFlzAAANxwAADccBCzyLsgAAABl0RVh0U29mdHdhcmUAd3d3Lmlua3NjYXBlLm9yZ5vuPBoAACAASURBVHic7N13mBRV1sfxb/fkHBgYKHLOGSwlGBAEUQGLFVRUxEASJIggCKhgRkXF/Iprdk2taxYVFGMbEANgAAkyTRoyTGBCv3/0jDsiYWbqVld19/k8zzzuwsy5Z1fo+6tbVfe6/H4/Qoi/03QjAUgH0oBkIB/YX/Z1wOf1FNnYnhBCmOaSACAiiaYbyUB7oGPZP7P530Rf8Z8xxylVSFkYAPYBG4HfKn75vB6fBf8ThBBCCQkAImxputGQwERf8asp4ApSCweA34FfgS+Aj4GffV6P/KUTQthOAoAIG5puZAJnAYOB0wlcyTtNLrAcWEYgEKySQCCEsIMEABHSNN1oTGDCHwz0AqLt7ajKcoEPgReAd+XZAiFEsEgAECFH041u/G/Sb29zOyrtBF4CnvN5PZ/b3YwQIrxJABAhoeyp/IuBSUAbm9sJhvXAc8CzPq/nV7ubEUKEHwkAwtE03dCAq4AxQA2b27HLEuBOn9fzkd2NCCHChwQA4UiabnQFJgPDOf4reZHiW+BO4FWf11NqdzNCiNAmAUA4hqYbLmAIMAXobXM7TrYWuAt4yuf1FNjdjBAiNEkAEI5Q9mDfA4Budy8hZBswF3hcVgSEEFUlAUDYStONmsCtwGWA2+Z2QtUKYKLP6/nC7kaEEKFDAoCwhaYbUcB4YB7O3LAn1PiBZ4EZPq9ni93NCCGcTwKACDpNN04BFhFe7/A7xX4Coeo+2VRICHEsEgBE0Gi6UQe4Bzjf7l4iwGrgAp/X86PdjQghnEnuuYqg0HSjL7ASmfyDpQ3wtaYbE+xuRAjhTLICICyl6YYbuAGYTQgFztjYGNJTkkhLSSY9LZm42Fjy8go4kJf/11deXgHFJSV2t1oZbwCX+byenXY3IoRwDgkAwjKabmQDzwN97O7lcNlZGXRo3YyOrZvSumlDMtNTSEtJJiMtmbSUZOLjYitVp6DwENtyd7NuYw7rNvkC/9yYw9qNPrbl7rL4f0WV5AAjfF7PJ3Y3IoRwBgkAwhKabpxK4IS72ja3QlZGGh1bN6Vj2YTfoXVTsrMyLR9334E8vv5hDZ9/+xOff/cTq3/fQGmprX/fSoGbgZtk3wAhhAQAoVTZbn6zgJuAKLv6aFSvDoP79WRwv160atrArjb+Zs++A3y5YhWfffsT7y//Gt+2XLtaeQW4WHYRFCKySQAQymi6kQa8CPS3Y/w6tWqUTfq96di6qR0tVJrf7+eLFat45Z2PeXvplxzIyw92C18Ag+S5ACEilwQAoYSmG1kETq3rHMxx01OTGXJGLwb368UJHVvjcrmCObwSBYWHeO8TL6+8+wmffLWSktKgrc7/Bgz0eT3rgjWgEMI5JAAI08re7/8AaBusMTPSUhg3YjCjhg0kKSE+WMNabsPmLSx66jVeeWcZRcVBecNgB3COz+vxBmMwIYRzSAAQpmi60QD4CGgWjPEy0lIYO2IQlw07K6wm/sP5tuXy4DOv88IbH1JQeMjq4fKB831ezxtWDySEcA4JAKLaNN1oRmDyt/wpu/TUZMaOGMxlwwaSnJhg9XCOsWPXHh597g0Wv/Q2hYcs3dm3CBji83resXIQIYRzSAAQ1aLpRhvgQ6COleMkJsQzcaTB5cPPiqiJ/3Abc7Yx5+7H+fDz76wcJh8Y4PN6lls5iBDCGSQA2KTsvnnzsq+aQHKFrxQgCTgI7KrwtfOw/77R5/UctKH3zgQe+Muychy9UxvunTuRhnWzrRwmpLy//Gvm3vMEf27ZbtUQ+4A+Pq/H0qQhhLCfBACLaboRDXQFTi77ZwsCk36ygvKlwBrgmwpfP/q8nkIFtY9I042OwMdYeIRvXGwM140bwZXnn4PbHXpP9VutoPAQ9/37FR569nWKioqtGCIXONnn9ayxorgQwhkkAChWtvd9D+A0ApP+SQSu5oPlEPATgTDwCfCmqlWCsq19vwHqq6h3JJ3bNue+uVfTrFFdq4YIG6t+W8/oWXex/s8tVpTPAXr5vJ4NVhQXQthPAoAimm50AS4kcNqdk2avgwQOg3kBeN/n9VTrkXJNN+KBZcCJCnv7S0xMNFMvH8aEkQZR7pA5M8h2B/LymX7bI7y+5FMryq8DTvB5PY461EAIoYYEABM03dCAKwhM/C1tbqcydhPYBvYF4JOq7Aev6cZzBP53KteoXh0ev/1a2jRvZEX5iPDs60uYc/diK94UeA84S84OECL8SACoBk032gHXEJgQK3dsnPP4gMeA+3xez55jfaOmG7OB+VY00alNM565ZzY1MlKtKB9R1qzdyBXX3WnFLYH5Pq9nruqiQgh7SQCoAk03+gDXAgPs7kWhvcC9wL1HCgKabgwFXgaUP43Xt2dXHrnlGhLDeEOfYNu9dz8XTbmZ71f9rrKsn8C5AW+pLCqEsJcEgErQdKM9gUnScefaK/SPIFD2XMOnQKLqwS4c3Jc7rhsr9/stkJdfwJUzF7Dsy+9Vlt0DdJNzA4QIHxIAjqHsgJv5wJXYeLRtkJUHgRcJ7O+v/IHGa64czjVXDFddVlRQVFzC1Jsf4NV3P1FZ9kfgJJ/Xk6eyqBDCHhIAjkDTjShgInADFr7vHmmio6K447oxXDCor92tRAS/38/8RU/xyHNKt/j/t8/ruUxlQSGEPSQAHEbTjcbAM0BPu3sJJ263i0dumcbZfU6yu5WIM//+p3j4uf+qLHmGz+v5QGVBIUTwyQ3YCjTdGAX8gEz+ys2ZOFImf5vMnngJ5w08VWXJRzTdiNyDGYQIE9F2N+AEZff6HwPOtbuXcDTqvIGMuXCQ3W1ELJfLxd2zr2Lnnn0s/WKFipJNgBuBGSqKCSHsEfG3ADTdaAu8BTSyuZWwdEbv7jxx53Wyp78D5BcUct74G1ix6jcV5YqB7j6vZ6WKYkKI4IvoAKDpxgACT7vLLjQW6NSmGa8+PJ+E+Di7WxFldu/dzzlXzOSPTT4V5b4FTvR5PSUqigkhgitiA4CmGxMIvO5m++t9breLGulp1MrKoHZWBtk1M6mdlUlGWgp79h9gx849bN+5hx279pT9590UFFZrS/+gaaBl8+bi26iZKS9ROM0v6zYxcNR0VX+Gpvi8nntVFBJCBFdEBgBNN+4FJtkxdmZ6Kv16deO0kzpTv04tatfMpGaNdKKjqpZD9h/MY/2fW1ju/YFPvCv5+sdfrDoatspSU5J46/Hb5UQ/B/vPmx8x9eYHVZTaCzT2eT27VRQTQgRPxAUATTcWAROCOWajerXpf/IJDDjlBLp1aGXJ7nd5+QV8sWIVn3hX8vFXK1m3MUf5GJW16MZJDD3zFNvGF5Uz8cb7VG0UdIvP65mtopAQIngiKgBourEQmByMsTq1acaAU3T6n3wCLZvUD8aQf/Pnlu087XmfZzzvs+9A8DZuO6N3d568a2bQxhPVl5dfwIBLr2XtBtNh8QCBVYBcBW0JIYIkYgKAphsLgGlWj9OlbQtmT7yEEzu3sXqoSjmQl8+zr33AYy+8wdYd1h7rnp6azMf/uZ9aNeS+f6hYs24jAy+druIY4QU+r2e6ip6EEMEREQFA042bAEuPM23SQGPm+BGcdZozN7spKi7htfeX8/Czr/PrH39aMsaD86Zwbv/eltQW1rn3iZe589EXzJbJA5r4vJ5tCloSQgRB2AcATTcuAJ63qn6tGulMvWI4Fw7uW+UH+ezg9/v58PPvuGHhE2zYvFVZ3QGn6Dxxp+wLE4oOHSqiz4gpKl4NvM/n9QTlFpsQwrywDgCabnQDlgPKty1NTkxg7EWDGXvhoJA8zz6/oJCbFz3Nk6++h9k/AxlpKXz8n/vklb8QtvzrHzh/4k1myxQATX1ej5JNBoQQ1grbswA03agDvI4Fk3+rpg348Ll7mHr5sJCc/AES4uO45dorefGBG6lXu6apWrdee6VM/iHu5BM6Mqif6SMw4oGxCtoRQgRBWAYATTdiCUz+yl9EP6N3d95cfDsNtGzVpW3Rq1t7lr5wLxcOrt4Rveec3oPB/Xop7krY4abJo0hONJ2XLys7TlsI4XBhGQCAecAJqotOHDmUfy+4jqQQveo/muTEBO6aNZ5nF86u0hP82VmZ3HGdXPCFi+ysTCaMNMyWqQsMVNCOEMJiYRcANN04CcWv+8XFxvDgvCnMHD8Clyt8D7Xp06MLby6+naYNj79w4nK5uHfuBNJTk4PQmQiWS/91JqnJiWbLjFbRixDCWmEVADTdSASeQuH+/tlZmbz26C0R83pb/Tq1eOP/bqVbh1bH/L5R553JKXqnIHUlgiU1OZGRQ880W+ZMTTfqqehHCGGdsAoAwO1Ac1XFmjTQeO+pO+nUppmqkiEhIy2Flx64kf4nH/kuSvNG9Zg94ZIgdyWCZfQF5xAfF2umRBRwmaJ2hBAWCZsAoOlGDxTu8Z+anMhTd80kOytTVcmQEh8Xy+N3TOcSo//ffj0mOooH5k02O0EIB6uRkVrth0IruFzTjbD5fBEiHIXTX9AFgJIb9FFuN4/cMq1S98LDWZTbze0zxjBj7IV//do1V55P+5ZNbOxKBMO4EUOIiTZ1J60BYPq9QiGEdcIiAGi6YQA9VNWbc/VITj1R7m+XmzTqXyycM4EeXdpx1SXn2t2OCIK6tbM4o7fpF2nOUtGLEMIaIb8ToKYb0cBqFN37H352HxbOCeppwSGjpLTUkqOMhTO9v/xrRl17u5kSP/m8ng6q+hFCqBUOn+ZjUDT5d+/Yijvlvfajksk/svTp0ZWMtBQzJdrL2wBCOFdIf6JruhEHzFZRq27tLBbfMYOYmGgV5YQIeTHRUQwxv8ujbAokhEOFdAAALgBqqyh016zxZGWkqSglRNgYOvAUsyUkAAjhUKEeAJQcPdr7hA6yqY0QR9ClbQuaNNDMlDi97GwOIYTDhGwA0HTjVKCj2Toul0s2tRHiGAaedqKZH08G5LQoIRwoZAMAMEVFkSFn9JL32oU4hl7d2pstofxgLiGEeSEZADTdqA+cbbZOTEz03za5EUL8U/cOrcw+HCv314RwoJAMAMBQFPR+6dABNNCyFbQjRPhKiI+jS9sWZkqYvlUnhFAvlAOAKanJiUy+7DwVvQgR9np2bWfmx1uUndQphHCQkAsAmm7UQcG2v2MuHGx2kxMhIkZPc88BuAHTDxIIIdQKuQAAnIuCvo0BJytoRYjI0LVdC7OHA8lzAEI4TCgGAMNsgVZNG9Cwrtz7F6KyYmNjaFjP1J5b8hyAEA4TUgFA040YFBwx2v9keStJiKpq2sDU8dhyC0AIhwmpAAB0BuLNFhlwiq6gFSEiS9OGpgKAqe0EhRDqhVoAOMlsgdo1M+nQSjb+EaKqmjU0NYfXVNWHEEKNUAsApp/+73/yCbhcLhW9CBFRTN4CSNF0w/TqnRBCnYgLAANOkfv/QlRHU3MrAAC1VPQhhFAjZAKAphu1gHpmaqQkJdKji6kNTYRD7C0s4btt+Xa3EVEy01PNbgksAUAIBwmZAACYvnHfullDsx9gwgH2FpYw+kMf4z7y8dWWPLvbiSjJiQlmflyeAxDCQSIqAGRnZajoQ9iofPL/ZVchhSV+rl62hW+2ykpAsJgMALICIISDRFQAqCUBIKRVnPzLFZb4mbhsi9wOCBKTAUDXdEOW4IRwiFAKAI3NFsiuIQEgVB1p8i+XX1zKhKVbWLm9wIbOIktioqkH+ccBf2i6MVXTDTmIQwibhVIAML0CULNGuoo+RJAda/Ivl1dcyvilPn7MlRBgJZMrAAD1gbuBTZpu3FZ2uJcQwgaODwCabtTSdOMxwPTpPdlZmQo6EsFUmcm/3MGiUsZ+6ONnCQGWURAAyqUD1wEbNN1YrOlGa1WFhRCV49gAoOlGrKYb04DfgStR0Ks8BBhaqjL5lztYVMrYj3ys3ln5nxGVFxWt/CMjFrgMWKXpxpuabsgxnUIEiSMDgKYb5wA/AwuAVFV1a8kzACGjOpN/uf2HShnzYQ6/VuNnhW1cwNnAJ5pufKnpRhe7GxIi3DkqAGi60VbTjSXAG0BzlbVjoqPITJfnjkKBmcm/3L5DpYz+0Mdvuw8p7EwEyYmAV9ONmzXdiLW7GSHClSMCgKYbmZpuLAJWAv2sGCMhPk7OAAgBKib/cnsKSxj9YQ7r9kgICEHRwPXAd5pudLO7GSHCke0BQNONEQTu808g8JdeRCiVk3+53QUlXPFBDn/slRAQotoBX2m6caumG3F2NyNEOLEtAJQ95Pcg8Cwgj+dHOCsm/3K7Ckq48oMcNuyTEBCiooCZwApNN+Q0LyEUsSUAaLpRH1gOjLdjfOEsVk7+5XLzS7hiiY9N+4ssG0NYrg3whaYbd8jRwkKYF/QAoOlGP2AFoAd7bOE8wZj8y+3IL+aKJTlsPiAhIIRFAdOB7zXd6GB3M0KEsqAFAE03XJpuzAbeA7KCNW65xvVlwzGnCebkX25bXiAE+CQEVEv39q2oXdMRd+xaAcs13ehtdyNChCqX3++3fBBNNzKAZ4CzLB/sMNFRUYy/eAjXXDFcjgJ2EDsm/4q05BieOKMudZLkz0R1rFm7kaVfrGDplyv45odfKC4psauVAmCYz+t5064GhAhVlgcATTc6AR4UHOZTVa2aNmDhnIl0bN002EOL4/g5t4ArP/CRV1xqWw/1kmN4on9dshMlBJix70Ae7378FS+9vYyvvl9NMC4qDlMMXOnzep4M9sBChDJLA0DZbl4fEdj3O2jiYmMYO2IwUy8fJlf9Dvb99gLGf2RvCGiQEggBNRPkz4kKm3zbePntj3n5nY/Z5NsWzKH9wHSf13NXMAcVIpRZFgDKHtBZRhBf8UtNTuSSoQO48vyzqZkpJ/+FAieEgEapsSw+oy5ZCVG29RBu/H4/X32/mpfeXsZbH33BwfygHdB0p8/rmRGswYQIZZYEgLKTvT4BaiovfgS1aqRz5fnncMnQ/qQkJQZjSKGQE0JAk7RACMiMlxCgWl5+AW8t/ZJHn3+DNWs3BmPIJ4DRPq/HtgcThAgFygOAphvNCUz+lj9236hebcaOGMzws/sQFxtj9XDCQk4IAU3TY1ncry4ZEgIsUVJayjOeJdz56PPs2XfA6uH+C5zv83rkbGghjkJpANB0ozGBDX7qKSt6BI3q1WHG2As4+/QeRLlt381YKLJiez5XfbTF1hDQIiOW/+tXl/Q4CQFW2bPvAHc88jzPvraEklJL/12/BQz2eT32/YESwsGUBYAKu/s1UlLwCFwuF6POO5Prr7qYhHjZFjwcOSEEtMyM4/F+dUmNlXBppdW/b2DOPYv5csUqK4e51ef1XG/lAEKEKiUBQNMNjcCyfzPTxY6igZbNwjkTOKlLW6uGCJqC/zyJf/dOu9s4qpgepxDd0b4D2JwQAtrUiOOxvnVJkRBguTc++Jx5i57Cty3XqiGG+byel60qLkSoMh0ANN1IAL4mcGqXci6Xi0uM/syeeAlJCeGx/feBmRMp3ZpjdxtHFNOrDwmXXQU2H53shBDQLiuex/pqJMVICLBafkEhdzzyPI+9YMl+PgeBHj6v50crigsRqlR8si3Eosm/Xu2avLjoBm6bPjpsJn8nc8rkD9ClVgIPnl6HxGj7Jt+fcwsY+6GPg0VyC9lqCfFx3Dh5FPfOnUis+gd6k4DXNd2oobqwEKHM1KerphsGMEZRL38z9MxTWPrCvfTqLud9BIOTJv9y5SEgwcYQ8GNuAeOX2vt2QiQZdtZpvPLgTWRlpKku3Rh4UdMNebpTiDLV/mQte+jvcYW9/GX8RUNYdOMkkhMTrCgvDuPEyb9cl1oJPGRzCFi5vYAJS7dQUBz0LW4jUrcOrXj3yQW0ad5IdenTgQWqiwoRqqr1qVqWop8HMtS2A7MnXMzsiZeoLiuOwsmTfzknhIDvtuUzYZmPwhIJAcFQt3YWb/zfrZx5qvJTw6dounGx6qJChKLqfqLOAXqpbCTK7ebu68cz/uJzVZYVxxAKk3+5LrUSeLCPvSHgm635XL1si4SAIElMiOfx26dz9aVDVZd+TNMN+15zEcIhqvxpWnb+9myVTcTGxvDordO4YFBflWXFMYTS5F+ua7b9IeCrLXlM/ngLhyQEBIXL5eK6cSO4/8ZJuN3K/qzGA09quiEnQImIVqVPUk03MoDnAGUP0iQnJvDswtkMPO1EVSXFcYTi5F/OCSHgC18eUz/ZQlGphIBg+deZp3DT5MtUlmwLTFBZUIhQU9VP0UeB+qoGT0yI56UHb6JXt/aqSorjCOXJv5wTQsCnOXlc88lWiiUEBM3lw89izIWDVJa8UdONWioLChFKKv0JqulGT+A8lYPfc/1VdGpj2eaB4jDhMPmXc0II+GTzQa79dCslFh2pLf5p7tUjObvPSarKpQG3qSomRKipyqen0r8o40YMZlC/nipLimMIp8m/nBNCwNJNB5nx6TYJAUHicrlYdNNkundsparkKE03uqsqJkQoqdQnp6YbZwK9VQ3aq1t7Zk2QN3GCJjqauDMHh9XkX84JIeCDjQeY+dk25G5AcMTFxvDkgpk0aaCpKOcCHtB0I/z+cghxHMf91Cz7i3GrqgHr1s7ikVuukWN8g6m4mIN33kDpFmeeP2CWE0LA+xsOMPtz60LAs2v2WFM4RGWkpfDcvXNU7Rh4AnCpikJChJLKfGIOBzqpGCwuNobFd8wgMz1VRTlRBf69ezh4xxwJARZ6e/1+5n6hPgTc9/1Onvh5t9qiYaBh3Wyevud6YmKUvM13m6Yb8sEkIsoxPy3L3pOdr2qw22eMoUOrpqrKiSqKhBDwgM0h4M0/9nPTV9tRlQFk8j+2Tm2aqdooKBu4UUUhIULF8T4pLweUPKZ/bv/eDD+7j4pSwoRwDwHdHBACXl+7j5sVhACZ/Cvn6pFDadaoropSEzXdaKGikBCh4KifkppuJABzVQySEB/HnIkjVZQSCkgIsN4rv+/jVu+Oav+8TP6VFxMTzZ3XjcNl/iHXaGCigpaECAnH+oS8ClDymO1Vl5xL7ZqZKkoJRSQEWO+l3/Zy+zdVDwEy+VfdiZ3bcMGg01WUuljTjSQVhYRwumN9Oo5WMYCWncX4i4aoKCUUkxBgvRd+2ctd3+ZW+vtl8q++ORMvoWZmutkyacAFCtoRwvGO+Mmo6cYJQHMVA8yZeAnxcbEqSgkLSAiw3jNr9rBwxc7jfp9M/uakpSQzb6qS8wLGqSgihNMd7VNRyS493Tq0YnA/pacGCwtICLDek6t2c//3Rw8BMvmrMbhfL047qbPZMl3KLoKECGv/+EQse/VvuNnCLpeLeVOUnt4lLCQhwHqLf97Ngz/s+sevy+Sv1u0zxhAXG2O2jKwCiLB3pE/D/kBNs4WHDjhZDvoJMZESAuKj7dv19bEfd/Hoj/8LATL5q1e/Ti2GnGF65/LhZcefCxG2jhQALlJRWPGxnSJIIiEEPNhHszUEPPTDLh7/ebdM/ha6fNhZZkskAPLusghrfwsAmm6kAIPNFm3fsgltWzQ2W0bYREKA9RbJ5G+pdi0bqzgxcKyKXoRwqsNXAAwCydeUCwb1NVtC2ExCgAh1l59nehWgpaYbp6noRQgnOjwAmF7+j4uNweiv7ORgYSMJASKUDexzItlZpjcgM/1AtBBO9VcA0HSjJmB6s/6z+pxEaopspBUuJASIUBUdFcXIof3NlpGrGRG2Kq4AnEjljgc+Jln+V8ztJmHUeGJPPcO2FiQEiFB10blnEGvulcDWmm7UUNWPEE5SccLvbrZYw7rZ9OjS1mwZUS46moRx1xBzcl/iLxlDzMn2hSsJASIUZWWkMbhvTzMlXICpAkI4VcUAYHrnq/PPOV3FiVwCcMXGkThpFjHdTir7BRcJl44jpqd9zyRJCBCh6OJzTa+eyXamIixVDADdzBbr18t0CQG4EpNInHYD0e06HfYbLhIun0DMSafY0xiREQIeOE1CQDjp3K4FKUmJZkrIcwAiLLkBNN1oApi6z5WUEE/Lpg2UNBXJXKlpJM6YR1Tzo7zD7HKRcMVEYnT7LkrCPQR0ry0hIJxEud2cYG5PgK6abph+PRpA041UTTfiVNQSwqzyFQDTy/+d2zYnym3fPuvhwF0ji6SZtxDV4DibKLndJIyeTEz3HsFp7AgkBIhQ0qNbezM/HgPoilpZAORquvGSphsXaLqRpqiuEFVWPmObfgCwa/uWZktENHdtjcRZt+KurVXyB9wkjJ1CdFdVn0tVJyFAhIoeXdqZLWH6NoCmG/WBS4Fk4DzgeWC7phvvaboxRtON2mbHEKIqJAA4QFSDxiTNvAV3ZlbVftAdReK4aUR3Nv2vr9okBIhQ0K5lY1KTTT0HoOKe2wwg9rBfiyVwANsjgE/TjS803bhW0w05SU1Yzq3pRhTQxWyhru1aKGgn8kQ1b0XidfNxpVZzJTAqisTx1xLdsavaxqpAQoBwuii3G71TGzMlTir7rKwWTTfqAJcf59tcwEnAncDvmm78pOnGfE03TH8+C3EkbqANYGrrviYNNDLSUtR0FEGi23UicdoNuBJMXZlAdDSJE6YT3b6zmsaqQUKAcLoeXU3dBkgBmpj4+WuB+Cr+TDtgNvCdphsbNd24V9ONU80EESEqcgOmH93vJsv/VRbTvQeJk2bhilX0QHB0DIkTryO6bUc19apBQoBwMpMBAKBmdX6obJv1MSbHbgBMApYBWzXdeELTjXM03ahqqBDiL27A9GkZnds2V9BK5Ig9+XQSxl0D0dFqC8fEkHj1TKJbm3ri2RQJAcKp2jY3/RxAFR/S+cs1gMllvn/0MQp4g8AbBa9oujFC0410hWOICKAkANSuabpERIk9cwhYtWNibCwJk2cR1dK+LZkjIQTcc0odu9sQVeR2u6hbu1oX8eWqHAA03cgErjIz6HEkAUOBZwm8UbBE041xmm5U8nUiEcncQIbZIumpyQpaEaq4YuNInHI9Uc1b29ZDOIeAtB8M+gAAIABJREFU/OJSnlm9x+42RDXUyDD12n110sNkAq/9BUMM0A94CNis6caXmm7M0HRDntAWR6RkBUAeAHQeV1w8iVNnE9XMvuczwjEE7D9UytgPfXy5Jc/uVkQ1ZKab+qyq0gpA2SY/V5sZ0AQXgRNebwd+1XRjlaYbN2u6Ifu1i78oCQDpqRIAnMgVn0Di1DlENbHvGY1wCgE7C0q4fEkOK3cU2N2KqKYa6aZWAKp6C2Ai4JSd/toA1wPfaLqxSdON+zXdOE3TDcUPIolQouQWgKwAOJcrIZHEa+YS1aipbT2EQwjYcrCYS9/bzK+7C+1uRZhQIyPVzI9XOgBoupEMTDEzmIXqEwgnS4Ftmm48qenGYFXnHYjQYXoFICkhnphoeS3VycpPF4xqeJwzBiwUyiFgw75DXPr+ZjbtL7K7FWFSZlpwAgCBB/9C4enoTGAk8DqBNwo8mm5crOmG6QtD4XymA4Bc/YcGV1IyidNuJKp+Q9t6CMUQ8MuuQi59P4etB4vtbkUoEIwVAE03EoGpZgaySSJwLvA0gTcKPtB04ypNN+ra3JewiOlbAOlp8gZAqHAlp5A4/Sbcde07tjmUQsD32wu4fEkOuwtK7G5FKJKZbioAVPYtgDFALTMDOUA00Bd4APhT0w2vphvXabph6lxl4SzmA0CKBIBQ4kpOJWn6Tbi1+rb1EAoh4HNfHmM+zOFAUandrQiFapgLAGnH24a3bGe+a80M4kAuAkfG3was0XRjjaYbt2q60V3TDdkRK4S5gUNmChQVy9VRqHGlpgVCQG37VvacHAKWbDzA1cu2UFjit7sVoVhaiqljT4p9Xs/xPvAuB8J9l6hWwEzga2CTphsPaLpxurxREHrcwAEzBQ7k5StqRQSTKy2dpBk34c6277PKiSHAs3YfMz7dSnGpTP7hqPCQqQc59x3rNzXdiCVw5G8kqUfggccPCTw38LSmG+eWPQchHM4N7DdT4MBB2RAlVLnSM0maMR93rdq29eCkEPDU6j3c9OV2ZO4PX3n5pvZw2Huc3x9J4BW7SJUBXAx4CLxR8JqmGyM13TC17CKsE42sAEQ0V0YmiTPmkXf7HEp3bLOlh/IQkDRjPu469tyWWLE9n5Xb8zmtvjM/q1Jj5VVbFQ7mWRMAypa/Z5opDpCdlUFRcQm79hxzsSEUJABDyr6+B360tx1xJNGYXgGQABDq3JlZgRBw2/WU7sy1pQe7Q0CXWgl0qSX7oIS7g9atAIwATG+0cdv00fTr3R3vytW8s+wr3vvka3zb7Pk7qUgp8JvdTYgjM/0MQOGhInkQMAy4a9QkccZ83Bk1bOvBSbcDRHg6mG/qguWIAaDszYBZZgoDtG3RmP4nn0CU202PLu24+Zor+PaNx3j3yQVMHDmUZo1C8nX89T6vR/bOdijTzwAA5GzdrqAVYTd3zWwSr5uHK8O+DcwkBAgr7T9g6pmlo60ADAdMn7h3zRXDcB3hmPCOrZsyc/wIlr+4iOUvLmLm+BF0bG3f1t5VtMbuBsTRuYHdZous27RFQSvCCdy16pA0fR6udPt2ApUQIKyy/s+tZn78Hzfmy96Dv95MUfjf1f/xNGtUl4kjh/Lukwv49o3HuPmaK+jRpR1RbrfZFqwiAcDB3Ci4P/PHJp+CVoRTuGtrgRCQmm5bDxIChBXWbTL15+lIKwBDCZy0Z8rRrv6PRcvO4rJhA3nl4Xn88O4TLJwzgX69uxMXG2O2HZUkADiYG/jFbBEJAOHHXacuSdNvwpViauc0UyQECNXWblAXAMqu/mebaojKX/0fS2Z6KsPP7sNTd83k5yVP8eit0xhyRm9Skmx/HV8CgIMpCQDrNsoHdDhy160fCAHJ9h349FcIsOkVRRE+SkpLWb/Z1O3K9Yf993OAjmYKQvWu/o8lKSGec07vwUPzp/Dz+0/y7MLZjBjSj6yMNGVjVIEEAAdzAxsAU4ec/24uVQsHc9drSOK1N+JKsu/Mh6j6jXCnh8LJqsLJ/vRto6jI1KmOPxz23+eYKQZqrv6PJSYmmj49urBg5jhWvvMErz16M6MvOIf6dYJyVtEWn9dzvM2ThI3cZXtbrzVTZFvuLjb55AotXEU1aBwIAYnB3yQnul0nEq+eCTGOuq8pQtAv6zaZ+fGDVPic1HRjANDNbE+qr/6Pxe12oXdqw42TR+F9/RGWPH03Uy4/j1ZNLTsdVK7+Ha780VHTtwE+//YnsyWEg0U1bELitBtwJQTvnqJM/kKlL1esMvPjP/m8nopHQzr+6v942rVszLWjL2Dp8/fy+SsPMnvCxXRt10JlIJEA4HDlAcD0v6jPJACEvajGzUi8Zi6ueOt3zJPJX6j2+Xc/m/nxv5b/Nd3oA/Qw208wr/6Pp3H9Ooy/+FzeXHw7K976P269djTdOrQyW1YCgMOVB4CvzBb6wtxfLhEiopq2IPGaObji4i0bQyZ/odruvftZs3ajmRIV7/+H/NX/sWRnZXLpvwZwxbCzzJaSAOBw5QHgU8DUfr7bcnebfcVGhIioZq1InDrbkhAgk7+wwpcrVuH3mzrm8QcATTd6Aaea7cdJV/9Hs9FnatMkkADgeG4An9ezD/jObLGPvd+bbkiEhqgWbUiYPAtXbJyymjL5C6uYXP7387/T7Oaa7cXJV/8Vbcwx9WD3Xp/XI1vEOlzF/SOXmS3meW+52RIihES3akfCJDUTtkz+wip+v58PP/vWTIl1Pq/ngKYbOtDPbD+hcPUPsMlcAJCr/xBQMQB8bLbYytVrZVOgCBPdpkNg4o6u/sQtk7+wknflGv7cYurAskJNN8YCd5ntJVSu/sH0CoAEgBBQMQB8BpjaJQPA876sAkSa6HadSJw4A6Kjq/ezMvkLC73y7sdmS7QFHgZ6mS0UKlf/xSUl+LblmikhASAE/BUAfF7PAeAbswVffVcCQCSK7tCFxKuuhaioyv+MTP7CYoWHinjroy/sbgMIrav/nK25lJSWHv8bj04CQAg4/AzJ180W3OTbxjc/mN5XSISg6E7dSRw/rVIhQCZ/EQxLPv2GfQfy7G4DCJ2rfzB9/x8kAISEwwPAc4Cp2Afwf/9502wJEaKiu+gkjJ0K7qOHAJn8RbD8582P7G4BCK2rfzD9CmAB/zw4STjQ3wKAz+vJAUz/jXnn46/kiOAIFtPtJBLGTAb34flSJn8RPKt+W8+yL53xanIoXf2D6QcAfzts22ThUP/8hIanzRYtLfXzwNOvmS0jQljMCT1JuHISVPjQk8lfBNO9T7xidwtA6F39g7wCGCmOFABeAw6YLfzqux+zZftOs2VECIs5sTcJV1wNLpdM/iKoflv/J+98bHqHcyVC7eof5BXASPGPAODzeg4CHrOFi4pLeOS5/5otI0JcTI9TSJwyWyZ/EVT3P/mq2a1/lQjFq3+QABApjrQCAPCUiuLPvLbE7AYcIgxEt+8sk78Imj82+fjvks/sbgMIzav/ffsPsne/qUVgCQAh4mgBYBn/2/u62goKDzHn7sVmywghRKXNXfiE2XfYlQjZq3+fqav/EuA3Ra0Iix0xAPi8Hj9wi4oBlnz6DR99sUJFKSGEOKZ3P/ay1CGfN6F49Q+ml//X+7yeQlW9CGsdbQUA4BXgVxWDzLn7cQ4dKlJRSgghjii/oJC5C52x4hiqV/8Am3JM7QEgy/8h5KgBoOw9zttUDLJh81YefMb0JoNCCHFU9/37FXK2mtq/XplQvfoHeQAwkhxrBQACOwNuUDHQfU++ws+/yuZQQgj1fv3jTx52yFtHoXz1D7DJZ+rBbQkAIeSYAcDn9RQDd6gY6NChIkbPuosDefkqygkhBBBY+h97/V0UFZk+zFSJUL76B1kBiCSVOb/138AMoJHZwTZs3sL02x7hoflTzJYSQggArr/rcX79409TNfr17k7TBnUoLi6lpKSE4pISiktKOVRUxNbtO8nZthPf9tzjPsvUrmVoX/2XlJaSs9XUCoCcBBdCjhsAfF5PoaYbkwAl62uvL/mUXt3ac+HgvirKCSEi2KvvfmL6wJ9G9Wrz2K3TiIs99l4Vfr+fnXv2kbM1l81bt7Phz62s2+Rj/Z9bWP+nj+079zD18tC++t+yfSdFxSXV/XGfz+vZq7IfYa3KrADg83re0HTjbeAsFYPOvvtxOrVpRpvmjVSUE0JEoHUbc7jujkdN17l9xpjjTv4ALpeLrIw0sjLS6Ni66T9+/0BePkkJ8ab7sZMs/0eW4z0EWNHVBI55NK2g8BAjJt+Mb5szntgVQoSWnbv3MXLabRzMN/eRdG7/3px8QkclPSUnJoT01T/IK4CRptIBwOf1/IGi1wIBtuXuYsTk+ezbf1BVSSFEBDiQl89FU+abPnI8LSWZGyePUtRVeJAVgMhSlRUACLwRsE7V4L/+8Sejpt8umwQJISqlqKiYy6bfwQ9rzH8MXT/hImpmpivoKnxIAIgsVQoAZVs8XgUoO2bryxWrmDRvEaWl9p/cJYRwrtJSP1fNXchn35g+poTuHVsxYnA/BV2Fl03mzgGQABBiqroCgM/reR+4R2UT//3gM8bPvcfM06dCiDBWXFLCpHn389bSL03XiomO4s7rxoX8/XormFgBKARMHSEogq/KAaDMTMCrspE3PvickdfcQn6BnCMhhPif/IJCLp12G6+++4mSemNHDKFlk/pKaoWTA3n57Nqzr7o/Hgf8qOnGaQpbEharVgDweT1FwHBgj8pmPv5qJcMm3Gj2LGohRJjYs+8Aw666QdkJf53aNGPqFcOU1Ao3m8zd/wdoDHyk6cZDmm4kK2hJWKy6KwD4vJ6NgPJHaL/76VeMMXPYsn2n6tJCiBDi25bL4Ctn8d3Pao6Xz87K4N8LrqvUO/+RyOQDgOVcwDjgJ003+qgoKKxT7QAA4PN6XgfuV9TLX9as20i/i6/h469Wqi4thAgBn33zI2deOp3fN2xWUi82NobFd84gOytTSb1wZPIBwMM1Aj6U1QBnMxUAylwLfKqgzt/s2rOPi6bMZ8FjL8gbAkJEiJLSUhY89gLnX30TO3apu8O4YOY4urRtoaxeOFJwC+BwFVcDTlddXJhnOgD4vJ5DwCDA/Ls5hykt9bNw8cucP/FGpR8GQgjn2Za7i2FX3cDCxS8rDf1jRwzivIGnKqsXrjaqXQGoqBHwgaYbD8tqgLOoWAHA5/XsAQYAG1TUO9xn3/5E3xFT+e8Hn1lRXghhszc++Jy+F03lyxWrlNY99cROXD/hEqU1w5WiZwCOxgWMBb7VdKOdlQOJynP5/eqStqYbzYHPgFrKih7m1BM7cdv0MTSsm23VEEKIIFm3MYdZd/0fn36tfAGRJg003nniDlJTkpTXDkc9/3UV6//cEoyh8oBxPq/n6WAMJo5OaQAA0HSjK7AMSFFauIL4uFimXj6MMSMGExMdZdUwQgiL5BcUct+/X+Hh5/5LUVGx8vqpKUm8vfh2mjasq7x2uCoqKua5/37I/U++wtYdu4Ix5OPARJ/Xo+SQOVF1ygMAQNkDH28CCcqLV9CsUV2mXDaMQf16EuVWcjdDCGGhouISXn33Y+55/CU2b91hyRg1MlJ54b4baNeysSX1w92hQ0U8+/oHLHrqVbbl7rZ6uB+Af/m8nrVWDyT+yZIAAKDpRk8CISDDkgEqaNJAY9Kof3Fu/95ER8mKgBBOc+hQEc+/8REPPfOaZRM/QN3aWby46EaaNNAsGyNSFBQeYuHil3nkudet3qZ9H3CZz+t51cpBxD9ZFgAANN1oC7wH1LNskAoa1s1mwiUG5/bvTWJCfDCGFEIcw4G8fJ7/74c8/Ozrll9NNm1YlxcX3YCWnWXpOJHmt/V/MuP2R/GuXG31UPcC08t2mhVBYGkAANB0oz7wPtDa0oEqSEqI5+zTe3DeWadyUue2cuiHEEFUUlrKJ1+t5OV3Pub95V9TUHjI8jHbt2zC8/fNpUZGquVjRSK/38+Lby1l/qKn2b13v5VDfQkM8Xk9260cRARYHgAANN3IBN4CTrJ8sMPUr1OLYWedxsA+J9KqSQMJA0JYoLTUzw9r1vL6kk95fclnQd2348TObXjq7lmkJCUGbcxItWvPPuYvepoX31pq5TDrgAHyXID1ghIAADTdSASeBoYGZcAjyMpIo0e3dvTu1oGe3drTqF5tu1oRIqT5/X7WrN3I59/9zOff/sRXK1ezb//BoPfRt2dXHrvtWuLjYqv2g34/lBT8/csdA1Hx//tyR1vTdBj4csUqrrvjUWVbNR/BDuAsn9fzjVUDBJOmG2k+r2ev3X0cLmgBoJymGxOBu4Aq/o1Vr27tLNo0b0zzhnVp1qguTRsE/pmRZtkbjEKEnG25u1i70ce6jTms3ZDD2o2b+WHNOquXgo9r+Nl9WDBr3P8e/C3cgz/PB/lbIW8LHNoHJfn4SwqguOJknw8llbgt4YqC6HiISvgrFLiiy8JBdBIk1ILEOrgSakNCdsQFhqKiYh569nXufeJlCg9Zctv+IDDM5/W8Y0Vxq2m60QY4DxgGpALNnfbKY9ADAICmG92AlwgcH+k46anJpKcmk5yUQHJi4CspMYHkpATccgtBhKGi4hLy8gs4mJfPwfwCDuYVcDC/gO25uzmQl293e3+TkhjPreP6YZyQAflb8edtgbytgcndLi43xGfhSqwDCbUhsU4gHCTWhth0+/oKgo0525h00/18/cMaK8oXA2N8Xs8TVhRX7bBJv81hvz3V5/UsDH5XR2dLAIDAkgjwBGDY0oAQIuR0bxTF/efHUz8jhPb9iE7AldIY0lvjymgDKY0DqwthpLikhNsefJaHn/uvVUPc4PN65llV3IwKk/55QNtjfOsOoInP6zkQlMYqwbYAUK7slsCdgLy3J4Q4omg3TDo9jqv7xBIVQnP/EUXF40pvGQgE6a0huSGEycri+8u/ZtJN97PvQJ4V5R8Dxvu8Hks3JagMTTdaE7jKP96kf7jZPq/nFmu6qjrbAwCAphtNgEXAQLt7EUI4S4NMNw9cEE+XBuF11fyX6CRc6a0go00gECSF9vbFG3O2ceXMO/n51/VWlH+DwHMBhVYUPxYTk35FewisAli+xWJlOCIAlNN0YwhwH9DA7l6EEPY7r2sM8wfHkRwXHlfIlZKQjSu7B67aPSG+pt3dVEvhoSJm3/04z73+gRXlXwPOC8ZKQNmkX35Pv7qT/uFu83k9sxTVMsVRAQD+el1wDjAVB7wpIIQIvoY13MweGMeZ7SLryfq/c0Fac1y1e+KqqUO0pUerWOLldz7mujseJb9A+QX7M8BIn9ejfAKzaNKv6CDQ1Of1WHr+cmU4LgCU03SjFYFnA86xuxchRHDUTnMx+fQ4zu8eQ3So3+tXyR2Dq0ZnqN0TV2b7kHqI8Jd1m7hy5gLWbcxRXfpBn9czQUWhCpP+eUA7FTWP436f1zMpCOMck2MDQDlNNzoCs4B/AfKRIEQYykxyMeG0WEaeFEtcJF/0V0ZMCq7sE3HV7h14gDAEHMjL55qbH+TNj75QXfpWn9dzfXV+sOwis/yefjAm/YoKCewL8GeQx/0bxweAcmX/smYCFwLyESFEGEiJdzG6dyxX9o6JrPv8irgy2kLDQYGHCB3O7/cz7/6nePT5N1SXnuHzeu6szDeWzSPly/vBnvQPt9jn9VxhZwMhEwDKabrRGJgOjABkyz4hQlB8DIzqEcv4U2PJSJSJ37S05rgaDg7cHnC4B59+jVsefEZ12bE+r+fRI/2Gwyb9ioqBNj6v53e7Ggi5AFBO040EYDBwMXAGsioghON1bRiF0TmGQR2jZeK3QkojXA0H4crqAjj3/98X31rKtFseoqS0VFXJUuBin9fzPPxt0j8PcHIqesHn9Vxo1+AhGwAq0nQjG7iAQBjoYnM7QogKGme5ObdzDEM7R9OwhjzGExRJdXE1OAdXLT2wTbEDLfn0G8bMukvlOQLFwMPAqTh70q/ID3TyeT0/2jF4WASAijTdaElgRaAPcAqQYW9HQkSezCQXgzpEM7RLDJ3DdQOfUJCQjavhObiyezlyt0HvytWMnHabLSdJOsgbPq9nsB0Dh10AqEjTDTfQiUAYOA04GUi2tSkhwlB0FLSpE0Xn+m5OaxnNqS2iiZZ53zlSGuFucWngHAKHWbN2IxdOmse2XEdsjmeXE31ejzfYg4Z1ADicphtRQBOgBdCy7Kv8P9exsTUhQkqDTDddGgQm/E71o2hXN0pe33M6lwtXnVNxNTkvcJyxg2zybeP8ifPYsHmL3a3Y5SOf19M32INGVAA4Fk03UghsQZxa9pVyhP8cY1uDwgmaAmfb3YTV3G4XqUkJpMWXkB5XTHqii/QEaFLTTef6UXSqH0VmkvOWk0UlxaTgajocV+1eOOlBwdzdexkxaT4//fqH3a3YpY/P61kWzAElAAhRCZpuxANeoIPKuokJ8dww6VJSkxNVlq20qKgo0pKTSEtNIj01mfSkWJJzP4DN74Hf9kPXhJXSmuNuPhKS69vdyV/27T/I0PFzWfWbJQcJOd2XPq+nRzAHlAAgRCVouvEwMFZlzYT4OJ5dOJuTulix3XjV+XO/w7/2OSjYaXcrIlhcblx1++FqdK5jzhrI3b2XIaOv549NPrtbOS6Xy0WXdi0Y3K8nefmF3P7wc2ZLnuPzet5S0VtlSAAQ4jg03fgX8LLKmvFxsTyzcDY9uzpgX5JDe/D/+gT+nT/Y3YmwS2w6rhYjy/YPsJ9vWy6DR88iZ2uu3a0cUfuWTRh8Ri8G9e1JvdqBExuLikvofd4ENvlMnfHzA9DZikOOjkQCgBDHULbz5PdAmqqacbExPH339fQ+QendhGrx7/4Z/5pH4dA+u1sRDuCq1x9X0+GOOGzoj00+hoy+ntzde+1uBYBWTRswqG9PhpzRi0b1jvzM+ItvLWXK/AfMDnW+z+t50WyRypAAIMRRaLoRA3wOdFdVMzY2hicXzOTUEzupKlk9/lL8G17Dv+lNkM8AUVFKY9xtJ0B8lt2dsPr3DRjj5ti2T0CTBhqD+/VkcL9etGh8/GclSkpLOWX41WZvX/wKtPV5PZY/hCMBQIij0HTjbmCqqnoxMdE8ced1nN7D5mXWwj2UrnkI9vxqbx/CuaITcbW6AldWV7s74dsff+H8q+eRl18QlPHq16nFoH49Gdy3F+1aVn3fhNfe/5Sr5i4028ZlPq/n32aLHI8EACGOQNONs4A3UfSeVHRUFIvvmE6/3soWE6rFv+unwJJ/0X5b+xChwSm3BJZ//QMXT72FoqJiS+rXrpnJOaf3YPAZvejStoWpWqWlfvpcOJnf1ps66Xcj0MLn9Rwy1cxxSAAQ4jCabtQl8DBODVU1b77mCi4bNlBVuarzl+Jf/yr+TW8T2H5ciEpyyC2Bd5Z9xZhZdyk7QCgrI42zTz+JQX17oXdqjUvhVslvLf2S0TMXmC0z0ef1mH6g4FgkAAhxGE033idwnoQSFwzqy93Xj1dVruoKd1O6+iHY+5t9PYjQ5pBbAi+9vYwp8x+guvNWemoyZ556IkP69aJHt3ZEua05KMnv99Pv4mtY/fsGM2W2Ak19Xk+emq7+SQKAsJSmG3E+r6fQ7j4qS9ON8cCDqup169CKVx+aR0yMTfvk7l9P6Y93y5K/UMLVaAiuRufa2sPCxS+z4LEXKv39KUmJ9D+5O4PP6M3JJ3QkJkiHVCz59BsunXab2TLX+byeO1T0cyQSAIRlyo5pzgE2AWsO//J5PY46/UPTjebASkDJtnx1atXg3ScXUKtGuopyVebf9TP+VfdDScjkLxECXNqpuJqPtO2YYb/fz+Uz7uS9T45+dk5CfBz9endjcN9e9OnRhbhYe3ZxHzhqOitXrzVTYhfQxOf1WPIupAQAYRlNN0YBTxzjW7Zx5GCQE4T2/qbsoKjPAV1FvbjYGF5/7FY6tm6qolyV+bd9if+X/5PtfIUlXFldcbUZB257JtYDefkMHDWdtRv+91ERGxtDn5O6MKRfL/r26kpiQrwtvVW07MvvGTF5vtky831ez1wV/RxOAoCwjKYbHqA664X7gF/4Zzj4w6p3YzXdmA2Y/pta7oGbJmMMOFlVuSrxb16Cf+3zyMN+wlLpLXG3mwzR9pxjsW5jDoOunEWXts0Z1K8XA045gZQke3o5lsGjZ/HND7+YKbGfwCqA8m0RJQAIS2i6EQfkAskKyxYCv/PPYPCrz+up9kvCmm50Ab5C0WmP40YMZs7VI1WUqjL/Hy/j3xS0rcRFpEuqh7vDtRBnz22u4pISoqPs37XwWD779ieGXXWD2TJ3+7yeaSr6qUgCgLCEphv9gfeCNFwpsIEj307Yc6wfLDvl7zugjYpG2rVszNtP3Bm0B43+4i8N7Oe/9dPgjitEfBbuDtMg8cjb4wr417i5fLHiZzMlCoBmqm+P2vRosogAZwdxLDfQpOzrrIq/oenGVo4cDMr36rwVRZN/TEw0991wdfAn/9JD+Fc9hH/n98EdVwiAglxKv78Fd/upkNrE7m4cafrYCxgy+nozJeKB2cA4NR0FyAqAsISmG+uBRnb3cQz7COy53Q1Fu/3NGHshk0b9S0WpyispoPTHu2Dv78EdV4jDRcXhajcJV4Yzjrd2mgsnzePjr1aaKVEEtPJ5PX8oagl73uMQYU3TjXY4e/IHSCVwyI+Syb9Tm2ZMGGmoKFV5pcX4f75PJn/hDCWFgT+P+5TNT2Hl2tEXmC0RA9xovpP/kQAgrHCO3Q0EU2xsDPfOnWjZrmJH5PfjX/Mo/t2rgzemEMdTUkjpT/dA3ha7O3Gczm2bqzgLZISmG0puWYIEAGGNYN7/t930MRdU6qhQlfy/P41/x9dBHVOISinaH7gtVeiofb4cYfro882eOeBG4evKEgCEUppuZAEn2t1HsHRt35KxFw4O6pj+Da/h9y0N6phCVElBbiAEFFu2jX1IatuiMQNPNf3xaGjdmuw/AAAgAElEQVS6oeRQBgkAQrWBRMifq/i4WO6bOxG3W90pYsfjz/kI/4bXgzaeENV2cDOlPy2EUktPtA0500afr+Iz42YVvUTEB7UIqohZ/p85/iKaNNCCNp5/x9f41z4TtPGEMG3vb/hXPwR+NUf4hoOWTeozqG8vs2UGaLrR22wRCQBCGU03YoD+dvcRDHqnNlw+7Kzjf6Mi/t2r8a95FOS1XRFi/Lnf4//t33a34SjTrhyu4qHhW8wWkAAgVDqZwOt1YS0xIZ6FcyYEb+l//4bA61WlxcEZTwjF/FuW41//it1tOEaTBhpDzzzFbJnemm4MMFNAAoBQKSJe/7t+wsU0qlc7OIMV51G6ahGUVPuoAyEcwb/xTfw7vrW7DceYcvkwFecYmHoWQAKAUCns7//36taeS4eaCt1V4v/lcShQfgiYELbw/7oYCnbY3YYjNKybzfBz+pgt01XTjWrvQCYBQCih6UZroKndfVgpOTGBe+ZMMPseb6X5cz7An/tdUMYSIiiK8yhd9SD4LTnVO+RMHnUeMTGmj+SZr+lGteZyCQBCFdNX/xlpKTyzcDY3Th7FJUZ/enZtR3ZWporelJg7aST1atcMzmD7N+Bf95/gjCVEMO1fj3/di3Z34Qh1a2dx0eB+Zsu0AUZU5wflMCChhKYbywFTr6UMP7sPC+dM+MevH8jL549NPtZt9LFuYw5rN+WwbqOP9X9uIS8/OPfG27VszJKn7w7KWBTnU/rdXMjfHpzxhLCBq90kXFld7G7Ddttyd3HiueMoPFRkpswfBA4KqlIROQ5YmKbpRibQw2ydM0/Vj/jryYkJdGjVlA6t/n6Hwe/3s3XHrkAo2Ohj3aYc1m0MhIOcbTsoLVUXbqddeb6yWsfj/+3fMvmLsOf/5XFc3eZBfJbdrdgqOyuTkUMH8NgLb5op0wS4HHikKj8kKwDCNE03RgDPmqmRlBDPz0ueIi42RklPhYeKWP/nlrJQ4PsrGKzdlMO+/QerVKt9yya8//RdSvo6Hr9vGf7fngzKWELYLrUp7s7Xg8v00/AhLXf3Xk48d5zZFc0coJnP66l0EVkBECqYvv/fp0cXZZM/QFxsDK2aNqBV0wb/+L3c3XtZtzHnr9sKazfmsG6Tj005Wykq/ufDSdOuHK6sr2M68Cf+tc8FZywhnGDfOvx/vIyrafBW2JwoKyONy4YN5IGnPGbK1AWuAip9r1JWAIQpmm5EAzuAdDN1Hpo/hSFnmN7Z0pTikhI25Wwre84gsGpQVFTMfTdcbf3gJYcC9/3lGFURgVztp+Kq0dHuNmy1c/c+upx9+REvQqogF2ji83r2V+abZQVAmNULk5N/TEw0p/dUcriVKdFRUTRpoNGkgYbp53KryL/xvzL5i4jl/+1JXCfcDlFxdrdii225u7hqzr1mJ3+ALGAylTwyWF4DFGaZXv7v3b0DKUmJKnoJTXlb8G9+z+4uhLBP4a6IPeVy6Rcr6HvRVL5Y8bOqkteUPZh9XBIAhFmmt/9VcD52SPP//rTs8y8inn/z+3Awx+42gqaouIT59z/FxVNvYefufSpLpwHTK/ONEgBEtWm60RxoYaaG2+3ijJO7K+oo9Pi3f4V/92q72xDCfv4SSn9/yu4ugmKTbxtDRs/i4ef+i0XP4U3UdOO4B5ZIABBmmL76P6Fja7Iy0lT0EnqK8/Gvfd7uLoRwjj2/4t/2ud1dWOrNj77gjIuv4ftVv1s5TCJw/fG+SR4CFGaYvv9/ZgQv//s3vAqH9trdhhCO4l/3H1w1OkN0eD0XVHioiLn3LOaZ15YEa8hWx/sGWQEQ1aLpRhomt/6Fo+/+F/YObMKf85HdXQjhPIf24V//it1dKPX7hs0MvHR6sCZ/P3ArcNxjS2UFQFTXAEz++WnfsknwDtdxFD+lvz0J/lK7GxHCkfy+pbhqnwwpjexuxbQX31rKrAX/R35BYTCG2wFc7PN63q/MN8sKgKgu80//nxaZy//+Lcth3zq72xDCufzlITl0N6o7kJfPhBvuZcr8B4I1+X8KdKrs5A8SAEQ1aLoRBZxptk5ELv+XFOL/42W7uxDC+favx7/tC7u7qJaffv2D/pdMw/Pe8mAMV77kf5rP6/FV5QflFoCojh5ApTaaOJqmDevSonF9Re2EDr9vGRRVapdOISKef9ObuLJ7gMtldyuVtvjFt5m36CmKioKyt0eVlvwPJwFAVIeCp/8j8Oq/tBj/n+/a3YUQoSNvC/7cb3DVPMHuTo5rz74DTJn/AO8v/zpYQy4HLqjqVX9FcgtAVIfpABCJu//5ty6HQ3vsbkOIkOLf+KbdLRzXNz/8Qt+LpgZr8i9f8u9jZvIHWQEQVaTpRhOgjZkadWrVoGPrpoo6ChH+Evyb3ra7CyFCz4FN+Hd+H9gbwGFKS/0seupV7nrsP5SUBuWtHlNL/oeTACCqSsnyvyuE7ump4N/2BRTk2t2GECHJv/FNxwWA7Tv3MOGGe/nsmx+DNaTpJf/DyS0AUVXy+l9V+f34N71ldxdChK596/DvXmV3F3/5xLuSviOmBGvyV7bkfzhZARCVpulGCnCymRqZ6anonUzdQQg5/h1eyNtqdxtHVFQC2/aVsm2fn237/GzdV0pBMWSnuMhOdZOd6qJ2qouUeOev2Lz9UzG/bjV9nnq1xcW4yE5xUSvVRe2y/+/SEuz5/+2lb4vYvNsZG00ZXWJoVMP8taZ/4xu4Mtoq6Kj6iktKuPPRF3jw6desOsTncDuAi3xejyVbCEoAEFXRH4g1U+CM3t2JckfSwpPfUQ8x7Tjg58PVxby/upgVm0rYneev1F4ribEumtV007d1FGe0jaGd5rx/h2//VMQbPzjrWOXmtdz0bxvNgLbRdKwXFbS32V76roiv/rAvDFXUpUGUkgDAnl9g7++Q1tx8rWrYvHUH42bfw3c//RqsIZUv+R9OAoCoCnn9r4r8ud/Dwc229rBhZynv/Fz8/+3dd7gU5fXA8e/c3uh96EUEBKwwdrADFnSNxkTFn8YETTD2RCMajWLvvfeChYkgtgAqShtFmgJKLzL0Drffnd8fe1H6vbvzzs7M7vk8Dw/IvXPeA7L7nn0r/5sd6/SjCXxwKS53mLWiilkrqnh4bDkt62dwarcsTu2WxTGdMskI/gCBL+aviTJ/TTlPfllOs7oaF/TK5so+ORTlyl9YIpylI9F63pD0dj/9yuK6u55i89ZtyWhux5D/v23L9LSKkwJA1IpuRDKAAW5iFObn0af3wYoyCgc/9/2v2BTlgf+VY06rSKjTryn2K5PKeWVSOV2aZzB0QC59D5S3k/1ZvcXhsXHlvDmlgmtPyeWi3tlkZfqdVbg4G35A274CClsmpb3y8grueOxVXvkgaa9jT4f8dxe8cTwRVAbg6uaek445nJycbEXphEDJWtg8L+nNbilxGPZJGcc/sJ0Pvlff+e/up1VRLnq5hAteKOZHOxjzzkG2frvD0A9LOeHh7ViLgzFMHybO6olJaWfRMpvT/3RTMjv/r4md5Z+0+4KlABC15X71f5od/pOsN6pf23PgxQnlHH3/dp4ZX05ZkqfDJyyoov/j2/n78FLWbgvvJS7JsnhdlN+/UMzb31b4nUqoOKsneX5J0PuffMVpg25g9rzFnrZTzQGG4cEq/5rImJ2oLVfz/zk52Zx4zGGqcgmFZF5ksr3c4erhpXw2299FcI4D5vQKpiyu5OVLCgK5WDBIKqvgHyNK+WlVlH+fkUum/HXVrGwjzqY5nu0IKCuv4B/3PENZeVIKs6QO+e9O/rmJGulGpC3Qw02M43v1pKggX1FGIbBlAZSsTkpTyzdGGfhUse+d/87sTQ7nPF3Mxz8EJ6cge3liOYPfLPF8uiZleDi6lpuTzVGHJWW7YdKH/HcnBYCoDVn9HydnVXKG/63FVZzxRDE/rQre3HtJhcMVb5Xw8JiyMF/rnjSfza7k3k+Tcm986Dlrv4cq7/6uTjza09FK34b8dycFgKgNVwVAZkYGpx0f/Nu8lIlWxg7/8dhnP1by+xeKWb89uL2r48DDY8u55r1SKQJq4enx5YyYJmsCalRVirPue8/Cn3iUZwXAWqCfbZlDvd7iVxtSAIj90o1IIXCCmxi9D+lKw/p1FWUUfM6GmVCx3dM2ZttRrhpeSqXvbyG1M2JaBY+MK/c7jVC4cUQps34Jyf9YP3k4DdChjU67Vs1Vhx2Pz0P+u5MCQNTkFCDXTYB0W/2Px8P/67Y5XPZaCSUV4fpI/cjYMkbPkjUBNSmvhFtGylRATZyNs6HMu+u1TzhS2eVDUWJD/if5PeS/O9kFIGrievtfWs3/V2yPjQB4Fb4KLn+9hBWb1Mz5axp0aZ6BXi92dn2zuhp52Vr13QBR1mx1mGNH2V7uvthwHLjmvRLaNCqgZ0v/T8C5oFc2XZqr+wy0pRR+XFHFDyuqWLnZ3d/X9GVVfDSrkjN7JvYWfenROfQ7qPb/Rp4ZX87qLbXP+ZqTcqhfULvTDDs19ehzpuPgrJmM1rq/J+GP6NlFxRkAa4hd3xuYT/07kwJA7JNuRDTgdDcxsrOzGP3FZC4+51Ty81wNJISCs9aCqHefcm8yS5m61N3wcG4WnNgli5O7ZnFSlywaF+3/jby8EiYvqmTs3Co+m13hqnMrrYDLXivhk6sKaVrH3+NwT+4aO6PfC+u2OUxdUsXdn5axaF1ixdq9n5XR/6CshE4LPL1HfH+u96ZWxFUA/L5XNq0b+D+A7Kye6FkBcOhBnVSEuTSonT/IFIDYv15AMzcBKioquf3RV+h99mCeev2/bCsuUZRaQK2b5lnoCQuqeHdq4gvEMjQ47/BsvrmxiBcuzuf3R2TX2PkD5GRBn85Z3Dkwl0n/LOKOM3NpWJh4571qc+ykwlTWuEijX/csxlxbyN/65pCVwDvt0vVR3pJDgvZv23IoXedJ6HatWlC/bpHbMK62T3tNCgCxP663/+2wfuMWhj31Br0HDubhl95jy1ZvF8n5wqnC2Tzfm9AOrjrNQ9tk8vnVhTxyfh56/cQ77+xM+NOxOUz8RyFXHJ+T8O12/51ewdyVwdu6qFpuFtzcP5fRVxUm9In5v9OlAKiJs2muZ7EPPcj1zYNHqcjDK1IAiP1xPf+/u01btvHg88PpffZg7nv2bTZu3qq6Cf9sWQRVpZ6EHjmzgh9WJDb0/4de2YwYXEDXFupe7nXyNIaenstzF+ZTkBN/FRB14O402vPeXc/g0d/nxV0wTVtWJccq12SjhwVAt9QuAFJiDUCL3ufemqElPlddpXHNqikjpqjMKex0I9IKOMSr+Fu2FfPYKx/w4vDRXHJuP664aCCNG9Tzqrmk8OqTSHkl3PdZ/FvoNA3uHJjH/x3l3QVMA3pk0aFJARe/XBz32oAvf65k8qIqjurg/4LAZDDaZzLoyGxem1z7T/VRB8bMqeSPvdPoEq04OZvm4NVqkkPcjwA01Y1IR9syF6rIR7WUGAHI0JyODo6R6I+MqFPf7z9DACkb/t+f7SWlPP3mh/QeOJjbHn6Z1es2JKNZb2yc40nYVyeXs3xj/MPl156c62nnv0OX5hm8dmkB+dnxvw3f9XH6jAIA/GtALi3rx/e2+3mAjngOpLKNULzKk9AKRgAgwKMAKVEACE8kpQDYobSsnBffHY1xzpXcfP/zrFjlzcIez0QrcLYs8CT0KxPjnwfud1AW156U40E2e9etRWJD3DN/qWL6svQ59KYwR+PPx8VXlCU69ZNOnE3eFN+NGtSldYumbsMcrSIXL0gBIPagG5EC4EQ/2i4vr+C1EZ9x9LlXcv2wp1nyizeVvWrOlgUQVb9ga+7KaNyf/ls1SKwzduv0Hllcfmz8Rcfnc9LrE26POM9AWL/doSr110u6IwsBEyIFgNibTOAFwLc9exWVVbwzaizHnTeEv9/+GAuWrPArldrxaPg/kRv+bjglh6Jcf/bYX3tSDvXy42s73Ya4u7XIiKs4q4rGzhUQ++ZsnEvsjh31DnE/DdBDNyKu9xN6QQoAsQfbMrfalnk10AF4CPBtz15VNMoHn46n7x/+zhVDH2LuwqV+pbJfXi0A/F+cn467NM8gcph/C8bq5msMOSG+UYD5a6IsTvCwnDCqk6fFvSVw9db0+ftJSMVW2O7Nh4TDursuADKBQN6GJgWA2CfbMlfZlnkD0A64B/Btz1406jBqzEROvvA6/vTP+/jh50V+pbKnqtLYFkDF7E1O3PO/15+SS4a/B+xx2TE5NIrzoKB0mwboGucRxGu3yghATRyPRuF6HNiBDPcvqkBOA0gBIGpkW+Y62zL/BbQF7gC8u4GjBo7j8OlXFqcNuoFB1w1j2ux5fqXyW06b54GjfqHWuJ/i6xQLcjRO6uL/zt7crNgxu/EYOze9CoDcOAdpKmQdYM08WgiYn5dLs8YN3YYJ5ImAUgCIWrMtc6NtmbcTKwRuAXxdqj924veccdlNXHDVHVgzvHnx18rWJZ6EjfcM+T6dM8nxv/8H4i8AFq2VIW7hjuPR6xCgje7qRHSA9iryUE0KABE32zK32JZ5N7GpgRuB1X7m8/W3Mzln8FDOvfJWJnw3K/kJFK/0JOzqLfF1iqd2C0jvDxzfOZPsOBa7y0p34VrZRs9O4mzdoonbEO0UpKGcFAAiYbZlbrct80Fi1e01gK9L9SdPm835Q27nzMtv5otJ3l3KszvHswIgvnnfIFyxu0NhjkaHJrV/e5GV7kIJjw4EUjAC0FQ3IoUqclFJCgDhmm2ZJbZlPgZ0BP4K+LpU//sffuaia++i3yU38tl4C8fxuGMp8eZNZ1WcBUBjn6/X3V3zunGudI9zxEOI3TkevRZb664PA4IAjgJIASCUsS2zzLbMZ4ADgMsBX8+/nvXTQi77x32cfNF1jBo70ZtCoHwTVHpzXEI8HWJWBjQsCFYB0DTOgiTegkeIPXg0GqeoAAjcOgApAIRytmVW2Jb5EnAgMAj42c985i5YyhW3PERxqfpz5x2Phhy3lDiUxnGwYINCLekn/9Uk3gIg3ikPIfbgUQGgYAoAZARApBPbMqtsy3wD6AZcAPzoVy7NGjegMD9PfWCP3nDK4twVl5sVsN6f2HbAeJRVSgEg3PFqPU6Lpo3IynS9xkZGAET6sS0zalvmu0BP4FxgerJzaN+6hTeBPXrDEUIkoGQ1XhwJnJmRgd6ssdswgSsAgrNvyIXyKu3mHLR7E32+qmLrcpX5iL2zLdMBTMDUjcgZwK0k6YjMDm10bwJ7tOhIiJ0FbXonsKrKYtsBc10f3LOH1i2asMx2teNZCgAvrJ06YiUgH8VCxLbM0cBo3YicSqwQONbL9jp4NALg1ZCjSG2rNsf3KbWOT5c7hZFTvBLNiwJAbwbfu5rFbKcoFWVkCkD4yrbM/9mWeRxwAvCFV+20bdVcfdBoJZT6ehiiCCHHgTkr49vy2KyuFAC15lFR3sr9YUD1dCMSqP+RUgCIQLAt8yvbMk8CjgE+Ux2/bqEHZ3CUrgNH9q6L+CzdEGVbWXwjAFIAxKFkjSdh6xW5fg/RgAIFqSgjBYAIFNsyJ9mW2Z/Y2oCPVMUtLPRgB0CVN/v/RWr7cUV8RWNBjkaRTAHUnkevy4L8XBVhAnUaoBQAIpBsy/zOtsyzgEOBr9zGK8zPd53T7hyPDgASqe2refHt8WxZXzr/uFR6cx9AgZptxIEqAFJiEaBIXbZlztCNyAigr5s4hQVejAB480aTiK2lDk99Ve53Grv4doncYbs7a3EV706N44Qn4PjO8jYdF89GAJS8hxSpCKKK/MsSYZDjNoAnhwAFqADYXOJwz6fqTzoU6pRWwA0flBLvidSnBeiWxzBwqkrxYswkFUcAZApAhIHrAqCoQP0UQJAKABF8D/yvjMXr4pv/r1+g0bt9cG55DAWPXpcFeam3BkBKSxEGrgqA7KxMsrM9+KcuawBELWwsdrhtVBn/nR7f0D/ASV2yyJKPafGRNQC1JgWACANXBUCBBwsAgdipY0Lsxyc/VHLLh6Ws3Rb/8bSaBpcfm+1BVinOqxGAFNwFIAWACANXBYAnCwBBpgDELqIOLFkf5ccVUX60q/h+aRXW4sQXQp5zSDY9Wsrwf9w8mwKQEQAh/OCqAPBk/h+kAAi5694v5WZTXbzt5VBcruYimtws+Gc/10tf0lO0Apwq0NQWT4o+SHj0ZpQYKQBEGAR0BEDWAITZlpLgXj98+bE5tKwvk/8JqyqFLLUftvNyc8jI0IhGXf27ifOib2/JvzARBu4KAC+2AIJni41EejusTSbXn6Jkvjl9efTazM91/f8lUAuHpAAQYRDMsVBHDroRajWvp/HSoHxyZGzWHY9emxVVruNKASBEnFxN5hWXePSay/RoZEGkpdwseHlQPk3qyNG/rmWqH0GpqKyivDz+rZy7CdRxnVIAiDBwNdleUioFgAi2whyN5y7Kp2crWfWvRKb6tXbbi5Ws+QnUCIAMNIkw2O7m4eJSj+bqPfiUkah6+Rp/7RusmZJv5lcyYYFMk9SkdYMMXr4kn64t5POYEpoGmepfC9ukABDCF64KAM9GALKCs6OnTp7G3wJWAJRVOFIA1MBon8nzF+fTqFCG/ZXxaGRu23YlBUCgpgCkABBh4G4EQNYAiIBpVKhx9Uk5DDoyhywZ9VfLo9elTAEI4Y9tbh6WNQAiKApyNP5yXDZX9MmhKFc+9XvCqxEAKQCE8IWrEYCqaJTy8gpychSfqy4FgKiFrAzo3T6TfgdlcebB2TQpko7fU8EuAGQKQIg4uSoAAErKytQXAFlSAIjfZGjQuEijWd0MmtXVaFZXo1fbTE7umkX9Aun0k0XzaG2OojUAN+hG5B7bMn9SEcwtKQBEGLguAIpLyqhXp0hFLr/xYKuRSJ5nL8znlG7q3gKzM2NFgPCZRyMAxSVKdhMNAi7WjcinwMO2ZY5TETRRUgCIMHA/AuDBOgAtM4/gniYvapKVGTt8R6SYYE8BAGjAAGCAbkRmAQ8D79iWmfTpAdl4KsJAyQiAcrIGQIjg8WwboCfnifQEXgWW6kZkqG5EGnnRyL5IASDCYIPbABs3b1WRx65y66uPKYRwx6PX5YbNWzyJW605cCewXDciz+pGpIuXje0gBYAIg6XgbrR9mb1aUSo7ya6j/MpRIYRL+S08Cbv0l1WexN1NPjAYmKMbkdG6ETnRy8akABCBZ1tmGbDSTYxl9hpF2eymoLk3cYUQCdE8ek0u/sXVW1C8NOB0YJxuRGboRuQS3YgoP+pTCgARFovdPLzU9qZ61wq8+bQhhEiEBvnqC4Dy8gpWrlmvPG4tHUxsncAS3YjconKdQEqsgW3R+9xbMzROT/T5Ko1rVk0ZMUVlTkK5xcAxiT683LMRACkAhAiMvIaeXAS01F5NNOr7np8WwF3ALboReQ141LbMn90ETIkCIENzOjpgJPx8FFnNFXxL3DzsyRoA8OTThhAiMZpH8/+r17peh6xSPnAFMFg3Ip8QO0/gi0QCyRSACAtXUwDrN25hu5qDPHYhUwBCBIhH8//H9urJh88P49hePT2Jn6Dd1wkMinedgBQAIixcFQDg0ShAfrPY/eNCCP95WJD3Prgr7z15exALAYitE3iNONcJSAEgwsJ1AeDJOoCMLMhrrD6uECJ+SdiVE/BCYMc6geW6EXlGNyIH7u+bpQAQYfELUOkmgFfrALyadxRCxCeZr8WAFwI71gnM1Y3IR/s6T0AKABEKtmVWEisCErZshewEECJlZebEdgEkWcALAQ04g9g6gem7rxOQAkCEySw3Dy/1aidAYUtv4gohaq9AJ9bf+SPghQDAIfy2TuBfuhFpJAWACJPJbh5esMTVAMI+afX2O80mhEiCoLwOQ1AItACGAVOkABBhMsnNw4uXr2Tz1m2qcvlNQXPIbaA+rhCi9hp08zuDXYSgEBgrBYAIk6m4XAg4Y84CRansSqsfrDcfIdKKlhGYEYDdBbgQ+FAKABEatmUWAzPdxJj243xF2eymQVdv4gohalanPWTl+53FfgWsENgCfCkFgAgbV+sAZszxpgCQEQAh/KPVD08BHpBC4BPbMsulABBh42odwPTZHo0A5DWC/CbexBZC7F8IR+B8LgQ+BNkGKMLH1QjAuo2b+WXVWlW57EJGAYTwQUYWWr3OfmeRMB8KgXLgU5ACQISMbZlLgFVuYng2ChCwVchCpIW6HSFD/RXAyZbEQuBL2zK3QIpcB0xV5Q1OdubtiT6epWV7dEKM8MgkIJLowzNmz+fMk45WmE6MVr8rvt8YLkSaSbWRtx2FwLcz5/LgC+8y4TtX55/tzYc7fpESBcCKqaPWAev8zkMkzVw3D0/3aCEgOfVipwJuX+FNfCHEHrQQzv/XhkeFgAOM3PEfMgUgQkM3IppuRG4E/ukmzqyfFlEVjSrKaleaTAMIkTyZeVCno99ZeGrnqYGszEy34b61LXPljv9IiREAkfqq77d+DTjdbaziklLmLVpO105t3Se2G63pUTi/jFEeV4h43P95GT+vqn2Ru3xjfJNX/xxRRn527b732lNy6a5781lTa3JE7EruNFCQl0dlVZXbMB/u/B/p8TcnQk03IkcDw4HWqmJOmTHHkwKAuh0hvxmUyLIS4Z9vl1QxZZHrzmKfvp5f+wM5Lz4yG88Gm5sd403cABo7caqKMLsUADIFIAJrpyH/8Sjs/AG+nDRNZbhdaM3T501JCN/kNgzVAUBujZ3wvdsQP9uW+dPOvyEFgAgk3Yg0BEYB9+PBSNXE73+krLxCdVgAtGZH4+e1pEKkA63ZUaClx+ts3cbNzJjrevHyyN1/QwoAETi6ETkKmA6c4VUbJaVlTJ4225vgeU2g3gHexBZCAKCl0fD/F5OmEY263mT84e6/IQWACIzqIf8bgK+BNl6394VMAwgRTnXaxbbcpomxE1zP/68Cpuz+m7IIUARC9RgF2mIAACAASURBVJD/a3j4qX93M+Z6czUwgNakN878NyCa2O3FuVlwWrfavzwbFQVvKLRj08y4/gxtG7n7PHJwq0zK4pjVaVYneH9nonZi02zpoaKyivGWq0tQAUbZlrnHEIIUAMJ3uhE5EniXJHzq36HvkYfwxO3XeNdAVgFao8Nw1n6b0ON18zVeuiTY15vWZODBWQw8OHlvMYOPz2Hw8UlrTvhFy0RreqTfWSSNNWMOW7cXuw2zx/A/yBSA8JluRK4nSUP+AFmZmQwdcjFvPXorjRrU9bax5unzKUWIZNEado+dupkmxk10vfp/K/DF3r4gIwDCF9VD/q8CZyarzdYtmvL0XddxePfk3BymNeyJk10HKrYmpT0h0kIaDf8DjHE///+pbZlle/uCjACIpKse8p9OEjv/0084ijFvPJS0zh+IDVW2kDFpIZTJqYfW+HC/s0iaxctXsmiZ7TbMHtv/dpACQCSVbkSuI4lD/rk52dzzj7/wwr03UrdOYTKa3IXW6rSUuKpUiCDQWveDjFqeQZwCxrof/q8APt7XF2UKQCSFbkQaEBvyPytZbXZq15Lnht3gzZG/tZVTD61FH5wVcj+ASJ47zsxjS2kwLqfu2lzR58zsQjT9RDWxQkLB8P9XtmVu3tcXpQAQntONiEFslX/SeuLzTz+Bu2/8MwX5eclqcp+0NgNwVn6Z8JZAIeJ1kEeX7/hJa3lq7Pa/NLGtuARruuvDyva6+n8HKQCEp6qH/O8FkjJuV5ifx73/HMy5/fsko7nayW2I1uxYnJVf+Z2JEOGUlY/W6lS/s0iq8dYMKipdXejksJ/5f5ACQHjEjyH/gzq357lh19OhjZ6sJmtNa3MGzqqvwan9Fa1CiBhNPwmyCvxOI6kUXP4z1bbMFfv7htQbJxK+qx7yn04SO/9LzxvAxy/dG8jOH4D8Jml1eIkQymTmxBb/pRHHcVQcVb7fT/8gIwBCMd2IXAvcR5KG/OvVKeKRW/9Gvz5GMppzRWt7Js7qycRG5oQQtaG1OAGy6/idRlLNmLOAtRs2uQ2z3/l/kAJAKFI95P8KMDBZbR7RswvP3HkdLZs3TlaT7hToaE0Ox1nremWvEOkhIwutdX+/s0g6Baf/LbAts8YVhFIACNd0I9Kb2Cr/dsloT9M0hgyKcOPgC8jKzExGk8pobc+SAkCIWtKaHwe5DfxOI+kUbP+r8dM/SAEgXNKNyDXA/SRpyL9Jw/o8ccfVHN/74GQ0p15RW7QmR0gRIERNMnPQ2iTtsNDAWL1uAz/OW+w2jBQAwju6EalPbMj/7GS1eVzvnjx5xzU0aVg/WU16Qut0Ic6GH6Bqr8dzCyEArc1ZkNfI7zSSbtzEaTiOq3VCa4DJtflGKQBE3HQj0hj4jiQN+WdlZnLDXy5gyKAIGRkpcId7bkO0tgNxFr3ndyZCBFNBi7Sc+wclw/+jbMus1X5j2QYo4mZb5jpgbTLaatm8MSOeuZO//9+5qdH5V9Na94PCln6nIUQgaQcMgoz0+3xaXl7BN9/Nchumxu1/O0gBIBI11OsG+vUxGPvmw/Q6uIvXTSWflknGAYP8zkKIwNGaHonWoJvfafhi0rTZFJeUugmxHRhb22+WAkAkxLbM/wHjvYidk5PNXddfzsv3/5N6dYq8aCIY6ndBa3aM31kIERxZ+Wid/uB3Fr4ZO9H18P9ntmXWuoKQAkC4cYvqgO1bt2D0i/dy2fkDVIcOJK3j79PuiFMh9kVrF4GccC/ydUPB8b+1Wv2/gxQAImG2ZU4EPlUV79z+ffjfGw/R/cD2qkIGX049tPbn+p2FEP4raoPW8mS/s/DNvMXLWWavdhOiEvg4ngekABBuDcXl2bYF+Xk8cusQnrj9agoDcH1vsmn6SVCnnd9pCOEjjYzOl4CWvl3SWPen/423LXNjPA+kxDLLlkbkVQcuSTiAQ3/7W/MzhSmlDdsyp+lGZATwu0Rj1K9bxDmnHqcwq5DRNDI6/x/RaXeAu/2/QoSS1qIP1O3keTvf/ziPi665i/atm9OxbUs6ttF//blDG5283BzPc9iXsUk6/W9nKVEACN/dBpwDJHQur716HW+NHMOl56XHvP9e1WmP1vZsnCX/9TsTIZKroHlSFv6VlVdwzX+eYPPWbcyYs4AZcxbs8nVN09CbNaJjm5Z0bNuSTm13FAct0Zs1QtO824a8ees2ps762W2YWm//20EKAOGabZlzdSPyJi5GYR5/dQR/OOtkXytwv2ltB8Kmn3A2zfU7FSGSIyObjG5/g0zvp/7ufeYtFi5dsc+vO47DilXrWLFqHV9/O3OXr+Xl5tC+dQs6tW2568hBW506he4X8X41ZQaVVVVuQkyzLXN5vA9JASBUuQP4IwneCbB63UZe/eAzrrjwLLVZhYmmoXW7EmfqUCjf4nc2QnhO63QhFLXxvJ3vZv7EC8M/Svj50rJy5i5YytwFS/f4WtNG9enYtiUd2ujVowc6ndq2pLXetNaXlSXr8p/dSQEglLAtc7FuRF4Erkw0xlNvmAyKnEpBGi4E/FVOPbSug3FmPojLtZVCBJrW1EDTT/C8ndKycq658wmiUW9eT2vWb2LN+k1Mnrbr7bvZWZm0bdX81ymFjm1a/Dql0KhB3V+/ryoa5cvJ092mIQWA8N1dwP8B+Yk8vH7jFl5672OuuiS9t8VpDbpD2zNwlib+iUWIQMtvhnbgZUlp6pGX3mfx8pVJaWtnFZVVLFiyggVL9px2qFen6Nc1BkWF+WzcvNVNU4tsy/whkQfTd8+FUM62TBt4yk2MZ94cydbtxYoyCi+tXQTqdfY7DSHUy8gi46DkzPvPW7ycZ99K6MOxpzZv3cb3P87jvY+/5OX3PnEbLuE/oBQAQrX7gITL2U1btvH8O/LJFy2DjG5XQnYKH4Us0pLW8Y9Q1DYpbd1033NUVLpaXBcGUgCIYKi+KfARNzGef/sjNm/dpiijEMttiNblL0Dq3IIo0pvWpDday5OS0ta7o79gyvQ5SWnLR+uASYk+LAWA8MJDwIZEH966vZin34h7S2tK0hodjNYmjc9HEKkjifP+m7Zs484nXk9KWz77yLbMhIc4pAAQytmWuYXYVEDCXn7vY9ZvlK1wAFr789CaGn6nIUTicuqR0fNGyEpofXDc7nrydTZsSov3D1cLHKQAEF55EliV6MPbS0p56g1TYTohpmloXf4S2x0gRNhk5ZPR8wbIb5KU5r6b+RPvjBqXlLZ8VgyMcRNACgDhCdsyi4ltC0zYqx98xup1cd1tkboystC6XwV10uimRBF+GVlo3a9OymE/AJVVVdx033M46XGnxue2ZZa4CSAFgPDSC8CeR2fVUmlZOY+/OkJhOiGXmUdGz+uhoIXfmQhRM01D63oFWv2uSWvy+Xc+Yu7ChN9ywsb1/kYpAIRnbMssJ3ZEcMLeGjkGe/U6RRmlgOw6seHU3AZ+ZyLEfmkHDEJr0itp7a1YtY6HX3wvae35rAoY7TZIShQAjsZmYHWiP5wMrcyHtNPF60DC11yVl1fw6MsfKEwnBeQ1jhUBWYV+ZyLEXmntzkbTT0xae47jcP2wpyguKXUb6nvgcOBCYlOYI4A5QIXbwIp9Y1tmwjutdtDSZK5E+Eg3IucD7yb6fHZWJt+8/yRt9GYKs0oBm+cTnXk/RMv9zkSIX2n6iWidE74YNCGPvfIB9z37ttsw5cAReztWVzciWUBHoOtuP7oAfpzWdY1tmY+5DSIFgPCcbkQ0YBpwSKIxfn/GiTxy6xB1SaUIZ/1MnB8fAyflTzsTIaA1OQKt2xDQknd41ZTpczjvr7dRFY26DXWbbZl3xvNA9XtbK/YsDLoCXm57aGdbpuvFDlIAiKTQjcjpuJizyszIYPy7j9Ohja4wq9TgrJ+JM+dJqJKRAOEfrdkxaF3+BFrtrsBVYf3GLZxy8XWsWut6NHwG0Mu2zEoFaQGgG5FG7L0waIO74z1n2JZ5qPsMpQAQSaQbkUnAUYk+f/apx/H0ndcqzCiFbFlAdNbDULnd70xEGtJa90fr+HuSeWy14zhcdO1dKq7SrSDW+c9UkFaNdCNSCBzInoVBJyC7FiFuty3T1eLqHaQAEEmjG5ETgC8SfT4jQ2PcW49yYIfWCrNSq7iklDXrN9GuVfPkN759BdFZD0CZnJ0gkkVD63g+WuvkH1f95Gsmdz/9popQd9iWebuKQG5UrzPoxN7XGey84vcQVcWKFAAiqXQjMhZI+DaQ0084ihfuvVFhRu6VlVcwbuL3jBo7kTETppKbk81nrz3gz6LF0vWxIqA4+fefizSjZaIdeBla82OT3vS3M+fyuytvo7LK9dqXWcQW/gVtlf+vqtcZtCZWDHSwLfMZVbGlABBJpRsRA5iS6POapvG/1x/koM7+nohXUVHJV9YMRo2dyOfjv2Vb8a4HcnXt1JaPXryHgnzv7zzfM7mtRH94GLYsSn7bIj1k5qB1G4LW6OCkN71x81ZOvug6Vq5Z7zZUJWDYljlNQVqhJAWASDrdiIwEzkr0+VOO68VrD96sMKPaqayqYsJ3PzByzAQ+HW+xZev+59vPOvkYnh12fZKy201VGc7sx3E2/OhP+yJ1ZReS0eM6qNsp6U07jsOg64YxbpKSPnuYbZlDVQQKqyy/ExBp6VbgTBJcMTTmm++YPns+hx50gNqs9iIadZg8fTajxkzg4y+nxHXD2KixEzmoczuuuuRcDzPch8xctB7XwdzncdYkPOAixK5yG8YOoSps6Uvzz7z5oarOfwbwHxWBwkxGAIQvdCPyNvCHRJ/vYxzCO4/fpjCj3ziOw9RZPzNy7ARGj5vEmvWbXMV7eOjfuODMhJc9uOTgLPoAZ9nHgLzWhQt1O5Bx0FWQ29CX5j//+lsu/+f9Kvb7bwYOty1zoYK0Qk0KAOEL3YgcQOyIzYRHoT58fhi9D1Z30ciMOQsYOWYCH42bpPT+gcyMDJ4Zdj1nnJjwDkjXnA0/4Mx9Diq2+paDCC+t1WmxbX5J3OO/M2vGHC646g7KypWs1TvXtky5axwpAISPdCPyIvCnRJ8/+rDufPCMu1G82fMWM3LsREaNmcgye7WrWPuTnZ3F6w/9iz5Gwochule2CWfuMzibfvIvBxEuWYVoXf6M1ljJuTMJmbtwKecMHlrjmptaesS2zOtUBEoFUgAI3+hGpA0wD8hNNMZ7T93BsUf0iOuZeYuXM2rMREaOncjCpSsSbTpu+Xm5vPvEvzmiZ5ektbkHJ4qzdCTO0pEgr32xP3U7kdHtr5DXyLcUlq9cw1mX38zqdUrOtpgM9Anylr9kkwJA+Eo3Io8Bf0/0+SN6dmHUC3fX+H2Ll69k5JgJjBo7kZ8WLku0Odfq1inEfOZOuh3QzrccAJyNc3DmPgvlm33NQwSRFjvZr8PvfBvyh9gxv2f9+WYWL1dypsU64FDbMn9RESxVSAEgfKUbkWbAQnY96Soubz4ylBOPPmyP3/9l1VpGjZnAyDET+eHn4OyJb9KwPh8+P4z2rVv4m0j5Fpy5z+FslK2Colp2EVqXv/iyv39n20tK+d2VtzJzrpJ1eg7Q37bMz1UESyVSAAjf6UbkHuCmRJ8/uGtHPn31AQBWrd3AR+MmMWrMBL7/cZ6qFJVr2bwxo164hxZN/RteBcBxcJZ9hLPkv+C4Xl0twqzeAbEhf59W+e9QUVHJRdfdxTffzlIV8k7bMr3ZMhRyUgAI3+lGpAGwGKiXaIxLzxvAnPlL+HbmXMLyb7pj25Z8+NwwGjWo63cqsG0Z0Xmvwpa03xmVfrLy0dr/Dk0/EbQMX1OJRh3+etvDjBozUVXIccCptmVKdbsXUgCIQNCNyFAgrru4U0GPAzvw/tP/oW5Rgd+pAA7OyvE4i96Him1+JyOSQGt2NFrHCyAn4dpbqVsefJFX3v9EVbh5wNG2Zbo+MzhVSQEgAkE3IkXAIqCJ37kkW7cD2vH2Y7fRtFF9v1OJqdiGs+g9nJVfI4cHpajClmQcMAjq+7gjZSfRqMOtD7+ksvNfRazzX6wqYCqSAkAEhm5ErgUe9jsPP7Rt2YzhT9xO25Y+3CC4L1sWEJ33Gmzzb9eEUCwzD63d2WitTvV1hf/OyssrGPLvRxn9xWRVIbcS2+43XVXAVCUFgAgM3YjkAQsAfw4a91nTRvV5+7HbfN8iuAsnirNiDM5iE6pK/c5GuKA16YXW6Y++L/Lb2ZZtxVx2471MmqZsJ0oFcLptmWNUBUxlUgCIQNGNyGDgWb/zqKUKYAywGrhURcC6RQW8+uC/OPLQbirCqVO+CWfhcJzVU5BpgZApaIHW6SK0ht39zmQXq9dt5I9X/4e5C5aqCukAl9iW+YaqgKlOCgARKLoRyQbmAh39zmUfdnT67wMf2pa5CUA3Io8CV6toIDcnm+fuvoFTj+ulIpxa21fgLBsdu2FQtg0GW1FrtDZnoTXpBVpCF296ZuHSFfzh7//hl1VrVYa9ybbM+1QGTHVSAIjA0Y3IRUCQqvi9dvo7042IBryEopGAzIwMHrzlr/z+jBNVhFOvZE2sEFg9EaKVfmcjdla3A1rbs9AaHUKCN257atrseVx87TA2blZ6MdWTtmVepTJgOpACQASObkQygFnAQT6mUQGMBd4DRtqWWeNh5LoRyQSGA79TlcTQqwbx14vOVhVOvbINOMs+wVk5HqLlfmeT3up3QWt7JlqDYA3172zcpGn85eYHKCktUxnWBM6Tvf7xkwJABJJuRM4h9sJOprg7/d3pRiQHGAn0U5XUlRcOZOhVg9ACNoy7i/LNOL98jrNinCwWTDKtYQ+0tmdBvc5+p7Jf747+ghvvfobKqiqVYUcB59uWqbSiSBdSAIjA0o3Id8ARHjezo9PfMbzv+tox3YgUAJ8Bx7mNtUO/PgaP3jqEunUSvjIhOSq246z4X+wMgbINfmeTujKy0BofhtZ6ANRp73c2++U4Dg88P5xHX35fdei3gP+zLVPmoBIkBYAILN2InEasI1VNeae/O92I1AW+BPa8pShBbVs24/l7bqTHgR1UhfSO4+BsmgurJ+KsnSqjAqrUOwCt2bFoTXtDVhBOj9y/rduLGXLbo4yZMFV16GeBv8mwvztSAIhA043IeOB4BaE87/R3pxuRxsDXQFdVMXNysrnzuj9x8TmnqgrpvapynHXfx4qBjbNl90C88puiNTsGrdnRkN/U72xqbcGSFVz6j3tZuHSF6tD32ZaZ8OVh4jdSAIhA043IscA3CT5eQewykPdIUqe/O92ItAT+Byjd2B/pdzz333QFBfl5KsN6r3wTzurJOKsnyQmD+5NVgNbUQGt2DNQ7wO9s4lZZVcXB/S9TvdIf4F+2Zd6jOmi6kgJABJ5uRD6l9ovqfO/0d1d92+FIFK4JAOjcvjUv3HsjB7RrpTJs8mxbjrNmSmxUYNtSGRnIbYBWvxs0PhSt0aGQkeV3Rq5cfO1djJs0TVU4BxhiW+bTqgIKKQBECOhG5HDgO/a9qXlHp/8+8N8gdPq7qz7m+E3gXJVxC/LzeODmKznnNKW1RfJVluBs/gk2zsXZNAe2/ULKnziYXQetfldo0DXW8Rc09zsjpd7/5CuuvuNxFaEqgcvkhD/1pAAQoaAbkQ/YtfPcudP/0LbMwC85rz7f4DFgiOrYgyKn8Z9rLyMnJ1t1aH9UbMXZ9BNsnBNbTFi80u+M3MvKR6vfBep3Q2vQDQpbEsSDelTZur2YHv0upby8wm2oIbZlPqUiJ7ErKQBEKOhGpBswjdjK+tB0+nujG5F/Aveg+N2/+4HteeiWv4Vjl0C8yjbhbP4Zim0oXolTvBJKVkFVAA8f0jTIbYRW0CL2qT6/BVrdDlDUFrQMv7NLqktvvJfPv/7WbZh7bcu8WUU+YldSAIjQ0I1IgW2ZxX7noUL1cccvA0o/smdmZHDZ+QP4xxV/pDBsCwTj5kDZxlgxULwSilfFioOSlVC6Ac+nELLyYxft5Fd39AUtYp1+fjPISJGRGJdGjpnAlUNd3/C90LbMTiryEbuSAkAIn+hG5BRgBFBHdewWTRtx1/WX07+voTp0OETLoXxL7PyBqlKcytLqX5dU/1wGlSW/fp2q0linnZm364+sHb/OR9v5v7MKIFv5/7aUU1xSSo9+l6o4+vdw2zKVrSgUMVIACOEj3YgcSmyHQGsv4p9yXC/uvuHPtGze2IvwQtRo8L8e5KNxk9yGkWkAD6TXhJQQAWNb5nTgUOBTL+KP+eY7+lzwd555a6TqM9iFqJWzTjlGRZjzVAQRu5IRACECoPo64X8BdwCZXrTRtVNb7r/5Sg7vHuxLY0RqKSuvoMdp/8e24hK3oQ6rLpiFIjICIEQA2Jbp2JY5DDgFWO1FG3MXLOWsy2/mpvueY8OmLV40IcQecnOyOfX4XipCna8iiPiNFABCBIhtmV8SmxIY70V8x3F43fwc4+wruOfpt7w4qlWIPQw8Wck0wO9UBBG/kSkAIQJINyKZwF3AP/HwtJiignwuO38AV1w4kPp1i7xqRqS5iopKevS/lC1bt7sNJdMACskIgBABZFtmVfWq57MAz4423lZcwuOvjuCqfz/qVRNCkJ2dRf8+SrakymJAhaQAECLAbMscDRxM7EZBz7RtlVrn0IvgGXjKsSrCSAGgkBQAQgScbZnLbcs8Dbgc2OxFGx3btvQirBC/OrZXDxrWr+s2TKfqszOEAlIACBEStmW+BHTHgzMDOrWRAkB4KyszkwF9j1QRSkYBFJECQIgQsS3zF9syBwCXAZtUxe3YVlcVSoh9kkOBgkUKACFCyLbMV4iNBnzsNlZ+Xi4tmjZyn5QQNTj6sO40bVTfbZhOuhE5REU+6U4KACFCyrbMFbZlngFcgoudAu1bt0DTUvdeehEcGRkap594tIpQMgqggBQAQoScbZmvA6cn+nwnWQAokmigTAMEhhQAQqSGhPfxyfx/OJSVV/idghK9enZRMeV0gEwDuCcFgBCpoWuiD3aUHQCBtXDpCl4YPpo//P0/HHjSRXzwqScnRCeVpmmcpeZoYBkFcCnL7wSEEEokXgDIFEAgOI7Dkl9WMX32fL6b9RNfTp7OMnvXe6Fuvu85DjvoADq0CfeozVknH8Nzb49yG+Y84BYF6aQtuQtAiBSgG5GpwOGJPPvzF29Sp7BAcUaiJus2bmb67PnMmDOfaT/OZ8acBWzeuq3G5w7q3J6PX7qXnJzsJGTpnSPPuXKPAicBh9iWOVNFPulIRgCECDndiGhAl0Sebda4gXT+SVBSWsasnxYyffYCZsyZz/TZ81m+ck1CsWbPW8wdj7/GsBsuV5xlcp158tE89fp/3YY5D5ACIEFSAAgRfq2BwkQeDPv8/4SpP9C8cUPa6E19/URcFY1ir17H8pVrWG7HfiyzV7N85VqW2atZvW4D0ai60dZX3v+E43r1oJ+aC3Z8cfYpx6ooAM4HhipIJy1JASBE+CU8/x/mueSZcxdy/t/+DcT2l+tNG9OudQvatWxOg3p1KCrMo6ggn8KCfIoK8ikqjP26MD+PosL8X7+WnZX5a8yS0jKKS8ooLi2N/VxSSnFpGcXFJbGfS2K/v3nbdn5ZuZbl1Z28vXodlVVVSf3zX3vnU/Q4sCMtmzdOaruqHNS5PR3a6CxaZrsJc4BuRA6WaYDESAEgRPi5WAAY3gLgqdfNX38djTr8smotv6xay4TvZsUVJycnm6zMTEpKywjTmqjNW7dx5a0PYz57J1mZmTU/EEADTzmGR156320YmQZIkGwDFCL80m4HwOLlK/nkqylKYpWXV1BcUhqqzn+HqbN+4sHnh/udRsLOOlmuCPaTFABChF/CBUCnkI4APP3mh0rn1MPsyddNvvk2vlGPoDiwQ2sO7NDabZjOuhHpqSKfdCMFgBDhl1ABkJ2dRWu9mepcPLdm/Sbe/+Qrv9MIjGjU4arbH2XtBmWXQybVwFOUjAKcryJIupECQIgQ041IYyChVWDtWjYnMyN8bwEvDP+I8hQ5FleVNes38ffbHw/lNIaiAkCmARIQvle/EGJnaTX/v3V7Ma+P+NzvNAJpvDVDxba6pGvfugXdD2zvNoxMAyRACgAhwi2tdgC8PuJztm4v9juNwLr/uXf4/oef/U4jbgNlMaAvpAAQItxcXAIUrgKgvLyCF4Z/5HcagVZZVcWVQx9my9btfqdSaxUVlZSWlasIJQVAnKQAECLc0uYWwPc/+Yo168O50C2Zflm1luuGPeV3GjWqrKri7ZFjOfp3f+WhF99VEfJAmQaIjxQAQoRbWkwBRKMOT7/5od9phMYnX07h1Q8+8zuNvaqKRnn/k6847rwh3HD306xYtU5leBkFiIOcBChESOlGpJDYPQBxq1+3iIb16yrOyDuffDWFxctX+p1GqNzx2CsYh3Sla6e2fqcCxIq4j8ZN5MEX3mXh0hVeNXMecKtXwVONjAAIEV5dAC2RB8O2A2DnY39T1HZgEvAk8JCKgGXlFQy+5UGKS0pVhEuY4zh88uUUTr7oWq4c+rCXnT/EpgF6eNlAKpERACHCy8UJgOEpACZM/YGZcxf6nYZKm4DpwLSdfsyzLTO64xuqz3e4xG1DC5as4JYHX+SRW4e4DZWQMROm8sDz7/Djz4uT2ex5wA/JbDCspAAQIrzSYgdAGPe2Aw6wElgMLKr++Qdgmm2Zi2rx/F+BXkA3t4m8O/oLjj2iB+f27+M2VK2Nt2bwwHPDmTZ7XtLa3Ek/4DY/Gg4bKQCECK+UPwTox58XM96a4Xcae1MKbAZW8VsHv/PPS2zLTHjs3bbMYt2InA98CxS4Tfam+57jsO6dad+6hdtQ+zVp2o/c/+w7fDtzrqft7EMx8Dhwvx+Nh5EUAEKEV8IFQIeQjAA8+Yayuf+XgMnE3vOygMx9/DoLiBLr3DcTG67f8fOvv7Yts0xVYvtiW+Zs3YgMAV52G2t7SSmDb3mQ0S/etXOAPgAACBFJREFUS05OtoLsdjV11k/c/9w7TJjqy8h7OfAcMMy2zNV+JBBWWhjPjhYi3elGJJvYJ564i/jMjAwWjn/Hk45ApaUrVnPs7/5GVTRa8zfv3wagnW2ZWxWklXS6EXkNGKQi1mXnD+Cu6y9XEQqAmXMX8sDz7/DFpGnKYsahCngNuMO2zGV+JBB2MgIgRDh1IsHXb6sWTQLf+QM8+9ZIFZ0/wKNh7fyr7VgPkPCIzw4vv/cJx/XqyWnH93YVZ878JTzw/HA+//pbtyklwgHeA26zLdOXRQapQrYBChFOKT3/v27jZoZ/NE5FqM3AEyoC+cW2zO3EVrYruQTh2jufxF6d2OE78xYvZ/C/HuSUi6/3q/MfDRxqW+YF0vm7JwWAEOGU0jsAXhw+mjI1V/4+YVtm6M8Pti1zNnCVilibtmzjylsfjmt0ZfHylQz596Oc+Mdr+GjcJD+uHf4SONq2zDNty5yZ7MZTlRQAQoRTyo4AbCsu4dURSo6x3QY8oiJQENiW+TLwhopY3838iQefH17j9y1fuYZr73yS48+/CvOzr4lGk97xW8DJtmWeaFvm5GQ3nupkDYAQ4ZRwAVCYn6cyD+Xe/O8YVbfZPW1b5gYVgQLkSmLrAbq4DfTEayM45vDuHNtrz/tzVq5Zz6Mvv8/wj8ZRUVnltqlE/AAMtS1zlB+NpwvZBSBEyOhGRCP26Tbh/eGd2rWkf58j6d/X4JBundQl51JFRSXGOVewaq3rfrsYaG9b5hoFaQWKbkS6EzsfIN9trKaN6jP2rUdo3KAeAGvWb+LxVz/gzQ/HUK5mCiZe84F/A8Nty5TOyWNSAAgRMroRaQssURavWWP69elN/75HcuSh3cjM8G9mcPhH47juLiVX2T5iW+Z1KgIFkW5E/gS8qCJW3yMP4fHbr+bpN/7Lqx98RmlZuYqw8VoO/Ad41bbMSj8SSEdSAAgRMroR6Qd86kXsBvXqcOpxvRjQ1+B44xByk7hd0HEc+lzwdxYscX1ZTCnQwbbMlL4+UDcibwAXqYiVnZXp11D/GuBu4NlkHK4kdiVrAIQIH9f7wfdl4+atvDv6C94d/QWF+XmcePRh9O9rcNIxh1On0PWJtPv1+dffquj8AV5K9c6/2hXAEShYD+BD578JeAB4rHqbo/CBjAAIETK6EXke+HMy28zOzuK4Xj3p38fgtD69f50zVunMP93E9z+63tpdDnSyLXO5gpQCr/rqWwsF6wGSZDvwGPBAKmzPDDspAIQIGd2IfAMc61f7GRkaR/TowoATYosIW7do6jrm5GmzOffKWxVkx/O2ZQ5WESgsdCNyOfCC33nUoAx4Frg7FRdmhpUUAEKEjG5E1gGN/M5jh4M6t2dA31gx0KVjm4RiXHTtXSrOk68EOtuWmdTL54NANyJvAhf6ncdeVAKvAHemy6hMmEgBIESI6EakCbGFU4HUrlWLX0cGDjvoADRNq/GZuQuWctKF16po/lXbMi9VEShsdCNSBEwFDvQ7l2pRYDjwb9syF/idjNg7KQCECBHdiBwPjPc7j9po1rgh/fr0ZkDfIznq8IPIyszc6/cN+fejmJ997ba5KqCrbZnz3QYKqwCtBxgJ3Gpbpi93A4vakwJAiBDRjchgYnOpoVKvThGnHHs4A044kr5HHkpebg4QO2r2mHP/RmWV61Xob9mWqWRLXJjpRuTPwPM+NT8WuMW2TF9uCRLxkwJAiBCpngI4FzgHOAEI/r2+u8nPy6XvkYcwoO+RTJo2m3dGjXUbMgp0ty1zroL0Qk83Im8Bf0xik5OJdfxfJrFNoYAUAEKElG5E6gOnEysG+gGF/mbkm/dtyzzf7ySCIonrAWYQO6//Y4/bER6RAkCIFKAbkTzgVGLFwJkEaJeAxxzgENsyZ/mdSJDoRqQnsfUAXtz89DNwG7HCSzqQEJMCQIgUoxuRTOB4YsXA2UBrfzPy1EjbMs/2O4kg0o3IX4DnFIZcCtwBvG5bpi/nBgu1pAAQIsXpRuQIYoXAOUA3n9NR7QjbMr/3O4mg0o3I28AfXIZZBQwjdsiSLzcFCW9IASBEGtGNSGdihcA5QG+g5o36wfWJbZmn+51EkFWvB/ge6JzA4xuA+4EnbMssVpqYCAQpAIRIU7oR0fltZKAv4bsc7CjbMqf4nUTQ6UbkYGAKtV8PsA14BHjItszNniUmfCcFgBAC3Yg0AM4gVgycBnh79Z97Y23LPMXvJMKiludHlAJPA/fYlrnO+6yE36QAEELsQjci+cSKgLOJ7Sho6G9Ge9XHtkzXxwemE92IvANcsJcvVQAvEzuvX8l9zCIcpAAQQuyTbkSy2HVHQSt/MwJgvG2Zff1OImx0I1KH2HqAA6p/Kwq8Tey8/kW+JSZ8IwWAEKJWdCOiAUfw2yLCLj6lcrJtmeN8ajvUdCNyCDAJ+IzYef2zfU5J+EgKACFEQnQj0oXfioEjSM6Ogsm2ZR6dhHZSlm5EmtiWudbvPIT/pAAQQrimG5FW/Laj4Hi821EwwLbMTz2KLURakQJACKGUbkQasuuOAlXX0061LbOXolhCpD0pAIQQntGNSAGxIuAcYkVBAxfhBtqWOUpJYkIIKQCEEMlRvaOgL7FiYCDQMo7HZwKHyuUzQqgjBYAQIumqdxT05rdFhDUdVXuebZkfeJ6YEGlECgAhhO90I9KVXXcU7GwO0F0+/QuhlhQAQohA0Y1Ia3bdUXCxbZnv+JuVEKlHCgAhRGDpRqQRsNG2zKjfuQiRav4fhrYLa1jwHEQAAAAASUVORK5CYII=;" vertex="1" parent="1">
          <mxGeometry x="140" y="340" width="50" height="50" as="geometry" />
        </mxCell>
        <mxCell id="YghAzzQnqxR3YXbTXL73-13" value="" style="shape=image;verticalLabelPosition=bottom;labelBackgroundColor=default;verticalAlign=top;aspect=fixed;imageAspect=0;image=data:image/jpeg,iVBORw0KGgoAAAANSUhEUgAAAgAAAAIACAYAAAD0eNT6AABDAklEQVR42u3de7wsaV3f+9/vV7X6svbejBAVQUDwwowEPR4HAkTjbHWBk1lr7WFwtomiAhoIGEmEYA4R4gQxGiUxGNQQUBG8ngwHZvZaezJKv16uUbxlMsgJergpchQGfAGOM3v2Xn2r58kfq3vv2rVqra6uqq7u6v7063VeZnOq3zXr9zz1fOvS9TwifPjw4cOHD5+V+2hRYGPjtCYc3+nseTw8PDw8PLzF9cKC4R8k/7dOZ8/h4eHh4eHhLbYX5tyxikiQPPMQkQgPDw8PDw9v8b0w587DtJ3nuZWBh4eHh4eHV70X5th5I2XngwJ/DB4eHh4eHl6F3lQnAKOdN1N23i/wx+Dh4eHh4eFV6I3NMOOGJiKtlJ33cv4xeHh4eHh4eNV7KiImIj7MuPN2ys67eX7BiIeHh4eHhzcXb/wDQi8y4RFAbOfx1w2ciOwX+GPWR2cfeHh4eHh4eNV4Gsv8408ARhvHbzvo6EuXCvwxJ1POZPDw8PDw8PBm541/QOjH4S9HPQI45gcHD5f8x+Dh4eHh4eHN1mvEr/xFRDqdvcMnAEe8auBmcCZD4+Hh4eHh4c3WayWv/DudvUgk8QjgmEkG9ik2Hh4eHh5erbx24sr/qhkDk3cA0qYX7FJsPDw8PDy8WnnrKeE/jL86GMa+kBb+PYqNh4eHh4dXO0/k4PH92Ds0aVA4+kJyWeAiMxbReHh4eHh4ePP1fOJi/lCej+8AlDVXMY2Hh4eHh4e3OF73qDwPU678I8IfDw8PDw+v1t7ESYMs8W/CHw8PDw8Pr/7exFf3L08LmGfHFBsPDw8PD6+enkqBD8XGw8PDw8Orp5f7BIBi4+Hh4eHh1dfLdQJAsfHw8PDw8OrtKcXBw8PDw8NbPU8pDh4eHh4e3mp5U50AUGw8PDw8PLzlCP+NjdOqFAcPDw8PD29lPJWDOYC8Zdz5OsXGw8PDw8OrffgH439bhp23E9tRbDw8PDw8vPqFfxj3bMLGLYqNh4eHh4dX+/BvJL3wmI2bFBsPDw8PD6/2XiPmiIhIp7N3+ATgiDMFJxkWFqDYeHh4eHh4C+W1RsY4/H2nsxeJJJYDTntGMPrSPsXGw8PDw8OrlddOXPl7EYnG2yTvAAQpO+9SbDw8PDw8vFp56ynhP+x09vyhE4CNjdNp4d+j2Hh4eHh4eLXzRA4e34+9fjz8L58AjG79S2Lnhzam2Hh4eHh4eLXwfOJi/lCej+8AJHc+IPzx8PDw8PBq73WPyvMw5co/Ivzx8PDw8PBq7TmZ8AP+5ERAhD8eHh4eHl79vYmv7o/vAPgCKwpRbDw8PDw8vJp5KgU+FBsPDw8PD6+eXu4TAIqNh4eHh4dXXy/XCQDFxsPDw8PDq7enFAcPDw8PD2/1PKU4eHh4eHh4q+VNdQJAsfHw8PDw8JYj/Dc2TqtSHDw8PDw8vJXxVA7mAPKWcefrFBsPDw8PD6/24R+M/20Zdt5ObEex8fDw8PDw6hf+YdyzCRu3KDYeHh4eHl7tw7+R9MJjNm5SbDw8PDw8vNp7jZgjIiKdzt7hE4AjzhScZFhYgGLj4eHh4eEtlNcaGePw953OXiSSWA447RnB6Ev7FBsPDw8PD69WXjtx5e9FJBpvk7wDEKTsvEux8fDw8PDwauWtp4T/sNPZ84dOADY2TqeFf49i4+Hh4eHh1c4TOXh8P/b68fC/fAIwuvUviZ0f2phi4+Hh4eHh1cLziYv5Q3k+vgOQ3PmA8MfDw8PDw6u91z0qz8OUK/+I8MfDw8PDw6u152TCD/iTEwER/nh4eHh4ePX3Jr66P74D4AusKESx8fDw8PDwauapFPhQbDw8PDw8vHp6uU8AKDYeHh4eHl59vVwnABQbDw8PDw+v3p5SHDw8PDw8vNXzlOLg4eHh4eGtljfVCQDFxqu7d+utt7a73e7fE5GvFJHrxMmTReXznHcnTO2EqAQqmutAOviP8Sb+6qNrnp5zLnF8e0sZAnL/91Xu6bR3LBf771XVYJH6SxHPeefFy9DMLoqTzzp1f2ViHxWT/zUYDP5oOOx+jvFqscJ/Y+O0KsXBW2Zve3v7Sd777xCR56joM0SkeXl4O3QmXOSlGDw8vCNPRn30IRHteO/OXbp04d4wDB3j1dw8lYM5gHyYcefrFBuvLt4NN9wQnjx58jvM24vFy9epJE90Gczx8Kr0VO06EblONfj+E+uP+Jiavbndbb9FRB5k/Ks8/IORcXyrxtYTjq8USLHxFtI7e/ZsY39//5+o6L8SkS9h8MXDW1zPOXdBTd8UBMEb7rzzzr9l/Ksk/McX/U5EvE7YuD26VWByZXUhio23cN7W1tY3e+9/1tSuZfDFw6uR5+SzovKanfM7bxURz/g3s/BvjAw/OgFweszGzdiV//jHLxQbb6G8M2fOnHLO/ZyKfieDLx5efT0v/neCIHjBnXfe+XHGv9K9RvzKX0Rcp7MX6TFnCvErf5EMCwtQbLwqvZtuuulrVPR2M/tyBl88vKXwHvLiX7C7u3sH419pXit55d/p7A1ldIWfDP8wFvzj/4h9io23SN72TdvPM7O7VPULGXzx8JbGa6roP3ryk58cPeEJj30v419hry1XHt+P7wBEH/vYwU2W5HutQcrOCX+8xQr/ze2XOHG3j85sGXzx8JbLUxV9fbN54i3D4dAY/3J7aW/vDTudPR8P/PEXgpQr/x7Fxluw8H+ZqLxZddIcFgy+eHh19kT1a9fWml8URYO7Gf9ye/Er/348/C+fAIxu/Wsi/A9tTLHx5vqDv80zZ513v0j44+GthqeqXxMEa2tRNDjPeJrLGz/776bluV3VZle+QPjjLVb433TmGZGPfsXMjMESD291PFP7l63Wyecznub2ukfluR2+73L1MwKKjTdvb3Nz85He/P9tZg0GSzy81fO88//15n9481cxnk7lOZnwG77kCUBE+OMtmqeqPy9HzuzHYImHt+yembVd4H7t7NmzDcbTzN7EV/fH0wL6AisKUWy8mXlbW1vPVdHnMVji4a2899Tupe5rROQ2xtNyvCKtRrHxZh3+6+r0g2LyBAZLPDw8EemJylfu7Oz8BeNpcc8If7xF9dTrDxD+eHh4sU/TOffvGE/L8XK1HsXGm7X37Gc/+0RrrfVxMfl8Bks8PLzxxznnvPin3nXXXR9kPC3mGcXBW0Sv1Wi9mPDHw8M7FFoHn1cxnhb3lOLgLaK3fdP2B8XkOgZLPDy8lLsA+0Foj7t06cKQ8TSfN9UdAMILrypva2vr6YQ/Hh7eMXcB2lHkvovxNH/4b2yc1pDi4C2g93wGSzw8vGM9758nIr/EeDp98I8u/r1l3Pk64YVXlee9v5HBEg8P7zjPTJ8Vho1TjKdTh//lRQAtw87bie0oNt7MvFu+5ZbHmNq1DJZ4eHjHe7pmFjyT8XSq8A/jnk3YuEV44VXpRWF0A4MbHh5eFi/Q8P9kPM0c/o2kFx6zcZPwwqva8+L/LoMbHh5eFs+J+2rG00xeI+aIiEins3f4BOCIMwUnGRYWoNh4RT2v/jqN91IGSzw8vKM8n/a2EONpwmuNjHEZfaezF4kkHgGkPSOQjKsKUWy8Mjzv3ZMZ3PDw8LJ4avolWXewouNzO8WLxv9I/gYgSNl4n/DCq8pTsUcyuOHh4WXxVHTt5ptvvobxNNVLe3tv2Ons+UMnABsbp9PCv0t44VXsnWRww8PDy+oNBoNrGE9TveTbe/14+Isc3O4f3/qXSRsTXngz91TWGdzw8PCyet77JuNpqudjXi8tz+2qGhP+eHP2vHMhgxseHl5WLwgCYzw91useledhypV/RPjjzc9jcMPDwyvmMZ6KyMHbe8f+hi955kT4483VY3DDw8Mj/EvxJr69Nz4B8J3OHuGPVzuPwRIPD4/xNJ9nIgczAlFsPMIfDw+P8F8dz/I2G8XGI/zx8PAI//p6RrHxCH88PLz6ep7xNKdnFAeP8MfDw6ur55xbZzzN5xnFwSP88fDw6uoxnuYfT43i4BH+eHh4dfcYT6c2NaQ4eKsY/t77P/Hi36tePiYmF0XEi1pXRPK8EaPeu9ahvxcPb9U8Jw0ReYKofJ1z7h+YWUD4L5yno4t/H2bcOc9Y8JYl/O8YRoM3DAbdP6U98PBm521ubn6xePm/RP3LfGzWWcJ/7uEfjE/kLMPO23J4VSGKjVer8HfO7YvK8/e7F15A+OPhzd7r9S5+ar934bXDaPgt4uVTswh/FREzu0R7ZA7/MO7ZhI1bdH68Jbjy71lgZ/b3L+zSHnh41XqDQfc+L+5bROT+2fyGQGmPbOHfSHp2zMZNOj/eEoS/iJdX7u9f+B+0Bx7efLxe79L/b05vdc5F8x4PVrQ9knkunc7e4ROAI84UHJ0fr47h78X/0YWLD/wq7YGHN1/v3F07f2Bqbyb8K/cO3cnvdPYikcQjgLRnBJJxVSGKjVeOV/YkIdF/DsNQaA88vPl7FtpPOOemsAn/gl47xbt8FyZ5ByBI2Xifzo9XoVda+Hvxl7yP3kN74OEthnfnnXf+laj8AeFfiZf29t4wvvifxb6QFv5dOj/ePLxSfi3s/fsHg36f9sDDWxxPVX+P8K/ES76910+u/BuOvqCHqp+yMcXGq034H/w/PkF74OEtnPeXhH8lno95vbQ8D6+q8ZWNB4Q/3py8ssJfvPc92gMPb+G8HuFfqdc9Ks/DlCv/iPDHm5/HDGF4eLz9Q/iX4DmZ8Bu+5I8ACX+8uXplhb+KiKoOaQ88PMJ/Rdtj4tt74xMA3+nsEf54yzZ40J/x8Ah/2uO4E4A8wU+x8Rg88PDwOH7r61neG64UG4/BAw8Pj+O3vp5RbDwGD9oDD6/C41fLnfHT0x45PaM4eIQ/7YGHV5XnvWuWO923W6c98nlGcfAIf9oDD28eXhmTftEe+cdTozh4hD/tgYdXx/Bn3o/84+nGxmkNKQ4e4U974OER/ivTHjq6+PeWcec8Y8Ej/PHw8EryCP85hn8w/rdl2HlbDq8qRLHxCH88PLypPVXrlRX+KiJmdon2yBz+YdyzCRu36Px4hD8eHl5ZnuSYofP48UBpj2zh30h6dszGTTorHuGPh4fHeFB7L5nn0uns+TDjmYKTDAsLUGw8DnY8PDzGg4XyWiPj8krpnc5eJJJ4BJD2jEAyripEsfHK8cqcIUyU9sDDI/xXuD3aKV40/kfyDkCQsnGXzopXoVdW+Iv3PqQ98PAI/xVtj/WYM/6/w/jif2HsC2nh36Oz4s3DY4YwPDzCn/AvfDHlYl4/ufJvOPqCpoye/TzLBNP58RYh/HlPGA+P8F/x9vCJi/lDeR5eVeMrGw8If7w5eYQ/Hh7hnzn8nXNK/Y71ukfleZhy5R8R/njz8wh/PDzCnyv/EjwnIvvHecl5AAh/vLl6ZYW/ioiqDmkPPDzCf0XbY+Lbe+MTAN/p7BH+eMs2eNCf8fAIf9rjuBOAPMFPsfEYPPDw8Dh+6+uZ5PxQbDwGDzw8PI7f+nohxcZbJM/U/qv4K8tVHvFR7/3a4f9VBxK77W/e3kt74OEtXPhruTN+etojp6cUBw8PDw+vKq/ZXP8+VXtTOeEvMhj2nz4c9j5Ke0zvGcXBw8PDw5uHV9KMn0Z75HsMYxQHDw8PD6+O4c+8H/nDf2PjtIYUBw8PDw+P8F+Z9tDRxb+3jDtfp/Pj4eHh4ZXjlRr+jvaYKvwv/8jaMuy8LTxjwcPDw8MrwVO1XlnhryJiZvu0R+bwv2qJdJuwcYvOj4eHh4dXlic5Zug8KvxHk37THtnCv5H07JiNm3RWPDw8PLx5eseH//SfFW2PZJ5Lp7Pnw4xnCk4yLCxAsfHw8PDwCP+F8lojY1xG3+nsRSKJmQDTnhGMvsQzFjw8PDw8wr9eXjvmjP9vNN4meQcgSNl5l86Kh4eHh0f418pbTwn/YXzxvzD2hbTw79FZ8fDw8PAI/9p5IgeP78deP7nybzj6gh6qfsrGFBsPDw8Pj/CvhecTF/OH8jy8qsZXNh4Q/nh4eHh4hH/tve5ReR6mXPlHhD8eHh4eHuFfa8/JhB/wJ+cBIPzx8PDw8Aj/+nsTX93XEaB5gp9iz85rtU48TkT/vjr9SjG5Tpx8qTd/jXf+lJmdOP7oKO9gwsvteefcRTW9IE4uiMrHxclHvbkPe+//oN/ffx/HB94qeltbW/9ERd9a1vEWuegpd9111wdpj+m9UORgRiDCf75eEARBaK1vVNNv9d7foGKPveoejYmoqKhNOjAI6wXx1MxOiviT3uQxIvJkCeQ5JiaiKs3Gifu3t7Y7zrtfe9rTnvae173udY7jA48rf678q/Ryj5QUuxyv2Vz/QhF9qYg831S/iHBdPc85d7+pvW0QDX767rvv/gzHB94ye1fuAJRzvEUuekq/f+nDtMf0nuUZ1uj8xb1Go/WkVuPkT4qXD6jqvyT8V9czs8eKymvWbO3jW1tbb7zlllu+kOMNb4mv/LXc483THjm9gOJU673whd8d9rvDV4jar6np16lqSBjijTZZU9FnDofDF1977bUXvv3bv/2+tTVVjje8ZfKCIHyWqN5U1vEWRcO3ORf9De0xvWcUpzrv5htv/orPfuZv/lBM36CqjyAM8Y64I/B5Kvqz99133++vrbWeyvGGt6xeGcdbIsdoj1mcANBZi3lnNs98WxRG94nK9YQhXpaPijzDLPjdZnP9DMcbHuF//PFGe0xtakhxZu9tb26/zqv7YSEM8ab0Du4U6TuazRM/3utdfC3HGx7hT/gX9HR08e8t487X6fzTe7fddpttb27/nKj/YcIQr4hnav+63Tz1pttuu43HdnhL4JUa/o72mCr8L//2L8yw87bwjCWXd999971ZVV5MGOKV4ql83/vue9+aiLyE4w2vrp6q9Uo9OTbbpz0yh38Yc47+DcBo4xadP/dt/3+nQvjjle69eHtz+/Ucb3h19UTEl3t8KO2RLfwbSc+O2bhJZ83nbW1tfY+o/yHCC28mnsprt7e3X8jxhrcKXtnH24q2RzLPpdPZO3wCcMSZAs9Ysl75b299lTj5GcILb6ZeJD+7vb39dxnc8Ah/6jfBO3Qnv9PZi0QSjwBizwimXlWIYoucPn3DunPuv4lJm/DCm6lnsu6c+2833nhjk7DBI/yp3xFeO8WLrgwjV3+ClI35gUVG7+T6qX+jatcRXnhVeKb2lDAMX03Y4BH+1C/FS3t7bxhf/M9iX0gL/y6dNZvXaLS/Wkx+gPDCq9JT0VfffOPNX0HY4BH+1C/hJd/e6ydX/rXRF/RQ9UV6dNbsnqrdJgfPWggvvCq9VhREbyBs8Ah/6neM10uGf/wOgE46U6DYR3uNRvta8f4M4YU3F8+77TBsXkvY4K1i+IdhqNTvWK97VJ5bypX/kPCfzjMNXqlmRnjhzcNTMwtt7ZWEDR5X/rRH7H92MuE3fMkTgIjwn84Lw8bnicothBfeXD2T5zYa62uEDR7hT3tIxrf3Lk8LWGBFoZUudhCEz1ORJuGFN2evaWZnReTNHL94hD/tkcUzkYMZgSh2bu/bCC+8RfC899/J8YtH+NMeWT3LOwxRbJG2nDglXp9OeOEthOflmWc3zl7D8YtH+NMeMzsBoNgHnjaD680sILzwFsEzs6DX7N3A8Yu34OGv5R4fnvbI6RnFye9577+B8MJbJM+LP83xi7fInveuWebxEUVRm/bI5xnFKeQ9lfDCWyTPiXsqxy9eXbwyjg85POMd7VH2CQCdNcUzuZbwwlskz7xdy/GLtyrh7w+fDdAe2U0NKU4+b7QK2xMIL7yF8kwef8MNN7TuueeeLscvHuFPe6QF/+ji31vGna/T+a/21tbWPi97Dya88Crz9FGtRz2SsMFbbK/U8He0x1ThH1y5Xpi887bwjCXNO0XY4C2i17XuKcIGb1E9VeuVeXwEQcCS9dnDP4x7NmHjFp0/3Yui6CRhg7eInpmdImzwFtUb/d8Sjw+lPbKFfyPp2TEbN+msR3uhD0PCBm8RPTNrEjZ4y+KVfXysaHsk81w6nT0fZjxTcJJhYQGKTXjhzd9zjvei8RhPqd9lrzUyxmX0nc5eJHJlMaB4+IcpO+cZC2GDVxOPsMFjPKV+sd/wSTz8RSQab5O8AxCk7LxLZyVs8OrnETZ4jKcr3R7rKeE/jC/+F8a+kBb+PTorYYNH+OPhEf6180QOHt+PvX5y5d9w9AVNuY/Yz7NMMJ2V8MIj/PHwCP+5ez5xMX8oz8Oranxl4wHhT9jg1dNT471oPMZT2uOy1z0qz8OUK/+I8M/UUY2wwVtQj7DBI/xpDycTfsCfnAeA8M/oOe/ahA3eMngMlniE/1J6E1/dH98B8AVWFGJhC8IGj/DHwyP8a+aFIgczAlHsxQl/53xfxH9SVPo5PDu8B3W5Z9/EK9/zGor4LzazBoMlHuFPf56XF+Yc1Sj2DMJfvNyp3t70xX/9Rb/zlvveMqA9ltd7yfUvWfv0oz/99d7894nIrQyWeIQ//blqL6TYRbxywt879zcq9qJu/+FdOutqeKMTvN8Wkd8+s3lmw3v/62Ly+QyWeCsQ/lruYzFPe+T0jOLk80xtv6Twf9B5dxPhv7reufPnOk7dN3rxDxL+eMvuee+aZf4mJopY+yKvZxQnn5dnCcq0wdzEXjEYdO+ls662d/78+T9R1ZcR/njCY9SpxtNEjtEeszgBoLMWL3bKM//37/cffjv1wxMR2dnZ+XVx8j7CH4/wzzGe0h7TmhpSnPmEv4qIeH0b9cO7qpeYf7uKfi3hj0f4E/4z8nR08e8t487X6fzl/9rVqfs96od31S25SP+Q8Mdbfq/U8He0x1ThH1webzLsvC08Y5nVqy6fpn54cW8g/QcJf7xl9lStV1b4q4gEAWtfTBH+YdyzCRu36Pyze8/Vex9RP7y45733hD/eMnuSe1ato8ZTpT2yhX8j6dkxGzfprExygTcfr+AzUtoDj/GU+sW9ZJ5Lp7Pnw4xnCk4yLCxAsemseHMPf3GO96LxGE+p32WvNTIuTz/T6exFIomZANOeEYy+xDMWOiteZUt4Fn4vmvbAYzylPca/4ZN4+IvI5UfPyTsAQcrOu3RWOiteRTNMWnCpSPjzahQe4yn1i729lwz/YXzxP4t9gfCns+LN2StrhknaA4/xdOXbI/n2Xj+58q+NvqAp9xF7dFY6K14NZ5ikfniMp7TH4Tw/9PZFeFWNr2w8SNuYYtNZ8Ra//6nxXjTe6oyn3nulfsd63aPyPEy58o8I/0wd1Qh/vAUdLKkfHhdTtIeTCT/gT84DQPhn9Jx3bTorHoMlHh79eUG9ia/uj+8A+AIrCvHeNp0Vj8ESD4/+XDPPRA5mBKLY1Yf/aCZGOisegyUe/Zn+XLlnkvNDsUuZsY1VFvEYLPHoz/TnuXhGsYt4hWdsY5VFPAZLvFXrz1pmf+ZOan7PKE4+z9T2i4Q/723jEf54q+h575rlhb+Ic461L3J6RnHyeczYhkf44+EV84qG/2iNG+6k5hxfjOLMbzCXg/c0qR8e4Y9H+HMxVen4srFxWkOKM7/B3CxgiWU8wh+P8Cf8q/R0dPHvLePO+bX6TAZzpX54yb7CDJN4K+CVGf7KndTpwj8Y/9sy7Lwt/FqdKzm8SjznonX6C94ye6rWKyv8D+6kGmtfZA//MO7ZhI1bdH7CH69Sz+gveMvsiYgvdzzlTmrG8G8kPTtm4yadlfDHm49X8Bkp7YHHeEr94l4yz6XT2fNhxjMFJxkWFqDYdFa8uYe/OBfxXjQe4yn1G3utkTEuo+909iKRxHLAac8IRl/iGQudFa+yJTwLzzBJe+AxntIe49/wSTz8RSQab5O8AxCk7LxLZ6Wz4lU0w6QFl4qEP69G4TGeUr/Y23vJ8B/GF/+z2BcIfzor3pw9ZpjEYzxlPJWSf1A88vrJlX9t9AVNuY/Yo7PSWfFqOcMk9cNjPKU9knl+6O2L8KoaX9l4kLYxxaaz4i1+/1ML+M0OHuMp7TH2ukfleZhy5R8R/pk6KjO24S3qYEn98Ah/2sPJhB/wJ+cBIPwzes67Np0Vj8ESD4/+vKDexFf3x3cAfIEVhXhvm86Kx2CJh0d/rplnIgczAlHs6sN/NBMjnRWPwRKP/kx/rtwzyfmh2KXM2MYqi3gMlnj0Z/rzXDyj2EW8wjO2scoiHoMl3qr1Zy2zP3MnNb9nFCefZ2r7RcKf97bxCH+8VfS8d83ywl/EOcfaFzk9ozj5PGZswyP88fCKeUXDf7TGDXdSc44vRnHmN5jLwXua1A+P8Mcj/LmYqnR82dg4rSHFmd9gbhawxDIe4Y9H+BP+VXo6uvj3lnHn/Fp9JoO5Uj+8ZF9hhkm8FfDKDH/lTup04R+M/20Zdt4Wfq3OlRxeJZ5z0Tr9BW+ZPVXrlRX+B3dSjbUvsod/GPdswsYtOj/hj1epZ/QXvGX2RMSXO55yJzVj+DeSnh2zcZPOSvjjzccr+IyU9sBjPKV+cS+Z59Lp7Pkw45mCkwwLC1BsOive3MNfnIt4LxqP8ZT6jb3WyBiX0Xc6e5FIYjngtGcEoy/xjIXOilfZEp6FZ5ikPfAYT2mP8W/4JB7+IhKNt0neAQhSdt6ls9JZ8SqaYdKCS0XCn1ej8BhPqV/s7b1k+A/ji/9Z7AuEP50Vb84eM0ziMZ4ynkrJPygeef3kyr82+oKm3Efs0VnprHi1nGGS+uGtzHjqnFPqN9HrJcNf5MojgOTGg7SN6ayEP97i9z+1gN/s4DGe0h5jr3tUnocpV/4R4Z+pozJjG96iDpbUD4/wpz2cTPgBf3IeAMI/o+e8a9NZ8Rgs8fDozwvqTXx1f3wHwBdYUYj3tumseAyWeHj055p5JnIwIxDFrj78RzMx0lnxGCzx6M/058o9k5wfil3KjG2ssojHYIlHf6Y/z8Uzil3EKzxjG6ss4jFY4q1af9Yy+zN3UvN7RnHyeaa2XyT8eW8bj/DHW0XPe9csL/xFnHOsfZHTM4qTz2PGNjzCHw+vmFc0/LmTWmx8MYozv8FcDt7TpH54hD8e4c/FVKXjy8bGaQ0pzvwGc7OAJZbxCH88wp/wr9LT0cW/t4w759fqMxnMlfrhJfsKM0zirYBXavhzJ3W68A/G/7YMO28Lz1i4ksOrxHMuWqe/4C2zp2q9ssL/4E6qsfZF9vAP455N2LhF5yf88Sr1jP6Ct8yeiPhyx1PupGYM/0bSs2M2btJZCX+8+XgFn5HSHniMp9Qv7iXzXDqdPR9mPFNwkmFhAYpNZ8Wbe/iLcxHvReMxnlK/sdcaGeMy+k5nLxJJLAec9oxg9CWesdBZ8SpbwrPwe9G0Bx7jKe0x/g2fxMNfRKLxNsk7AEHKzrt0VjorXkUzTFpwqUj482oUHuMp9Yu9vZcM/2F88T+LfYHwp7Pizdljhkk8xlPGUyn5B8Ujr59c+ddGX9CU+4g9OiudFa+WM0xSPzzGU9ojmeeH3r4Ir6rxlY0HaRtTbDor3uL3P7WA3+zgMZ7SHmOve1SehylX/hHhn6mjMmMb3qIOltQPj/CnPZxM+AF/ch4Awj+j57xr01nxGCzx8OjPC+pNfHV/fAfAF1hRiPe26ax4DJZ4ePTnmnkmcjAjEMWuPvxHMzHSWfEYLPHoz/Tnyj2TnB+KXcqMbayyiMdgiUd/pj/PxTOKXcQrPGMbqyziMVjirVp/1jL7M3dS83tGcfJ5prZfJPx5bxuP8MdbRc971ywv/EWcc6x9kdMzipPPY8Y2PMIfD6+YVzT8uZNabHwxijO/wVwO3tOkfniEPx7hz8VUpePLxsZpDSnO/AZzs4AllvEIfzzCn/Cv0tPRxb+3jDvn1+ozGcyV+uEl+wozTOKtgFdq+HMndbrwD8b/tgw7bwvPWLiSw6vEcy5ap7/gLbOnar2ywv/gTqqx9kX28A/jnk3YuEXnJ/zxKvWM/oK3zJ6I+HLHU+6kZgz/RtKzYzZu0lkJf7z5eAWfkdIeeIyn1C/uJfNcOp09H2Y8U3CSYWEBik1nxZt7+ItzEe9F4zGeUr+x1xoZ4zL6TmcvEkksB5z2jGD0JZ6x0FnxKlvCs/B70bQHHuMp7TH+DZ/Ew19EovE2yTsAQcrOu3RWOiteRTNMWnCpSPjzahQe4yn1i729lwz/YXzxP4t9gfCns+LN2WOGSTzGU8ZTKfkHxSOvn1z510Zf0JT7iD06K50Vr5YzTFI/vJUZT0MXKvWb6PWS4S9y5RFAcuNB2sZ0VsIfb/H7n1rAb3bwGE9pj7HXPSrPw5Qr/4jwz9RRmbENb1EHS+qHR/jTHk4m/IA/OQ8A4Z/Rc9616ax4DJZ4ePTnBfUmvro/vgPgC6woxHvbdFY8Bks8PPpzzTwTOZgRiGJXH/6jmRjprHgMlnj0Z/pz5Z5Jzg/FLmXGNlZZxGOwxKM/05/n4hnFLuIVnrGNVRbxGCzxVq0/a5n92XMnNbdnFCefZ2r7RcKf97bxCH+8VfS8d82y+rOIiPOsfZHXM4qTz2PGNjzCHw+vmFc0/LmTWmx8MYozv8FcDt7TpH54hD8e4c/FVKXjy8bGaQ0pzvwGc7OAJZbxCH88wp/wr9LT0cW/t4w759fqMxnMlfrhJfsKM0zirYBXavhzJ3W68A/G/7YMO28Lz1i4ksOrxHMuWqe/4C2zp2q9ssJfRcSUtS+mCP8w7tmEjVt0fsIfr1LP6C94y+yJiC9zPFXupGYN/0bSs2M2btJZCX+8+XgFn5HSHniMp9Qv7iXzXDqdPR9mPFNwkmFhAYpNZ8Wbe/iLc7wXjcd4Sv0ue62RMS6j73T2IpHEcsBpzwhGX+IZC50Vr7IlPAu/F0174DGe0h7j3/BJPPxFJBpvk7wDEKTsvEtnpbPiVTTDpAWXioQ/r0bhMZ5Sv9jbe8nwH8YX/7PYFwh/OivenD1mmMRjPGU8lZJ/UDzy+smVf230BU25j9ijs9JZ8Wo5wyT1w2M8pT2SeX7o7Yvwqhpf2XiQtjHFprPiLX7/U+O9aDzGU9rjstc9Ks/DlCv/iPDP1FGZsQ1vUQdL6odH+NMeTib8gD85DwDhn9Fz3rXprHgMlnh49OcF9Sa+uj++A+ALrCjEe9t0VjwGSzw8+nPNPBM5mBGIYlcf/qOZGOmseAyWePRn+nPlnknOD8UuZcY2VlnEY7DEoz/Tn+fiGcUu4hWesY1VFvEYLPFWrT9rmf3Zcyc1t2cUJ59navtFwp/3tvEIf7xV9Lx3zbL6s4iI86x9kdczipPPY8Y2PMIfD6+YVzT8uZNabHwxijO/wVwO3tOkfniEPx7hz8VUpePLxsZpDSnO/AZzs4AllvEIfzzCn/Cv0tPRxb+3jDvn1+ozGcyV+uEl+wozTOKtgFdq+HMndbrwD8b/tgw7bwvPWLiSw6vEcy5ap7/gLbOnar2ywl9FxJS1L6YI/zDu2YSNW3R+wh+vUs/oL3jL7ImIL3M8Ve6kZg3/RtKzYzZu0lkJf7z5eAWfkdIeeIyn1C/uJfNcOp09H2Y8U3CSYWEBik1nxZt7+ItzvBeNx3hK/S57rZExLqPvdPYikcRywGnPCEZf4hkLnRWvsiU8C78XTXvgMZ7SHuPf8Ek8/EUkGm+TvAMQpOy8S2els+JVNMOkBZeKhD+vRuExnlK/2Nt7yfAfxhf/s9gXCH86K96cPWaYxGM8ZTyVkn9QPPL6yZV/bfQFTbmP2KOz0lnxajnDJPXDW5nx1IVOqd9Er5cMf5ErjwCSGw/SNqazEv54i9//1HgvGo/xlPa47HWPyvMw5co/IvwzdVRmbMNb1MGS+uER/rSHkwk/4E/OA0D4Z/Scd206Kx6DJR4e/XlBvYmv7o/vAPgCKwrx3jadFY/BEg+P/lwzz0QOZgSi2NWH/2gmRjorHoMlHv2Z/ly5Z5LzQ7FLmbGNVRbxGCzx6M/057l4RrGLeIVnbGOVRTwGS7xV689aZn/mTmp+zyhOPs/U9ouEP+9t4xH+eKvoee+a5YW/iHOOtS9yekZx8nnM2IZH+OPhFfOKhj93UouNL0Zx5jeYy8F7mtQPj/DHI/y5mKp0fNnYOK0hxZnfYG4WsMQyHuGPR/gT/lV6Orr495Zx5/xafSaDuVI/vGRfYYZJvBXwSg1/7qROF/7B+N+WYedt4RkLV3J4lXjORev0F7xl9lStV1b4H9xJNda+yB7+YdyzCRu36PyEP16lntFf8JbZExFf7njKndSM4d9IenbMxk06K+GPNx+v4DNS2gOP8ZT6xb1knkuns+fDjGcKTjIsLECx6ax4cw9/cS7ivWg8xlPqN/ZaI2NcRt/p7EUiieWA054RjL7EMxY6K15lS3gWfi+a9sBjPKU9xr/hk3j4i0g03iZ5ByBI2XmXzkpnxatohkkLLhUJf16NwmM8pX6xt/eS4T+ML/5nsS8Q/nRWvDl7zDCJx3jKeCol/6B45PWTK//a6Auach+xR2els+LVcoZJ6ofHeEp7JPP80NsX4VU1vrLxIG1jik1nxVv8/qcW8JsdPMZT2mPsdY/K8zDlyj8i/DN1VGZsw1vUwZL64RH+tIeTCT/gT84DQPhn9Jx3bTorHoMlHh79eUG9ia/uj+8A+AIrCvHeNp0Vj8ESD4/+XDPPRA5mBKLY1Yf/aCZGOisegyUe/Zn+XLlnkvNDsUuZsY1VFvEYLPHoz/TnuXhGsYt4hWdsY5VFPAZLvFXrz1pmf+ZOan7PKE4+z9T2i4Q/723jEf54q+h575rlhb+Ic461L3J6RnHyeczYhkf44+EV84qGP3dSi40vRnHmN5jLwXua1A+P8Mcj/LmYqnR82dg4rSHFmd9gbhawxDIe4Y9H+BP+VXo6uvj3lnHn/Fp9JoO5Uj+8ZF9hhkm8FfBKDX/upE4X/sH435Zh523hGQtXcniVeM5F6/QXvGX2VK1XVvgf3Ek11r7IHv5h3LMJG7fo/IQ/XqWe0V/wltkTEV/ueMqd1Izh30h6dszGTTor4Y83H6/gM1LaA4/xlPrFvWSeS6ez58OMZwpOMiwsQLHprHhzD39xLuK9aDzGU+o39lojY1xG3+nsRSKJ5YDTnhGMvsQzFjorXmVLeBZ+L5r2wGM8pT3Gv+GTePiLSDTeJnkHIEjZeZfOSmfFq2iGSQsuFQl/Xo3CYzylfrG395LhP4wv/mexLxD+dFa8OXvMMInHeMp4KiX/oHjk9ZMr/9roC5pyH7FHZ6Wz4tVyhknqh7cy46lzTqnfRK+XDH+RK48AkhsP0jamsxL+eIvf/9QCfrODx3hKe4y97lF5HqZc+UeEf6aOyoxteIs6WFI/PMKf9nAy4Qf8yXkACP+MnvOuTWfFY7DEw6M/L6g38dX98R0AX2BFId7bprPiMVji4dGfa+aZyMGMQBS7+vAfzcRIZ8VjsMSjP9OfK/dMcn4odikztrHKIh6DJR79mf48F88odhGv8IxtrLKIx2CJt2r9Wcvsz8LaF7k9ozj5PFPbLxL+vLeNR/jjraLnvWuWGP6sfVHAM4qTz2PGNjzCHw+vmFc0/Fn7otj4YhRnfoO5HLynSf3wCH88wp+LqUrHl42N0xpSnPkN5mYBSyzjEf54hD/hX6Wno4t/bxl3zq/VZzKYK/XDS/YVZpjEWwGP8J9j+Afjf1uGnbeFX6tzJYdXiedctE5/wVtmT9WaZYX/6E4qa19kD/8w7tmEjVt0fsIfr1LP6C94y+yp168oeTylPbKFfyPp2TEbN+mshD/efDzei8ZbVs95982Mp5V7yTyXTmfPhxnPFJxkWFiAYtNZ8eYe/rwXjbew3tbW1ter6JcznlbqtUbGuIy+09mLRBKPANKeEUjGVYUoNp0VrxTP8V403rJ66vRHGU8r9dIuBqLxP5J3AIKUjbt0fjorXkUzTFpwqUj48+tovEX1tra2/rmI3MB4Wpm3Hr8qGP3fYXzxP4t9gfAn/PHm7DHDJN4yemc2z5z1zv8U42mlXvLtvX5y5V8bfUFT7iP26Pyz7azOuZDOihf3zKxB+OMti/eS61+ytrW19SORj37DzALCf25eLxn+IlceASQ3HqRtTLHL7axhGD5RRD5BZ8Ube+bsid58of6nvBeNN2ev2Txxzfbm9tlP+k/+oIl9uZrOfDylPY70ukfleZhy5R8R/pk6ahkztn2ziLyXzop3+a6QuQ2VwoNlof++ZnP9certx0TEq2okIn57c3taUr33hx4r4i23JyZrKvoE59xTxMRMp1lvjvCX0n9QLMdeDCRPAAj/jJ7zrh3n8nRWdfo9Z8+e/fEHHvjMkM6Kd+ONNzZV9EXzHiydc48IAztT+G0ELee/D69+nplN7RH+pXsT394bnwD4AisK8d523s5q8oTupe5rROQ/0lnxwjB8jYg8bgEGS1fmXO1lL/yCh8f4Uo5nIgczAlHsisN/PNL66LXN5vq30llX29ve3v427/xrFmGwNLN9wgaP8F9+L8zbbBS7nM6vZuad+/lW4+R1ke//5GDQf4DOujre2bNnG91L3R9ykfs3NvG+aTWDZVmvIhJeeIT/YntKsfN5rfDE12hoe2V2fuf8X6npL6hqR1X/wjnXzyR5b84NT3gfOzlR8WbhRdXpB3O82Xpm1vDeP8l7v+Gd/14ze3ypg6XKs3Z2dv4w7/Gxubn5VFP7AGGDVwfPefe1vd7FPyf8p/dCipPPM7V9X3LnN9PHi8i/FS//1nsvWX8NriqiwVppByfebD3v/Oh/Ucn2etTiXikRXnjz9lj7Ir9nFCefx21SvLp5hD/eMnrkUf7j1ygOgyUe4U/98OrukUdTmxpSHAZLPMJ/0f5e79zDasHvipf3efV/JSKXVLUhTh7r1X+Vd/4bzOzRtC8eeTR98I8u/n2YcefrhD/hj0f4z/rv9d7/kffuZ6Moeudv3nXXca8j6ubm5g2q+nIVveXq/wD6C+FPHh0T/sHIOP5HgLH1hI1iE/54hP+s/l7v/ae9d6/q9/d3Mv73+fPnz++JyN7W1tbTvfM/b2ZfTX9ZPc9Y+2Ka8A9jztG/ARht3OLKn/Cfoeedc38tTj4kTj7knPtrkThB/VYk/H9/MOh//RThf9Vnd3f33mE0eKbz7pfpLyvpkUfZwr+R9MJjNm4S/oT/DLxPe/G/as7ON08077399tsfjv//PHPmzCnv/TP80N8sJmdF5dHUb+pPncK/0+/vP9971y1y/EZRfy2K+i9vNk88qKrfT3/BI4+u8hrxK3+RgxmAw4xnCk4yLCxAsTk4j/Kcc/dbYD/8mPsf84633PeWwVHSpUsPXRSR/yEi966tNX7ELPzHqvpDIvZFDG7ZPmW+Fz3Tv9fLB4bD/ncXDf/48dvrXXxts3niMar2rfQXPML/tMnBnXwfC3/f6exFIonfAMSeESR3zjMWDqYi3jsiF738/F3nH5qmPQaDfl+k//Zr5FG/0mv1/7OKfiftMdmrxZW/c93IDV8URYOLZR+/zWbze3q93vWm9kT6C96Kh387ceXvRSSK3yqMfwLCn/Av1fPyqp3dnRfcfffdD+Vtj/+n864Hdnd3v8uL/0HaI7uXtz97P74zOLv/PhX76eGw/9FZHL/vete7HlLVV3D84q14+Ke9vTeML/5nsS+khX+X8D/is3blLIqD88jwf8XO+Z3/WFZ77O7u/gcv/pUMbhPCNdJhkeMjCIL1mb7q59zD/WH3TbM8fnd3d+9w3v0xYbj8XuhCR/inesm39/rJlX9t9AVNuY/YI/yP/fQ4OI/13rpzfueNZbfH7u7uf3Le/QKD5dFepNG+FPpB3fDRM/171d7p3PBTsz5+TeythOvye33p98ijiV4vGf7xOwA66UyB8D/0+VsOziN/8PcXXvwPzKo9+v3+v3DefZzBMt1TtfuLHB9m9qiZ/r0q76zi+A2H4R2E6/J7qvoQeXSs1z0qzy3lyn9I+E/+XLjw4GediyIOzsOeBfbq3d3dS7Nqj/e85z0XVfXVDJapS0pHj/vrx326yPHh/UxfvfTD4fB3qzh+3/2b7/6UF//nhOvyes45d/Hixc8S/qmekwm/4UueAESEfzYvCLQlKp/k4Dx0QP7Zzs7O7bNuj+uvv/5259yfMVhe7ZnZJ457zTJjezx+Vv99zrlPTfpBaJn9xXv/QcJ1qb1P3nPPPUPCP9Wb+Or++ATAdzp7hP+Unop9iIMzcTvO9JdExM+6PV73utc5U3sbg+Uh709LOD6eNKv/PjP7TJXHr/m0/dFflsZT+RB5VOD4EDmYEShPs616sb3493NwJo5H1Z2q2kOdnmewTHhe3lfC8XHtrP77nHeu0uPXZEi4Lq9nYv8veZTfs7zNRrFFvHd/yMF55eOce3hnZ+cDVbXHQ/t/83Hn3MMMlrE2EPfeIsfH+vqpMN8EOtn++1T1ERUfv48kXJfXc+J+nzzK7+U6AaDYB16z2fwtEelycI46k9mfScrt/1m1RxiG4kU+xmB5+dNtt9u/U+T4cM4/bZZ/r3f+8S+5/iVrlR2/Tr6UcF3S8HcuEpE98ii/ZxQnv/fud99xUZy8h4Pz8mD7uTm0x+cYLEfl967zzne+c7/I8aFev2GWf6+ZNe5/zP1fU8Xxu7W1te7EPZVwXU7PzH6/17v4IHmU3zOKU8zz5n+Dg3MUQHr1890q2kNVIwbLy5/fKNqfnbhvruDvvamSwc3bs820QbguqefldvKo2PT1RnGKeRcuXHiXiDzAwSliatfMoT1OMliKOOf+tt1uv6tIf37Oc57zKPHy9Fn/vd75F9x222026+PXiftewnU5Pedc38lwhzzKH/4bG6fVKE4x75577ul68W/l4BQRkSdV3R7iD/a56oOlqb31qNv/Wduj0Whsmlkw67/XzJ70x//zj79tlsdvGDa/1nu3Sbguqafy7l5v/wHyKJen47V/LOPO1wn/o721wdob5dgfA67MwfkFm5ubT6yqPVqtk48zs0czWEpXA31jCf35H1X190YS/fizn/3sEzP7gait/YSaGeG6lJ53LnoTeZQv/OVg1d+Dk/EMO2/L4VWFKHbs8+7ffPenxMnPcXCKqJczVbWHer2RwVJEvPyXc+fO3V+kP99yyy1fKCLPqervNbUnttZaPzOL47fVOPFPxeSbCNcl9ZzsDAbdPyGPcoV/GPdswsYtrvyzeU7djzrnPrfqB6cT/x2VtYeX71r1wdI59zkn7vVF+/NgMPhuFV2r9O81/8Jm88Q/L7O/NBrtDTH9McJ1SccX5/qRH76OPMoV/o2kZ8ds3CT8s3vnz59/QE1/cNUPdjN7RmvtxNNm3R5bW1vPEpOvX/XB0gJ71fnz5x8o0p9HP8h76Tz+XlV9fbN54lWlXPmvnThjFvyqiISE65J6qm8aDLp/Th5N7SXzXDqdvcMnAEecKTiKPfmzu7v7NhH576t+sIvq6z/zmc9enGF7qIj8BwZLuWtnZ+eXivbn9937vueq6JfN6+811de2G6fecerUIz8/T39xTv5Oq3HyRyXQd4hIi3BdUs/Lh/f3L76B8J/aO3Qnv9PZi0QSjwDSnhFIxlWFKPaBF7nBy533n17lg11Nn/Ulj/vS759Ve2xvbv8LFf37qzxYOufuD9fCF5XRn735fz33v9fk5sFg8JHtze0f2tzcfGQW6bnPvbnVbpx8abu9/j/F5OUiooTr0nrdyA2/10z2Cf+pvHaKF13dPle+EI5OCmw8lotIl2JP5zUa7b9nFuyoSHNVD3YvfmDOvuXcXed+u9Tw397+Ju/93ZOfVy/1YNnz4r9xd3f3D4r2562trW0VPbdgf29XRP67F/9b5uyPgyj4y33dvygizSAIHquqX61Ov8mbv1lic/0Trsvree/+Wa936VcI/6m89ZjjRv9fP774n8a+EMSCf3xnoE+x83ntxsnniekvSIFprmq/MI1zF9R0e3d3954y2mNzc/O0eDlnZqdWeLD06vU7zp0/9xtF+/PZs2eD7n73/SLyVMIGb3HD37+x17t4G+E/tSej0B9f9feSK//a6At6qPoHG1PsnN5+/+G3e/Evk5TFcVblYDezU97539re3H5Z0fbY2tr6PvHymyse/iJe/lkZ4S8isr+//08Jf7yF9py8g/AvxTsU/pdbafSl+JX/MG1jij29d2bzzPdEPnpLFTOsLbLnvHuPiLzy/PnzfzJN/W7+hzd/VRREP6WiGytdP+ciNX3p7u7uz5fRn2+88cYvWAvXPiQijyJs8BbSi+QXH97/21eGYXiB8M/lja/894/ykicAKiIR4V+ud+amM5uRRL8++ep16Q9277w7r6q/pCqd/f2HfVr9wrB1MgiC56jqC1X0pmkuj5c0/C8EEnz7ubvOnS+rP29tbf26iv5jwgZvAT3vvf+xXu/iT5IfhbxIJvyAP3kC4Aj/2Xg33XTTV6rqO03tKRzsIs5Fkah+WEU/5rx7QER8IME13vyXeuefkv2OydLfOfn/VPVbd3d3P1RWf97c3LzV1G4nbPAWzfPePyQiL+v1Lu6SH7P3xicAmif4KfZ03q233tru7ff+vfPu+200TzmDB94RV/3O1H6m2W6+Or7ITwlX/k9Q0fdL7NfztAfeQnhOfm/oBi8dDnt/SX5U4xVpNYqd09ve3n6m9/5NKvo0Bg+8w+kv96roy8/dde6Pyux/Z8+ebezv7/+Oij6D9sBbFM959xlV/ZGHH37wV8IwZNK5Cr0gb7NR7PzeRz7ykU+0241ffMQ113zMO3+dqn4+gweec+5P1fTlO+d3XvHhj374E2X3vy970pe9WVXP0B54i+B5cQ+J0zcOhr3vHQx695oZ+VGxl6v1KHZ53nA41BMnHrEhoi8ytefIwUyMDB6r4w29+LtE5M27u7t3S8pro2X0v+3N7X8lKj9Be+AtgPdB590vR9Hgl4fD/gXyY36eUpzF8Vqtk48SkeeOfvl+gxx6RYvBYxk859zn1PQeVb0rCII77rjjjs/Nsv9tbW19l4q+/YpBe+BV5znnnIm935u/W8S/u9u9+BHG+8XwlOIsrKdnzpx5svf+//Def4WKfok4+QIROSUmDefd6EeEPvD+iqcqXkSjAgc7XgmeqTnx0heRC2r6aS/+4+btIxLI/zp37txHJMMEUaVc+W9vP1O8/KJzbjR1ctoKoOoK/L25vNHt3rSosWTaaIH/vpyeL9kr7b/Peedn0R5FPfPmnbi+iV106j5nYn/p1f+ZeftAs9e89/bO7Q8y3i+WN9UJAMXGw8PDw8NbjvDf2DitSnHw8PDw8PBWxhvP+pt2eyd15+sUGw8PDw8Pr/bhf/ntP8uw83ZiO4qNh4eHh4dXv/AP455N2LhFsfHw8PDw8Gof/o2kFx6zcZNi4+Hh4eHh1d5rxBwREel09g6fABxxpuBkwqpCFBsPDw8PD2/hvNbIGIe/73T2IpHErHNpzwhGX9qn2Hh4eHh4eLXy2okrfy8HywTLoRMAOfh1YHLnXYqNh4eHh4dXK289JfyH8ZV/w9gX0sK/R7Hx8PDw8PBq54kcPL4fe/14+F8+ARjd+pfEzg9tTLHx8PDw8PBq4fnExfyhPB/fAUjufED44+Hh4eHh1d7rHpXnYcqVf0T44+Hh4eHh1dpzMuEH/MmJgAh/PDw8PDy8+nsTX90f3wHwBVYUoth4eHh4eHg181QKfCg2Hh4eHh5ePb3cJwAUGw8PDw8Pr75erhMAio2Hh4eHh1dvTykOHh4eHh7e6nlKcfDw8PDw8FbLm+oEgGLj4eHh4eEtR/hvbJxWpTh4eHh4eHgr46kczAHkLePO1yk2Hh4eHh5e7cM/GP/bMuy8ndiOYuPh4eHh4dUv/MO4ZxM2blFsPDw8PDy82od/I+mFx2zcpNh4eHh4eHi19xoxR0REOp29wycAR5wpOMmwsADFxsPDw8PDWyivNTLG4e87nb1IJLEccNozgtGX9ik2Hh4eHh5erbx24srfi0g03iZ5ByBI2XmXYuPh4eHh4dXKW08J/2Gns+cPnQBsbJxOC/8excbDw8PDw6udJ3Lw+H7s9ePhf/kEYHTrXxI7P7QxxcbDw8PDw6uF5xMX84fyfHwHILnzAeGPh4eHh4dXe697VJ6HKVf+EeGPh4eHh4dXa8/JhB/wJycCIvzx8PDw8PDq7018dX98B8AXWFGIYuPh4eHh4dXMUynwodh4eHh4eHj19HKfAFBsPDw8PDy8+nq5TgAoNh4eHh4eXr09pTh4eHh4eHir5ynFwcPDw8PDWy1vqhMAio2Hh4eHh7cc4b+xcVqV4uDh4eHh4a2Mp3IwB5C3jDtfp9h4eHh4eHi1D/9g/G/LsPN2YjuKjYeHh4eHV7/wD+OeTdi4RbHx8PDw8PBqH/6NpBces3GTYuPh4eHh4dXea8QcERHpdPYOnwAccabgJMPCAhQbDw8PDw9vobzWyBiHv+909iKRxHLAac8IRl/ap9h4eHh4eHi18tqJK38vItF4m+QdgCBl512KjYeHh4eHVytvPSX8h53Onj90ArCxcTot/HsUGw8PDw8Pr3aeyMHj+7HXj4f/5ROA0a1/Sez80MYUGw8PDw8PrxaeT1zMH8rz8R2A5M4HhD8eHh4eHl7tve5ReR6mXPlHhD8eHh4eHl6tPScTfsCfnAiI8MfDw8PDw6u/N/HV/fEdAF9gRSGKjYeHh4eHVzNPpcCHYuPh4eHh4dXTy30CQLHx8PDw8PDq64UFwj85yUDR6YLx8PDw8PDwKvI0587bUu50wXh4eHh4eHgVeppj52lLBHcLLlSAh4eHh4eHV5E31QnAMUsE93K+OoiHh4eHh4dXsTc2dYqdN1J23i/wx+Dh4eHh4eFV75mIeM24cdoSwcMCO8fDw8PDw8Or3gtGhg8ybpzceVRw53h4eHh4eHjz8bzI5NcAbXymMP4fOp29SPJ/8PDw8PDw8ObvHX0HIG2J4Ly/NMTDw8PDw8NbKM//b1Uc3/a16o5zAAAAAElFTkSuQmCC;" vertex="1" parent="1">
          <mxGeometry x="90" y="430" width="62" height="62" as="geometry" />
        </mxCell>
      </root>
    </mxGraphModel>
  </diagram>
</mxfile>
